<?xml version="1.0" encoding="UTF-8"?>
<svg xmlns="http://www.w3.org/2000/svg" width="72" height="72" viewBox="0 0 72 72" fill="none">
  <path d="M64.8823 35.7557L59.3874 35.1911C53.1017 34.5465 46.7931 34.1717 40.4869 34.0551C42.5486 31.8242 44.4846 29.4699 46.2629 26.9877L48.0709 24.4642L45.4926 26.1922C42.8869 27.9362 40.4114 29.8448 38.0617 31.8951C37.936 26.6928 37.5634 21.5065 36.9326 16.3591L36.416 12.1465L35.8994 16.3591C35.2762 21.4593 34.9013 26.5869 34.7749 31.7419C32.5303 29.6642 30.16 27.7122 27.6503 25.9088L25.1063 24.0802L26.8526 26.6814C28.592 29.2711 30.4869 31.7237 32.5097 34.0505C26.128 34.1602 19.7623 34.5374 13.4469 35.1911L8 35.7557L13.4469 36.3179C19.7097 36.9671 26.0183 37.3419 32.3497 37.4562C30.2926 39.6825 28.3589 42.0345 26.5691 44.5237L24.7406 47.0654L27.3417 45.3191C29.9543 43.5659 32.4274 41.6551 34.7749 39.6094C34.9006 44.7934 35.2731 49.9797 35.8994 55.1499L36.416 59.4014L36.9326 55.1499C37.5543 50.0368 37.9269 44.9031 38.0549 39.7739C40.3063 41.8562 42.6789 43.8082 45.1863 45.6002L47.7097 47.4082L45.9794 44.8299C44.2491 42.2448 42.3566 39.7899 40.3246 37.4562C46.6834 37.3442 53.0469 36.9694 59.3851 36.3179L64.8823 35.7557Z" fill="#080707"></path>
  <circle cx="35.89" cy="36.0365" r="34.89" stroke="#080707" stroke-width="2"></circle>
</svg>
