<svg width="286" height="74" viewBox="0 0 286 74" fill="none" xmlns="http://www.w3.org/2000/svg">
<path d="M245.689 18.5644C241.869 23.3449 237.236 26.5291 227.036 26.5291H220.622V14.0889H226.836C232.39 14.0889 233.589 15.985 233.721 19.0439L233.73 19.2531H234.497V8.01971H233.73L233.721 8.2275C233.588 11.3084 232.39 13.2171 226.836 13.2171H220.622V2.68709H228.923C236.232 2.68709 240.71 4.53922 244.376 9.07865L244.507 9.23982L245.086 8.8249L238.799 0.00512695H238.315L237.439 1.81663H210.823V2.58719H211.042C215.955 2.58719 216.785 4.24086 216.785 9.20985V20.0096C216.785 25.1458 215.421 26.6316 210.704 26.6316H210.486V27.4022H239.068L239.91 28.7768H240.391L246.385 18.8082L245.817 18.4026L245.688 18.5644H245.689Z" fill="#080707"/>
<path d="M203.725 17.6632C201.13 21.7018 195.736 26.5149 184.783 26.5149H180.76V9.19504C180.76 4.22738 181.59 2.57371 186.503 2.57371H186.722V1.80249H170.961V2.57371H171.179C176.09 2.57371 176.92 4.22738 176.92 9.19504V19.9948C176.92 25.1323 175.557 26.6168 170.843 26.6168H170.624V27.3874H196.414L197.254 28.7633H197.732L204.511 17.9176L203.843 17.478L203.724 17.6638L203.725 17.6632Z" fill="#080707"/>
<path d="M55.6039 11.4203C49.7325 10.1496 44.1874 8.94816 44.1874 5.34978C44.1874 4.67979 44.5237 1.34316 51.1717 1.34316C58.5023 1.34316 63.6817 3.96252 67.9647 9.83726L68.08 9.99443L68.6694 9.66077L64.405 1.37646H63.9048L63.0637 2.95154H63.0031C59.9641 1.72211 56.1753 0.470703 51.1064 0.470703C44.8534 0.470703 40.4844 3.09739 40.4844 6.85826C40.4844 11.8459 47.3116 13.3291 53.9149 14.7623C60.4277 16.1762 66.5781 17.5122 66.5781 21.8485C66.5781 25.1798 62.8446 27.331 57.0651 27.331C49.4168 27.331 42.5037 22.0616 40.4545 18.2568L40.3632 18.0883L39.7019 18.338L43.7219 27.5321H44.2247L45.3362 25.6886H45.4022C47.8637 26.7729 51.7637 28.2014 57.3015 28.2014C64.724 28.2014 69.9081 24.9547 69.9081 20.3047C69.9081 14.5172 62.6361 12.9415 55.6025 11.4197L55.6039 11.4203Z" fill="#080707"/>
<path d="M110.691 -0.00488281L109.647 1.80596H85.3865L84.3422 -0.00488281H83.848L78.9023 9.63074L79.6756 10.015L79.7828 9.85851C84.235 3.37638 91.4304 2.67641 94.3181 2.67641H95.6135V19.9976C95.6135 25.1351 94.2509 26.6189 89.5376 26.6189H89.3192V27.3902H105.718V26.6189H105.5C100.784 26.6189 99.4203 25.1351 99.4203 19.9976V2.67708H100.716C103.603 2.67708 110.798 3.37638 115.25 9.85917L115.359 10.0157L116.131 9.6314L111.187 -0.00488281H110.691Z" fill="#080707"/>
<path d="M151.165 1.79803H146.359V2.57725H146.578C146.797 2.57725 147.007 2.58657 147.207 2.60588C147.36 2.61454 147.504 2.63385 147.636 2.65317C148.056 2.7191 148.437 2.83432 148.781 2.99549C149.42 3.26189 149.915 3.67014 150.212 4.20161C150.708 5.06607 150.708 6.21558 150.221 7.60218C149.982 8.29615 149.62 9.03673 149.143 9.8346L148.924 10.2429C148.924 10.2429 143.65 18.2208 143.631 18.2401L137.881 10.2429L137.604 9.79663L137.137 9.10267C135.4 6.45334 134.294 4.64849 134.675 3.70877C134.848 3.29985 135.333 3.00548 136.172 2.82566C137.002 2.64451 138.204 2.55926 139.845 2.55926H140.064V1.79936C140.064 1.79936 129.573 1.79936 129.573 1.81868C129.411 1.80935 129.038 1.79936 128.19 1.79004H123.669V2.55926H123.888C125.195 2.55926 126.138 2.67315 126.94 2.93022C127.112 2.97751 127.274 3.03478 127.426 3.10072C128.227 3.42373 128.933 3.92788 129.667 4.67779C130.354 5.37043 131.06 6.29217 131.89 7.56422L137.669 16.4173C137.831 16.6637 137.993 16.9108 138.156 17.1579C138.47 17.6607 138.794 18.1649 139.138 18.6484C139.977 19.8645 140.006 20.9001 139.777 22.4852C139.672 23.1692 139.52 23.7492 139.301 24.2421C139.243 24.356 139.187 24.4698 139.119 24.5844C138.995 24.7935 138.862 24.9933 138.709 25.1638C138.623 25.2584 138.537 25.3436 138.451 25.4302C138.118 25.7432 137.708 25.981 137.211 26.1708C136.916 26.2754 136.582 26.3606 136.22 26.4265C135.562 26.5504 134.78 26.617 133.854 26.617H133.635V27.3862C133.635 27.3862 136.83 27.3862 136.84 27.3956H140.464C140.473 27.3956 140.483 27.3862 140.493 27.3862H150.039V26.617H149.82C147.522 26.617 146.1 26.246 145.204 25.4109C143.859 24.1948 143.697 22.1522 143.725 21.042C143.743 20.3127 143.943 19.5921 144.295 18.9521C144.754 18.1149 145.304 17.3264 145.831 16.5292C146.301 15.8166 146.771 15.1033 147.242 14.3913C147.775 13.5848 148.306 12.777 148.839 11.9704C149.229 11.379 149.619 10.789 150.009 10.1982C150.088 10.0764 150.169 9.95514 150.249 9.83393L150.573 9.33976C150.716 9.12131 150.86 8.91219 150.993 8.70374C151.135 8.49461 151.279 8.30547 151.422 8.10501L151.765 7.57354C152.594 6.30149 153.3 5.37975 153.988 4.68712C154.76 3.89858 155.495 3.3851 156.343 3.06209C156.467 3.0148 156.59 2.96752 156.715 2.93821C157.516 2.68247 158.46 2.56859 159.767 2.56859C159.767 2.56859 159.986 2.56859 159.996 2.55926V1.79004H154.006C153.701 1.79004 152.594 1.79936 151.164 1.79936L151.165 1.79803Z" fill="#080707"/>
<path d="M5.44237 55.4376C5.49432 55.1999 5.55625 54.9634 5.61752 54.737C5.70943 54.402 5.81267 54.0703 5.92722 53.752C6.02978 53.4743 6.13433 53.2065 6.24688 52.9495C6.89356 51.473 7.794 50.2668 8.92553 49.3597C9.10934 49.2086 9.29315 49.076 9.48629 48.9448C9.94117 48.6391 10.4107 48.3774 10.8882 48.165C11.0481 48.0864 11.2072 48.0164 11.389 47.9525C11.6768 47.834 11.9824 47.7301 12.3001 47.6468C12.6211 47.5536 12.9408 47.483 13.2671 47.411C14.2255 47.2259 15.2458 47.1333 16.3008 47.1333C16.5019 47.1253 16.6917 47.1327 16.8795 47.1427C19.7146 47.2579 22.5112 48.1197 25.1938 49.7034L25.2484 49.734C27.2051 50.8942 29.0845 52.438 30.6863 54.2009C31.0772 54.6231 31.4162 55.0154 31.7259 55.4003L31.8511 55.5595L32.4758 55.1373L27.6813 46.2695H27.0366L25.9983 48.3801L25.7925 48.3694C22.9421 47.1113 20.4339 46.476 17.67 46.3115C17.2658 46.2829 16.8309 46.2695 16.3008 46.2695C13.6361 46.2695 10.9721 46.8469 8.59451 47.9432C8.08969 48.1949 7.66012 48.422 7.27984 48.6405C5.95851 49.4117 4.80235 50.3141 3.84598 51.3191C3.67549 51.4889 3.51431 51.6581 3.3538 51.8412C2.66183 52.6278 2.08042 53.4603 1.62755 54.3134C1.43507 54.6544 1.26125 55.0107 1.11407 55.367C0.882302 55.8918 0.68782 56.4479 0.537306 57.016C0.48336 57.2085 0.440746 57.3897 0.397456 57.5821C0.311543 57.9731 0.248265 58.3533 0.205641 58.7363C0.146368 59.1452 0.118408 59.5774 0.118408 60.0949C0.118408 60.5425 0.148364 61.0213 0.204308 61.5215C0.260918 61.991 0.33751 62.4232 0.440073 62.8395C0.555956 63.339 0.715801 63.8705 0.929586 64.4632L0.981535 64.607H0.994185C1.1487 64.9833 1.28921 65.297 1.43573 65.5894L1.70413 66.0942L1.73476 66.1515C2.01914 66.6297 2.24826 66.986 2.47736 67.305C2.71778 67.65 2.9955 68.0023 3.35514 68.4219C3.65417 68.7589 3.97585 69.0952 4.34414 69.4502C4.71977 69.8011 5.09338 70.1148 5.44969 70.3812C5.82131 70.6783 6.23023 70.9573 6.63183 71.2304C6.84561 71.3696 7.07138 71.5074 7.27851 71.6213C7.54557 71.7805 7.82396 71.931 8.10035 72.0675C8.93551 72.4891 9.82594 72.8514 10.7437 73.1464C11.0008 73.2317 11.2572 73.3056 11.5109 73.3695C11.9658 73.4914 12.4573 73.5993 13.0613 73.7065C14.0996 73.897 15.1779 73.9929 16.2701 73.9929C16.8002 73.9929 17.2578 73.9796 17.668 73.9496C20.4379 73.7838 22.9441 73.1498 25.8025 71.8897L25.999 71.881L27.0373 73.9929H27.6819L32.4764 65.1245L31.8537 64.7036L31.7285 64.8568C31.4581 65.1851 31.0972 65.6174 30.6863 66.0503C29.0879 67.8085 27.2131 69.3483 25.2617 70.5084L25.1838 70.5517C22.5038 72.1335 19.7113 72.9939 16.8782 73.1078C16.683 73.1185 16.4979 73.1138 16.2708 73.1185C15.2258 73.1185 14.2169 73.0246 13.2685 72.8387C13.1046 72.8101 12.9415 72.7688 12.761 72.7209C12.6031 72.6816 12.4446 72.6416 12.2975 72.6023C11.9851 72.5197 11.6794 72.4172 11.391 72.2986C11.2292 72.2327 11.078 72.1674 10.8822 72.0822C10.412 71.8724 9.94316 71.612 9.48363 71.3023C9.26984 71.1498 9.05605 70.9986 8.84626 70.8288C8.60317 70.623 8.41403 70.4485 8.24953 70.276C7.24721 69.289 6.46733 68.0189 5.92987 66.5005C5.81598 66.1815 5.71143 65.8491 5.61952 65.5128C5.55825 65.2864 5.49565 65.0499 5.44437 64.8135C5.2479 63.9304 5.11203 62.9421 5.03877 61.8751C4.99682 61.301 4.97684 60.7176 4.97684 60.0943C4.97684 59.5062 4.99815 58.9314 5.03877 58.384C5.11137 57.3231 5.2479 56.3321 5.44437 55.437L5.44237 55.4376Z" fill="#080707"/>
<path d="M144.015 65.2299V54.4301C144.015 49.4612 144.845 47.8082 149.756 47.8082H149.975V47.0376H134.251V47.8082H134.47C139.381 47.8082 140.21 49.4618 140.21 54.4301V65.2299C140.21 70.3661 138.848 71.8519 134.133 71.8519H133.914V72.6225H150.314V71.8519H150.095C145.379 71.8519 144.015 70.3661 144.015 65.2299Z" fill="#080707"/>
<path d="M285.302 62.7096L285.184 62.8954C282.587 66.934 277.195 71.7485 266.24 71.7485H262.218V54.4279C262.218 49.459 263.048 47.806 267.96 47.806H268.178V47.0354H252.42V47.806H252.638C257.549 47.806 258.379 49.4596 258.379 54.4279V65.2264C258.379 70.3639 257.016 71.8497 252.3 71.8497H252.081V72.6203H277.872L278.712 73.9949H279.191L285.97 63.1492L285.302 62.7096H285.302Z" fill="#080707"/>
<path d="M111.921 47.0303H90.2818V47.7995H90.5009C95.4219 47.7995 96.2511 49.4618 96.2511 54.4295V65.2186C96.2511 70.3568 94.8878 71.8393 90.1759 71.8393H89.9568V72.6185H105.407V71.8393H105.188C101.249 71.8393 100.115 70.3574 100.115 65.2186V60.3082H109.061C113.113 60.2889 117.358 60.1284 120.829 58.3229C122.88 57.25 124.053 55.5876 124.053 53.7548C124.053 50.6486 120.877 47.0303 111.922 47.0303H111.921ZM112.884 59.3019L108.717 59.4444H100.115V47.9041H111.339C115.526 47.9041 120.324 48.5028 120.324 53.1847C120.333 56.7085 117.825 58.7598 112.884 59.3012L112.884 59.3019Z" fill="#080707"/>
<path d="M191.72 45.2234L190.676 47.0349H166.415L165.372 45.2234H164.876L159.931 54.8597L160.704 55.2426L160.812 55.0861C165.263 48.604 172.458 47.9054 175.346 47.9054H176.641V65.2259C176.641 70.3634 175.28 71.8479 170.566 71.8479H170.347V72.6184H186.746V71.8479H186.527C181.811 71.8479 180.449 70.3627 180.449 65.2259V47.906H181.745C184.631 47.906 191.827 48.6046 196.279 55.0868L196.388 55.2433L197.159 54.8603L192.216 45.2234H191.72Z" fill="#080707"/>
<path d="M77.1583 66.843L68.8613 54.1624C67.9722 52.8011 67.0552 51.3546 66.2247 50.0426C65.0019 48.1138 63.9476 46.4475 63.4474 45.7962L63.3822 45.7109H62.8541L62.7934 45.7569C61.7791 46.5561 60.4851 47.3426 57.9157 47.6929L57.7272 47.7176V48.4562H57.9457C59.1644 48.4562 60.0902 48.7372 60.9167 49.3633L50.5505 65.0634C47.2651 70.0617 44.7943 71.8333 41.1093 71.8333H40.8909V72.6105H54.7622V71.8333H54.5431C52.8215 71.8333 51.4975 71.2405 50.9101 70.2076C50.1722 68.9115 50.5431 66.9675 51.9844 64.5753L52.1981 64.1683L61.6153 49.94C62.1434 50.4815 62.6283 51.0995 63.0918 51.8228L71.1697 64.1563L71.8989 65.3032C73.7384 68.0997 74.8193 69.8626 74.3251 70.7737C73.9216 71.5163 72.3904 71.8346 69.2023 71.8346H68.9839V72.6118H85.366V71.8346H85.1476C81.5938 71.8346 79.9415 71.112 77.1603 66.843H77.1583Z" fill="#080707"/>
<path d="M69.6452 64.4547L68.1227 64.2989C66.3751 64.1204 64.6182 64.0198 62.864 63.9885C63.4408 63.3685 63.9915 62.7265 64.489 62.0358L64.9892 61.3405L64.2753 61.8167C63.548 62.3016 62.8707 62.845 62.2147 63.4151C62.1814 61.9719 62.0795 60.5333 61.903 59.1055L61.7605 57.9426L61.6186 59.1055C61.4434 60.5187 61.3429 61.9426 61.3083 63.3712C60.6829 62.7937 60.0322 62.2403 59.3329 61.7395L58.629 61.2346L59.1118 61.9532C59.5973 62.6719 60.1388 63.3425 60.7042 63.9885C58.928 64.0185 57.1571 64.1197 55.3995 64.3002L53.8904 64.4561L55.3995 64.6126C57.1424 64.7917 58.8973 64.8923 60.6582 64.9229C60.0841 65.541 59.5334 66.183 59.0345 66.8743L58.5277 67.5769L59.2483 67.0947C59.9763 66.6072 60.6549 66.0638 61.3089 65.495C61.3422 66.9342 61.4428 68.3721 61.6193 69.8067L61.7611 70.9801L61.9037 69.8067C62.0768 68.3874 62.1787 66.9642 62.2153 65.541C62.842 66.1204 63.4927 66.6745 64.1907 67.1727L64.89 67.6715L64.4111 66.9589C63.9269 66.2416 63.3868 65.5703 62.8201 64.9229C64.5889 64.8923 66.3605 64.7917 68.124 64.6126L69.6465 64.4561L69.6452 64.4547Z" fill="#080707"/>
<path d="M237.247 66.8376L228.95 54.157C228.061 52.7958 227.144 51.3492 226.314 50.0372C225.091 48.1085 224.036 46.4422 223.536 45.7908L223.471 45.7056H222.943L222.882 45.7515C221.868 46.5507 220.574 47.3373 218.005 47.6876L217.816 47.7122V48.4508H218.035C219.253 48.4508 220.179 48.7312 221.006 49.3579L210.639 65.0581C207.354 70.0564 204.883 71.8272 201.198 71.8272H200.98V72.6051H214.851V71.8272H214.632C212.91 71.8272 211.586 71.2352 210.999 70.2022C210.261 68.9062 210.632 66.9621 212.073 64.5699L212.287 64.163L221.704 49.9346C222.232 50.4761 222.717 51.0941 223.181 51.8174L231.258 64.151L231.987 65.2978C233.827 68.0943 234.908 69.8572 234.413 70.7683C234.01 71.5109 232.479 71.8279 229.291 71.8279H229.072V72.6058H245.454V71.8279H245.236C241.682 71.8279 240.03 71.1066 237.249 66.8369L237.247 66.8376Z" fill="#080707"/>
<path d="M229.734 64.4494L228.212 64.2935C226.464 64.115 224.707 64.0145 222.953 63.9832C223.53 63.3631 224.08 62.7211 224.578 62.0305L225.078 61.3352L224.364 61.8114C223.637 62.2955 222.959 62.8396 222.302 63.4084C222.27 61.9665 222.168 60.5273 221.992 59.1001L221.849 57.9373L221.707 59.1001C221.532 60.5133 221.432 61.9372 221.397 63.3658C220.772 62.7884 220.121 62.2349 219.422 61.7341L218.718 61.2293L219.201 61.9479C219.686 62.6665 220.227 63.3371 220.793 63.9832C219.017 64.0131 217.246 64.1144 215.488 64.2948L213.979 64.4507L215.488 64.6059C217.231 64.7857 218.986 64.8869 220.747 64.9176C220.173 65.5356 219.622 66.1776 219.123 66.8689L218.617 67.5702L219.337 67.0894C220.065 66.6019 220.744 66.0584 221.398 65.4896C221.431 66.9275 221.532 68.3667 221.707 69.8013L221.85 70.9741L221.993 69.8013C222.166 68.3821 222.268 66.9588 222.303 65.5356C222.93 66.115 223.58 66.6691 224.28 67.1673L224.979 67.6668L224.5 66.9542C224.016 66.2369 223.476 65.5656 222.909 64.9182C224.678 64.8876 226.449 64.787 228.213 64.6065L229.735 64.4514L229.734 64.4494Z" fill="#080707"/>
</svg>
