<?xml version="1.0" encoding="UTF-8"?>
<svg xmlns="http://www.w3.org/2000/svg" width="159" height="35" viewBox="0 0 159 35" fill="none">
  <g filter="url(#filter0_d_1925_813)">
    <path d="M8.09227 21.3166C6.58027 21.3166 5.90827 20.4486 5.51627 20.4486C5.29227 20.4486 5.18027 20.5886 5.20827 21.0366H4.73227L4.62027 16.8086H5.06827C5.65627 19.5806 6.94427 20.8686 8.17627 20.8686C9.15627 20.8686 9.80027 20.0286 9.80027 18.5166C9.80027 15.3246 4.81627 14.3726 4.81627 10.6486C4.81627 8.88462 6.16027 7.65262 7.75627 7.65262C8.82027 7.65262 9.49227 8.35262 9.82827 8.35262C10.0243 8.35262 10.1923 8.12862 10.1363 7.42862H10.6123L10.7243 11.6566H10.2763C9.60427 8.82862 8.62427 8.10062 7.78427 8.10062C6.94427 8.10062 6.38427 8.77262 6.38427 9.83662C6.38427 13.0286 11.3683 13.7566 11.3683 17.7886C11.3683 19.8606 9.99627 21.3166 8.09227 21.3166ZM15.488 21.3166C13.752 21.3166 13.22 20.3086 13.22 18.4046V8.54862H12.212V8.01662C13.276 7.14862 13.948 6.19662 14.508 4.65662H15.012V7.87662H17.336V8.54862H15.012V18.3206C15.012 20.1406 15.376 20.5606 15.992 20.5606C16.608 20.5606 17 19.8606 17.112 18.1246H17.616C17.504 20.4206 16.86 21.3166 15.488 21.3166ZM20.1889 26.1046C19.3489 26.1046 18.7609 25.3766 18.7609 24.5366C18.7609 23.6686 19.3769 23.0526 20.0769 23.0526C20.6089 23.0526 20.9449 23.3606 21.1129 23.8086C21.4489 23.5566 21.7569 23.0246 21.9809 22.0166L22.1489 21.2886L19.5169 10.0606C19.2649 8.94062 19.0129 8.38062 17.8929 8.38062V7.87662H22.6809V8.38062C22.0089 8.38062 21.1689 8.85662 21.3929 9.86462L22.9889 17.5646L24.8369 9.86462C25.0889 8.85662 24.3889 8.38062 23.3249 8.38062V7.87662H27.0489V8.38062C25.9569 8.38062 25.6209 8.88462 25.3969 9.86462L21.9529 24.1726C21.6449 25.4606 21.0289 26.1046 20.1889 26.1046ZM27.3676 21.0366V20.5326C27.9836 20.5326 28.6836 19.8886 28.6836 18.8526V3.06062C28.6836 2.19262 28.1796 1.91262 27.0596 1.96862V1.43662L30.4756 0.87662V18.8526C30.4756 19.8886 31.1756 20.5326 32.0996 20.5326V21.0366H27.3676ZM37.1946 21.3166C34.6186 21.3166 33.3586 19.1046 33.3586 14.6526C33.3586 9.94862 34.6186 7.59662 37.1666 7.59662C39.1546 7.59662 40.1906 8.88462 40.1906 11.9646V12.8886H35.3466V13.1126V15.8006C35.3466 19.1886 36.1866 20.5606 37.5026 20.5606C38.4826 20.5606 39.3786 19.8606 39.6586 17.2846H40.1626C39.9386 20.3646 38.5946 21.3166 37.1946 21.3166ZM35.3466 12.3846H38.2306V11.3206C38.2306 8.71662 37.6986 8.10062 36.9706 8.10062C35.8786 8.10062 35.4306 9.50062 35.3466 12.3846ZM47.6606 21.0366V20.5326C48.2766 20.5326 48.9766 19.8886 48.9766 18.8526V10.0606C48.9766 9.19262 48.4726 8.91262 47.3526 8.96862V8.43662L50.7686 7.87662V18.8526C50.7686 19.8886 51.4686 20.5326 52.3926 20.5326V21.0366H47.6606ZM48.4726 4.12462C48.4726 3.28462 49.0326 2.61262 49.7326 2.61262C50.3766 2.61262 50.9366 3.28462 50.9366 4.12462C50.9366 4.93662 50.3766 5.60862 49.7326 5.60862C49.0326 5.60862 48.4726 4.93662 48.4726 4.12462ZM57.2837 21.3166C55.7717 21.3166 55.0997 20.4486 54.7077 20.4486C54.4837 20.4486 54.3717 20.5886 54.3997 21.0366H53.9237L53.8117 16.8086H54.2597C54.8477 19.5806 56.1357 20.8686 57.3677 20.8686C58.3477 20.8686 58.9917 20.0286 58.9917 18.5166C58.9917 15.3246 54.0077 14.3726 54.0077 10.6486C54.0077 8.88462 55.3517 7.65262 56.9477 7.65262C58.0117 7.65262 58.6837 8.35262 59.0197 8.35262C59.2157 8.35262 59.3837 8.12862 59.3277 7.42862H59.8037L59.9157 11.6566H59.4677C58.7957 8.82862 57.8157 8.10062 56.9757 8.10062C56.1357 8.10062 55.5757 8.77262 55.5757 9.83662C55.5757 13.0286 60.5597 13.7566 60.5597 17.7886C60.5597 19.8606 59.1877 21.3166 57.2837 21.3166ZM74.0649 21.2606C73.2809 21.2606 72.4969 20.8406 72.3849 19.5526C71.5449 20.9246 70.8169 21.3166 69.6409 21.3166C68.1289 21.3166 67.4289 19.9726 67.4289 18.4606C67.4289 16.6966 68.4649 14.7366 72.3569 13.0566V11.2366C72.3569 8.80062 71.8529 8.04462 70.7609 8.04462C70.1169 8.04462 69.6409 8.43662 69.4449 9.38862C70.0889 9.41662 70.4529 9.92062 70.4529 10.7046C70.4529 11.4886 69.9489 12.0766 69.1089 12.0766C68.3529 12.0766 67.8769 11.4606 67.8769 10.5366C67.8769 9.02462 69.3609 7.59662 71.1529 7.59662C73.2249 7.59662 74.1489 8.82862 74.1489 10.6766V19.4686C74.1489 20.0006 74.3449 20.2806 74.5969 20.2806C74.7649 20.2806 75.0729 20.0286 75.3809 19.0486L75.8849 19.1886C75.7169 19.8886 75.4089 21.2606 74.0649 21.2606ZM69.3049 17.6766C69.3049 19.2166 69.8369 20.0846 70.4809 20.0846C71.0969 20.0846 71.6849 19.6926 72.3569 18.6286V13.6446C69.8929 14.8206 69.3049 16.0526 69.3049 17.6766ZM69.3609 10.4246V10.0326V10.4246ZM86.4406 21.3166C83.9766 21.3166 82.6046 18.9366 82.6046 14.6526C82.6046 10.1166 84.0326 7.59662 86.5806 7.59662C88.3446 7.59662 89.2686 8.54862 89.2686 9.75262C89.2686 10.6766 88.7926 11.2926 88.0366 11.2926C87.1966 11.2926 86.6926 10.7046 86.6926 9.92062C86.6926 9.19262 87.0006 8.71662 87.5606 8.63262C87.3366 8.26862 86.9726 8.10062 86.4406 8.10062C85.1806 8.10062 84.5926 9.75262 84.5926 13.1126V15.8006C84.5926 19.1886 85.4326 20.5606 86.7486 20.5606C87.7286 20.5606 88.6246 19.8606 88.9046 17.2846H89.4086C89.1846 20.3646 87.8406 21.3166 86.4406 21.3166ZM87.7846 9.44462V9.64062V9.44462ZM94.1886 21.3166C92.6766 21.3166 91.7526 20.0846 91.7526 18.2366V10.0606C91.7526 9.19262 91.2486 8.91262 90.1286 8.96862V8.43662L93.5446 7.87662V17.6766C93.5446 19.8606 94.0766 20.4206 94.8606 20.4206C95.6726 20.4206 96.6806 19.8046 97.2126 18.5726V10.0606C97.2126 9.19262 96.7086 8.91262 95.5886 8.96862V8.43662L99.0046 7.87662V18.9926C99.0046 19.8606 99.5086 20.1406 100.629 20.0846V20.6166L97.2126 21.1766V19.5526C96.4286 20.7566 95.4206 21.3166 94.1886 21.3166ZM101.325 21.0366V20.5326C102.249 20.5326 102.949 19.8886 102.949 18.8526V10.0606C102.949 9.19262 102.445 8.91262 101.325 8.96862V8.43662L104.741 7.87662V9.27662C105.525 8.01662 106.253 7.59662 107.093 7.59662C108.185 7.59662 108.941 8.24062 108.941 9.30462C108.941 10.2846 108.409 10.9006 107.569 10.9006C106.841 10.9006 106.393 10.3966 106.393 9.66862C106.393 9.24862 106.449 8.96862 106.673 8.66062C106.281 8.38062 105.525 8.74462 104.741 10.2566V18.8526C104.741 19.8886 105.441 20.5326 106.645 20.5326V21.0366H101.325ZM109.638 21.0366V20.5326C110.562 20.5326 111.262 19.8886 111.262 18.8526V10.0606C111.262 9.19262 110.758 8.91262 109.638 8.96862V8.43662L113.054 7.87662V9.27662C113.838 8.01662 114.566 7.59662 115.406 7.59662C116.498 7.59662 117.254 8.24062 117.254 9.30462C117.254 10.2846 116.722 10.9006 115.882 10.9006C115.154 10.9006 114.706 10.3966 114.706 9.66862C114.706 9.24862 114.762 8.96862 114.986 8.66062C114.594 8.38062 113.838 8.74462 113.054 10.2566V18.8526C113.054 19.8886 113.754 20.5326 114.958 20.5326V21.0366H109.638ZM122.206 21.3166C119.63 21.3166 118.37 19.1046 118.37 14.6526C118.37 9.94862 119.63 7.59662 122.178 7.59662C124.166 7.59662 125.202 8.88462 125.202 11.9646V12.8886H120.358V13.1126V15.8006C120.358 19.1886 121.198 20.5606 122.514 20.5606C123.494 20.5606 124.39 19.8606 124.67 17.2846H125.174C124.95 20.3646 123.606 21.3166 122.206 21.3166ZM120.358 12.3846H123.242V11.3206C123.242 8.71662 122.71 8.10062 121.982 8.10062C120.89 8.10062 120.442 9.50062 120.358 12.3846ZM133.675 11.2366C133.675 9.05262 133.143 8.49262 132.359 8.49262C131.547 8.49262 130.539 9.10862 130.007 10.3406V18.8526C130.007 19.8886 130.707 20.5326 131.323 20.5326V21.0366H126.591V20.5326C127.515 20.5326 128.215 19.8886 128.215 18.8526V10.0606C128.215 9.19262 127.711 8.91262 126.591 8.96862V8.43662L130.007 7.87662V9.36062C130.791 8.15662 131.799 7.59662 133.031 7.59662C134.543 7.59662 135.467 8.82862 135.467 10.6766V18.8526C135.467 19.8886 136.167 20.5326 137.091 20.5326V21.0366H132.359V20.5326C132.975 20.5326 133.675 19.8886 133.675 18.8526V11.2366ZM141.784 21.3166C139.32 21.3166 137.948 18.9366 137.948 14.6526C137.948 10.1166 139.376 7.59662 141.924 7.59662C143.688 7.59662 144.612 8.54862 144.612 9.75262C144.612 10.6766 144.136 11.2926 143.38 11.2926C142.54 11.2926 142.036 10.7046 142.036 9.92062C142.036 9.19262 142.344 8.71662 142.904 8.63262C142.68 8.26862 142.316 8.10062 141.784 8.10062C140.524 8.10062 139.936 9.75262 139.936 13.1126V15.8006C139.936 19.1886 140.776 20.5606 142.092 20.5606C143.072 20.5606 143.968 19.8606 144.248 17.2846H144.752C144.528 20.3646 143.184 21.3166 141.784 21.3166ZM143.128 9.44462V9.64062V9.44462ZM148.048 26.1046C147.208 26.1046 146.62 25.3766 146.62 24.5366C146.62 23.6686 147.236 23.0526 147.936 23.0526C148.468 23.0526 148.804 23.3606 148.972 23.8086C149.308 23.5566 149.616 23.0246 149.84 22.0166L150.008 21.2886L147.376 10.0606C147.124 8.94062 146.872 8.38062 145.752 8.38062V7.87662H150.54V8.38062C149.868 8.38062 149.028 8.85662 149.252 9.86462L150.848 17.5646L152.696 9.86462C152.948 8.85662 152.248 8.38062 151.184 8.38062V7.87662H154.908V8.38062C153.816 8.38062 153.48 8.88462 153.256 9.86462L149.812 24.1726C149.504 25.4606 148.888 26.1046 148.048 26.1046Z" fill="#080707"></path>
  </g>
  <defs>
    <filter id="filter0_d_1925_813" x="0.620361" y="0.876709" width="158.288" height="33.228" filterUnits="userSpaceOnUse" color-interpolation-filters="sRGB">
      <feFlood flood-opacity="0" result="BackgroundImageFix"></feFlood>
      <feColorMatrix in="SourceAlpha" type="matrix" values="0 0 0 0 0 0 0 0 0 0 0 0 0 0 0 0 0 0 127 0" result="hardAlpha"></feColorMatrix>
      <feOffset dy="4"></feOffset>
      <feGaussianBlur stdDeviation="2"></feGaussianBlur>
      <feComposite in2="hardAlpha" operator="out"></feComposite>
      <feColorMatrix type="matrix" values="0 0 0 0 0 0 0 0 0 0 0 0 0 0 0 0 0 0 0.25 0"></feColorMatrix>
      <feBlend mode="normal" in2="BackgroundImageFix" result="effect1_dropShadow_1925_813"></feBlend>
      <feBlend mode="normal" in="SourceGraphic" in2="effect1_dropShadow_1925_813" result="shape"></feBlend>
    </filter>
  </defs>
</svg>
