<svg width="870" height="726" viewBox="0 0 870 726" fill="none" xmlns="http://www.w3.org/2000/svg">
<path d="M646.312 187.629L715.846 132.201C724.025 142.445 731.638 153.156 738.647 164.294L663.333 211.59C658.102 203.277 652.418 195.28 646.312 187.629Z" fill="#F9461C"/>
<path d="M696.946 292.717L783.666 272.951C786.546 285.643 788.725 298.603 790.189 311.778L701.817 321.705C700.725 311.869 699.096 302.195 696.946 292.717Z" fill="#0B5DB1"/>
<path d="M604.819 146.122L660.274 76.6058C670.539 84.8063 680.349 93.5544 689.628 102.837L626.736 165.706C619.807 158.777 612.484 152.244 604.819 146.122Z" fill="#FF8686"/>
<path d="M688.821 264.467L772.781 235.113C777.087 247.43 780.737 260.055 783.664 272.954L696.944 292.718C694.76 283.088 692.035 273.661 688.821 264.467Z" fill="#FF506E"/>
<path d="M580.865 129.093L628.191 53.7976C639.322 60.8094 650.031 68.4264 660.274 76.6063L604.819 146.124C597.171 140.016 589.178 134.327 580.865 129.093Z" fill="#FF874E"/>
<path d="M663.334 211.59L738.647 164.291C745.62 175.372 752.008 186.858 757.734 198.729L677.585 237.301C673.311 228.437 668.542 219.865 663.334 211.59Z" fill="#FF3D23"/>
<path d="M677.586 237.301L757.734 198.729C763.412 210.502 768.428 222.654 772.784 235.113L688.821 264.467C685.571 255.162 681.824 246.093 677.586 237.301Z" fill="#FF3624"/>
<path d="M626.735 165.706L689.627 102.837C698.904 112.118 707.649 121.93 715.848 132.201L646.312 187.628C640.191 179.963 633.661 172.635 626.735 165.706Z" fill="#FF6C5B"/>
<path d="M441.418 88.9246V-6.86646e-05C454.707 -6.86646e-05 467.818 0.762291 480.724 2.19976L470.763 90.5693C461.128 89.4961 451.34 88.9246 441.418 88.9246Z" fill="#FFE2B7"/>
<path d="M499.749 95.4521H499.747C490.269 93.297 480.597 91.6676 470.762 90.5704L480.721 2.20087C493.893 3.67105 506.852 5.85344 519.545 8.73929L499.749 95.4521Z" fill="#FFE2C9"/>
<path d="M527.997 103.588L557.38 19.6364C569.84 23.9957 581.985 29.0203 593.759 34.7015L555.16 114.834C546.368 110.594 537.298 106.843 527.997 103.588Z" fill="#FFC7AC"/>
<path d="M499.749 95.4513L519.545 8.73843C532.444 11.6712 545.066 15.327 557.381 19.6351L527.997 103.586C518.803 100.369 509.378 97.6402 499.749 95.4513Z" fill="#FFE9E1"/>
<path d="M555.159 114.834L593.76 34.7014C605.628 40.4262 617.111 46.8195 628.189 53.7964L580.867 129.091C572.595 123.883 564.02 119.111 555.159 114.834Z" fill="#FFCC93"/>
<path d="M703.451 350.96C703.451 341.068 702.883 331.312 701.815 321.707L790.188 311.776C791.62 324.643 792.377 337.712 792.377 350.96V351.081L703.451 351.052V350.96Z" fill="#5954AB"/>
<path d="M516.828 312.615L584.408 278.183C588.205 285.621 591.428 293.399 594.046 301.451L521.924 324.888C520.543 320.638 518.833 316.539 516.828 312.615Z" fill="#E6A263"/>
<path d="M599.91 325.946C601.197 334.126 601.871 342.513 601.871 351.054H526.064C526.064 346.547 525.703 342.123 525.025 337.808L599.91 325.946Z" fill="#FFF4E6"/>
<path d="M521.923 324.887L594.045 301.454C596.615 309.367 598.591 317.547 599.909 325.946L525.025 337.808C524.33 333.375 523.281 329.063 521.923 324.887Z" fill="#C9A27C"/>
<path d="M441.418 266.38L441.444 190.572C449.968 190.575 458.334 191.249 466.495 192.533L454.634 267.418C450.329 266.741 445.916 266.383 441.418 266.38Z" fill="#56524F"/>
<path d="M491.15 282.562L535.716 221.221C542.521 226.175 548.927 231.64 554.865 237.578L501.261 291.179C498.129 288.047 494.741 285.176 491.15 282.562Z" fill="#863819"/>
<path d="M454.634 267.417L466.496 192.532C474.894 193.852 483.073 195.827 490.987 198.396L467.554 270.519C463.379 269.164 459.066 268.115 454.634 267.417Z" fill="#8A8C85"/>
<path d="M467.554 270.52L490.987 198.398C499.04 201.012 506.818 204.238 514.258 208.036L479.827 275.615C475.899 273.611 471.803 271.9 467.554 270.52Z" fill="#1F1310"/>
<path d="M479.827 275.614L514.259 208.037C521.777 211.872 528.944 216.29 535.717 221.22L491.15 282.56C487.578 279.961 483.793 277.639 479.827 275.614Z" fill="#4D2513"/>
<path d="M509.881 301.291L571.221 256.725C576.151 263.5 580.569 270.666 584.407 278.183L516.827 312.614C514.805 308.649 512.48 304.864 509.881 301.291Z" fill="#B56842"/>
<path d="M501.263 291.18L554.867 237.575C560.802 243.514 566.27 249.919 571.22 256.724L509.88 301.291C507.269 297.701 504.394 294.312 501.263 291.18Z" fill="#B36823"/>
<path d="M528.046 200.903L566.849 133.697C576.353 139.197 585.455 145.31 594.12 151.969L546.887 213.525C540.901 208.926 534.61 204.703 528.046 200.903Z" fill="#58B848"/>
<path d="M507.71 190.864L537.41 119.165C547.574 123.38 557.407 128.235 566.847 133.697L528.047 200.905C521.526 197.131 514.734 193.777 507.71 190.864Z" fill="#8CD192"/>
<path d="M486.232 183.578L506.319 108.616C516.979 111.464 527.36 114.996 537.408 119.162L507.711 190.864C500.767 187.984 493.596 185.547 486.232 183.578Z" fill="#C7E6BA"/>
<path d="M441.418 177.7L441.444 100.107C452.52 100.109 463.42 100.84 474.117 102.233L463.988 179.17C456.598 178.206 449.069 177.703 441.418 177.7Z" fill="#FFCA64"/>
<path d="M463.986 179.17L474.115 102.233C485.089 103.664 495.836 105.814 506.32 108.615L486.233 183.579C478.991 181.642 471.568 180.158 463.986 179.17Z" fill="#FFDE8A"/>
<path d="M591.507 264.365L658.714 225.562C664.177 235.003 669.032 244.835 673.25 255.002L601.546 284.703C598.636 277.679 595.28 270.886 591.507 264.365Z" fill="#2AA6CB"/>
<path d="M613.253 328.424H613.24C612.252 320.843 610.768 313.419 608.834 306.181V306.178L683.791 286.094H683.795C686.599 296.574 688.746 307.324 690.177 318.298L613.253 328.424Z" fill="#245874"/>
<path d="M690.179 318.297C691.577 329.02 692.305 339.95 692.305 351.054H614.715C614.715 343.384 614.209 335.833 613.241 328.425L690.179 318.297Z" fill="#13274E"/>
<path d="M601.547 284.701L673.249 255.001C677.415 265.054 680.947 275.433 683.795 286.094L608.833 306.181C606.864 298.817 604.427 291.646 601.547 284.701Z" fill="#34C1B4"/>
<path d="M546.886 213.526L594.119 151.97C602.811 158.648 611.065 165.869 618.804 173.61L563.937 228.476C558.591 223.128 552.889 218.14 546.886 213.526Z" fill="#31914A"/>
<path d="M578.886 245.526C574.272 239.52 569.284 233.822 563.938 228.475L618.805 173.609L618.804 173.608C626.543 181.347 633.765 189.598 640.442 198.289L578.886 245.526Z" fill="#AADAC5"/>
<path d="M563.938 228.476V228.474L618.802 173.608L618.804 173.61L563.938 228.476Z" fill="#9AD2BA"/>
<path d="M578.885 245.524L640.441 198.291C647.1 206.953 653.213 216.058 658.713 225.562L591.507 264.365C587.706 257.797 583.483 251.51 578.885 245.524Z" fill="#33C0C9"/>
<path d="M604.748 579.25L660.177 648.784C649.933 656.965 639.222 664.576 628.084 671.585L580.788 596.272C589.101 591.041 597.098 585.356 604.748 579.25Z" fill="#DF2A3F"/>
<path d="M499.659 629.884L519.426 716.603C506.733 719.484 493.774 721.663 480.599 723.127L470.672 634.755C480.507 633.663 490.181 632.033 499.659 629.884Z" fill="#D7A69D"/>
<path d="M646.255 537.759L715.771 593.214C707.571 603.479 698.823 613.288 689.54 622.567L626.671 559.675C633.6 552.746 640.133 545.424 646.255 537.759Z" fill="#3D1A3D"/>
<path d="M527.91 621.759L557.264 705.719C544.947 710.025 532.322 713.674 519.423 716.603L499.659 629.883C509.288 627.697 518.716 624.973 527.91 621.759Z" fill="#B25358"/>
<path d="M663.285 513.804L738.58 561.129C731.569 572.26 723.951 582.969 715.768 593.212L646.254 537.757C652.362 530.11 658.051 522.116 663.285 513.804Z" fill="#6A1333"/>
<path d="M580.788 596.273L628.087 671.586C617.006 678.56 605.52 684.946 593.649 690.672L555.077 610.524C563.94 606.251 572.513 601.48 580.788 596.273Z" fill="#FF3F54"/>
<path d="M555.077 610.523L593.649 690.671C581.875 696.349 569.724 701.365 557.265 705.721L527.911 621.758C537.214 618.508 546.285 614.761 555.077 610.523Z" fill="#D94360"/>
<path d="M626.671 559.674L689.54 622.567C680.26 631.844 670.447 640.588 660.177 648.786L604.749 579.251C612.414 573.129 619.742 566.599 626.671 559.674Z" fill="#C32750"/>
<path d="M703.452 374.356H792.378C792.378 387.646 791.615 400.756 790.177 413.662L701.808 403.701C702.882 394.066 703.452 384.277 703.452 374.356Z" fill="#FDD9DE"/>
<path d="M701.808 403.702L790.177 413.662C788.707 426.833 786.525 439.792 783.639 452.485L696.925 432.689C699.081 423.211 700.71 413.538 701.808 403.702Z" fill="#FE6190"/>
<path d="M688.79 460.935L772.741 490.318C768.382 502.778 763.357 514.923 757.677 526.697L677.543 488.094C681.783 479.306 685.534 470.236 688.79 460.935Z" fill="#953EA0"/>
<path d="M696.926 432.688L783.639 452.484C780.706 465.383 777.05 478.005 772.742 490.32L688.791 460.936C692.008 451.742 694.737 442.317 696.926 432.688Z" fill="#E595B9"/>
<path d="M677.544 488.098L757.677 526.7C751.952 538.567 745.559 550.05 738.582 561.128L663.287 513.806C668.495 505.534 673.268 496.959 677.544 488.098Z" fill="#6F236A"/>
<path d="M441.418 636.39C451.31 636.39 461.066 635.821 470.671 634.755L480.602 723.126C467.735 724.559 454.666 725.315 441.418 725.315H441.297L441.326 636.39H441.418Z" fill="#FFD2C6"/>
<path d="M479.761 449.766L514.193 517.346C506.756 521.142 498.977 524.366 490.925 526.984L467.488 454.862C471.739 453.48 475.837 451.771 479.761 449.766Z" fill="#50241D"/>
<path d="M466.43 532.848C458.25 534.134 449.863 534.809 441.322 534.809V459.002C445.83 459.002 450.254 458.641 454.568 457.963L466.43 532.848Z" fill="#ECD6C6"/>
<path d="M466.432 532.847L454.571 457.967V457.962C459.004 457.269 463.315 456.218 467.491 454.861L467.489 454.862L481.746 498.734L490.924 526.983C483.011 529.553 474.831 531.529 466.432 532.847Z" fill="#91796B"/>
<path d="M525.998 374.356L601.806 374.382C601.803 382.905 601.128 391.272 599.845 399.434L524.96 387.572C525.637 383.266 525.998 378.854 525.998 374.356Z" fill="#FFFDFE"/>
<path d="M509.816 424.088L571.157 468.654C566.203 475.46 560.738 481.865 554.8 487.803L501.199 434.2C504.33 431.067 507.205 427.679 509.816 424.088Z" fill="#224153"/>
<path d="M524.96 387.574L599.844 399.436C598.525 407.835 596.55 416.014 593.981 423.928L521.858 400.495C523.212 396.319 524.265 392.007 524.96 387.574Z" fill="#98C1CE"/>
<path d="M521.858 400.493L593.98 423.927C591.366 431.979 588.14 439.757 584.342 447.198L516.763 412.766C518.767 408.839 520.477 404.742 521.858 400.493Z" fill="#11335C"/>
<path d="M516.764 412.765L584.34 447.196C580.505 454.714 576.087 461.882 571.156 468.655L509.817 424.088C512.416 420.516 514.737 416.73 516.764 412.765Z" fill="#4E6874"/>
<path d="M491.087 442.819L535.653 504.159C528.878 509.088 521.712 513.507 514.195 517.346L479.764 449.765C483.729 447.743 487.514 445.418 491.087 442.819Z" fill="#301F27"/>
<path d="M501.197 434.2L554.801 487.805C548.863 493.74 542.458 499.207 535.653 504.158L491.086 442.818C494.676 440.207 498.065 437.333 501.197 434.2Z" fill="#0E172C"/>
<path d="M591.475 460.984L658.681 499.787C653.181 509.291 647.068 518.394 640.409 527.059L578.853 479.825C583.452 473.84 587.675 467.55 591.475 460.984Z" fill="#BEE2F5"/>
<path d="M601.514 440.648L673.213 470.349C668.999 480.512 664.143 490.346 658.681 499.785L591.474 460.985C595.247 454.461 598.601 447.672 601.514 440.648Z" fill="#6081C4"/>
<path d="M608.8 419.17L683.761 439.257C680.914 449.917 677.382 460.297 673.216 470.347L601.514 440.649C604.394 433.705 606.831 426.534 608.8 419.17Z" fill="#81B1DD"/>
<path d="M614.679 374.356L692.272 374.382C692.27 385.457 691.539 396.358 690.146 407.054L613.209 396.925C614.173 389.538 614.676 382.006 614.679 374.356Z" fill="#0E4085"/>
<path d="M613.208 396.924L690.145 407.053C688.714 418.027 686.564 428.775 683.763 439.258L608.799 419.172C610.736 411.93 612.22 404.507 613.208 396.924Z" fill="#2776C0"/>
<path d="M528.012 524.446L566.815 591.654C557.374 597.116 547.542 601.971 537.374 606.189L507.675 534.487C514.699 531.576 521.491 528.22 528.012 524.446Z" fill="#166072"/>
<path d="M486.198 541.773L506.284 616.734C495.804 619.538 485.056 621.684 474.079 623.116L463.95 546.179C471.533 545.191 478.959 543.706 486.198 541.773Z" fill="#7FD7CE"/>
<path d="M474.081 623.115C463.358 624.515 452.427 625.242 441.323 625.242V547.651C448.994 547.651 456.544 547.145 463.952 546.179L474.081 623.115Z" fill="#FFF6D8"/>
<path d="M507.676 534.487L537.376 606.189C527.324 610.356 516.945 613.887 506.284 616.734L486.197 541.773C493.561 539.803 500.732 537.367 507.676 534.487Z" fill="#2BA38F"/>
<path d="M578.852 479.824L640.408 527.058C633.73 535.749 626.509 544.003 618.769 551.743L563.902 496.877C569.25 491.529 574.238 485.827 578.852 479.824Z" fill="#B4B7DD"/>
<path d="M563.903 496.876L618.769 551.742C611.03 559.481 602.779 566.703 594.088 573.381L546.851 511.825C552.857 507.212 558.555 502.222 563.903 496.876Z" fill="#EBC9E2"/>
<path d="M546.854 511.824L594.087 573.383C585.425 580.039 576.32 586.152 566.816 591.652L528.013 524.446C534.581 520.645 540.868 516.422 546.854 511.824Z" fill="#C2ECEA"/>
<path d="M245.254 146.127L189.825 76.5928C200.07 68.413 210.781 60.8003 221.917 53.7918L269.213 129.105C260.901 134.336 252.905 140.02 245.254 146.127Z" fill="#E3382A"/>
<path d="M350.342 95.4929L330.575 8.7735C343.268 5.8931 356.227 3.71399 369.401 2.24925L379.329 90.6221C369.494 91.7138 359.82 93.3433 350.342 95.4929Z" fill="#FFD8B5"/>
<path d="M203.747 187.62L134.23 132.165C142.431 121.9 151.178 112.091 160.462 102.812L223.33 165.704C216.401 172.632 209.869 179.955 203.747 187.62Z" fill="#FF5E1E"/>
<path d="M322.09 103.619L292.736 19.659C305.053 15.3532 317.677 11.7039 330.577 8.77551L350.341 95.496C340.712 97.6806 331.284 100.405 322.09 103.619Z" fill="#FFB184"/>
<path d="M186.718 211.574L111.422 164.248C118.434 153.117 126.052 142.408 134.232 132.165L203.748 187.62C197.642 195.267 191.952 203.261 186.718 211.574Z" fill="#AC2C1A"/>
<path d="M269.214 129.104L221.915 53.791C232.996 46.8186 244.483 40.4306 256.353 34.7047L294.925 114.853C286.061 119.126 277.489 123.897 269.214 129.104Z" fill="#FF6C5B"/>
<path d="M294.924 114.855L256.353 34.7067C268.125 29.0288 280.277 24.0129 292.735 19.6569L322.09 103.62C312.786 106.87 303.716 110.617 294.924 114.855Z" fill="#F0AF9B"/>
<path d="M223.33 165.703L160.461 102.811C169.741 93.534 179.554 84.7892 189.824 76.5908L245.252 146.126C237.587 152.248 230.259 158.778 223.33 165.703Z" fill="#FF3624"/>
<path d="M146.551 351.021H57.625C57.625 337.732 58.3885 324.622 59.8248 311.716L148.195 321.677C147.121 331.311 146.551 341.1 146.551 351.021Z" fill="#FFCF50"/>
<path d="M148.195 321.676L59.8252 311.716C61.2954 298.545 63.4778 285.586 66.3636 272.893L153.074 292.689C150.921 302.167 149.292 311.841 148.195 321.676Z" fill="#F6A231"/>
<path d="M161.211 264.441L77.2598 235.058C81.6191 222.599 86.6426 210.453 92.3238 198.68L172.458 237.282C168.217 246.071 164.467 255.14 161.211 264.441Z" fill="#FF9A33"/>
<path d="M153.076 292.69L66.3623 272.894C69.2961 259.995 72.952 247.373 77.26 235.059L161.211 264.443C157.994 273.637 155.264 283.061 153.076 292.69Z" fill="#D89844"/>
<path d="M172.458 237.28L92.3242 198.679C98.0501 186.812 104.443 175.328 111.42 164.251L186.715 211.573C181.507 219.844 176.735 228.42 172.458 237.28Z" fill="#FF7A24"/>
<path d="M408.585 88.9868C398.693 88.9868 388.937 89.5551 379.332 90.6228L369.401 2.24996C382.268 0.817947 395.336 0.0610352 408.585 0.0610352H408.706L408.677 88.9868H408.585Z" fill="#DEDFC4"/>
<path d="M370.24 275.611L335.809 208.031C343.246 204.234 351.024 201.011 359.076 198.393L382.513 270.515C378.263 271.896 374.164 273.606 370.24 275.611Z" fill="#7F1B16"/>
<path d="M383.571 192.529C391.751 191.242 400.138 190.568 408.679 190.568V266.376C404.171 266.376 399.748 266.737 395.433 267.414L383.571 192.529Z" fill="#56524F"/>
<path d="M382.512 270.517L359.078 198.394C366.992 195.825 375.172 193.849 383.571 192.53L395.432 267.415C390.999 268.11 386.688 269.159 382.512 270.517Z" fill="#1F1310"/>
<path d="M324.004 351.021H322.356L248.196 350.995C248.2 342.473 248.874 334.107 250.157 325.944L325.042 337.806C324.365 342.112 324.004 346.524 324.004 351.021Z" fill="#FFFDF1"/>
<path d="M340.186 301.289L278.846 256.723C283.799 249.918 289.265 243.512 295.202 237.574L348.803 291.177C345.672 294.31 342.8 297.698 340.186 301.289Z" fill="#863819"/>
<path d="M325.042 337.804L250.157 325.942C251.477 317.544 253.452 309.364 256.022 301.45L328.144 324.884C326.789 329.059 325.737 333.37 325.042 337.804Z" fill="#C9A27C"/>
<path d="M328.145 324.883L256.022 301.449C258.637 293.397 261.863 285.618 265.66 278.178L333.24 312.61C331.234 316.537 329.525 320.634 328.145 324.883Z" fill="#949974"/>
<path d="M333.239 312.613L265.661 278.181C269.497 270.663 273.915 263.496 278.845 256.723L340.185 301.29C337.586 304.862 335.264 308.647 333.239 312.613Z" fill="#CD916D"/>
<path d="M358.916 282.559L314.35 221.218C321.125 216.289 328.29 211.871 335.807 208.033L370.239 275.612C366.273 277.634 362.487 279.96 358.916 282.559Z" fill="#6B5C3E"/>
<path d="M348.805 291.178L295.201 237.574C301.14 231.638 307.545 226.171 314.35 221.22L358.916 282.561C355.326 285.172 351.937 288.046 348.805 291.178Z" fill="#5A3727"/>
<path d="M258.527 264.393L191.319 225.59C196.821 216.086 202.933 206.983 209.593 198.318L271.149 245.552C266.55 251.537 262.327 257.828 258.527 264.393Z" fill="#34C1B4"/>
<path d="M248.489 284.729L176.79 255.028C181.004 244.864 185.86 235.031 191.322 225.592L258.53 264.391C254.756 270.915 251.402 277.705 248.489 284.729Z" fill="#275A94"/>
<path d="M241.202 306.207L166.241 286.121C169.089 275.461 172.62 265.08 176.787 255.031L248.489 284.728C245.609 291.672 243.172 298.843 241.202 306.207Z" fill="#1B728E"/>
<path d="M235.324 351.021L157.731 350.995C157.734 339.92 158.464 329.02 159.857 318.323L236.795 328.452C235.83 335.839 235.328 343.371 235.324 351.021Z" fill="#0C2B40"/>
<path d="M236.794 328.453L159.859 318.324C161.288 307.35 163.438 296.603 166.239 286.119L241.203 306.205C239.266 313.448 237.782 320.87 236.794 328.453Z" fill="#5B3C62"/>
<path d="M321.99 200.931L283.187 133.723C292.626 128.261 302.459 123.406 312.626 119.188L342.327 190.891C335.303 193.802 328.51 197.158 321.99 200.931Z" fill="#A19A32"/>
<path d="M363.802 183.605L343.716 108.644C354.197 105.84 364.944 103.694 375.921 102.263L386.049 179.199C378.467 180.187 371.042 181.672 363.802 183.605Z" fill="#39A947"/>
<path d="M375.921 102.261C386.644 100.863 397.573 100.135 408.678 100.135V177.725C401.008 177.725 393.457 178.231 386.05 179.198L375.921 102.261Z" fill="#82AD91"/>
<path d="M342.325 190.89L312.625 119.188C322.677 115.02 333.057 111.49 343.718 108.642L363.804 183.604C356.441 185.573 349.269 188.01 342.325 190.89Z" fill="#AEA57D"/>
<path d="M271.151 245.552L209.592 198.319C216.273 189.627 223.494 181.373 231.233 173.634L286.101 228.5C280.753 233.847 275.765 239.549 271.151 245.552Z" fill="#222918"/>
<path d="M286.099 228.502L231.233 173.636C238.973 165.897 247.223 158.674 255.915 151.998L303.151 213.552C297.144 218.166 291.446 223.156 286.099 228.502Z" fill="#123D2D"/>
<path d="M303.149 213.553L255.915 151.993C264.577 145.337 273.682 139.224 283.187 133.724L321.99 200.931C315.422 204.732 309.134 208.955 303.149 213.553Z" fill="#4A5E26"/>
<path d="M203.691 537.748L134.157 593.177C125.976 582.932 118.364 572.221 111.355 561.083L186.669 513.788C191.9 522.1 197.584 530.097 203.691 537.748Z" fill="#D22936"/>
<path d="M153.056 432.659L66.3367 452.426C63.4563 439.733 61.2772 426.774 59.8125 413.599L148.185 403.672C149.277 413.508 150.907 423.182 153.056 432.659Z" fill="#F93695"/>
<path d="M245.184 579.254L189.729 648.771C179.463 640.57 169.654 631.823 160.375 622.54L223.267 559.671C230.196 566.601 237.519 573.133 245.184 579.254Z" fill="#6A1333"/>
<path d="M161.181 460.91L77.2205 490.264C72.9146 477.947 69.2653 465.323 66.3369 452.423L153.056 432.659C155.242 442.288 157.966 451.716 161.181 460.91Z" fill="#A52C95"/>
<path d="M269.137 596.286L221.812 671.582C210.681 664.57 199.972 656.952 189.729 648.772L245.183 579.255C252.831 585.362 260.824 591.052 269.137 596.286Z" fill="#FFECF0"/>
<path d="M186.667 513.787L111.354 561.086C104.38 550.005 97.9935 538.519 92.2676 526.648L172.416 488.076C176.689 496.94 181.459 505.513 186.667 513.787Z" fill="#F82D36"/>
<path d="M172.419 488.077L92.2705 526.648C86.5926 514.876 81.5767 502.724 77.2207 490.266L161.184 460.911C164.434 470.215 168.181 479.285 172.419 488.077Z" fill="#C32750"/>
<path d="M223.267 559.67L160.373 622.54C151.097 613.259 142.353 603.447 134.154 593.176L203.69 537.748C209.811 545.413 216.341 552.741 223.267 559.67Z" fill="#A22057"/>
<path d="M408.585 636.451V725.377C395.294 725.377 382.185 724.613 369.279 723.177L379.24 634.806C388.875 635.881 398.663 636.451 408.585 636.451Z" fill="#D1F0EE"/>
<path d="M379.24 634.806L369.28 723.176C356.108 721.706 343.149 719.523 330.456 716.637L350.252 629.923C359.73 632.08 369.403 633.709 379.24 634.806Z" fill="#E1F0E0"/>
<path d="M322.003 621.789L292.619 705.741C280.16 701.381 268.015 696.358 256.241 690.677L294.84 610.543C303.632 614.783 312.702 618.534 322.003 621.789Z" fill="#C7E2F3"/>
<path d="M350.254 629.926L330.458 716.64C317.559 713.706 304.937 710.05 292.622 705.742L322.006 621.791C331.2 625.008 340.625 627.738 350.254 629.926Z" fill="#E2F3FB"/>
<path d="M294.843 610.543L256.242 690.677C244.375 684.951 232.891 678.558 221.813 671.581L269.136 596.286C277.407 601.494 285.983 606.266 294.843 610.543Z" fill="#D3D6EB"/>
<path d="M146.551 374.417C146.551 384.309 147.119 394.065 148.186 403.67L59.8139 413.601C58.3819 400.734 57.625 387.666 57.625 374.417V374.296L146.551 374.325V374.417Z" fill="#FD4C95"/>
<path d="M333.174 412.761L265.594 447.193C261.796 439.756 258.574 431.977 255.956 423.925L328.078 400.488C329.459 404.738 331.168 408.837 333.174 412.761Z" fill="#56524F"/>
<path d="M250.092 399.43C248.805 391.25 248.131 382.863 248.131 374.322H323.938C323.938 378.83 324.299 383.254 324.976 387.568L250.092 399.43Z" fill="white"/>
<path d="M328.079 400.489L255.957 423.923C253.388 416.009 251.411 407.829 250.093 399.43L324.978 387.568C325.672 392.002 326.722 396.313 328.079 400.489Z" fill="#DEDFDA"/>
<path d="M408.584 458.998L408.557 534.806C400.035 534.802 391.668 534.128 383.506 532.845L395.368 457.96C399.674 458.637 404.086 458.995 408.584 458.998Z" fill="#10142B"/>
<path d="M358.851 442.816L314.285 504.156C307.48 499.202 301.074 493.737 295.137 487.799L348.74 434.198C351.872 437.33 355.261 440.201 358.851 442.816Z" fill="#8DA0A5"/>
<path d="M395.367 457.96L383.505 532.845C375.106 531.526 366.926 529.55 359.013 526.981L382.446 454.859C386.622 456.213 390.934 457.262 395.367 457.96Z" fill="#101029"/>
<path d="M382.447 454.857L359.013 526.979C350.961 524.365 343.183 521.139 335.742 517.341L370.174 449.762C374.101 451.767 378.198 453.477 382.447 454.857Z" fill="#040709"/>
<path d="M370.175 449.763L335.744 517.34C328.226 513.505 321.058 509.086 314.285 504.157L358.852 442.817C362.424 445.416 366.21 447.738 370.175 449.763Z" fill="#0D222A"/>
<path d="M340.121 424.086L278.781 468.652C273.851 461.877 269.433 454.711 265.594 447.194L333.175 412.763C335.197 416.728 337.522 420.514 340.121 424.086Z" fill="#130F0D"/>
<path d="M348.74 434.199L295.135 487.803C289.2 481.864 283.733 475.459 278.782 468.654L340.122 424.087C342.733 427.678 345.607 431.067 348.74 434.199Z" fill="#BEC7CD"/>
<path d="M321.955 524.473L283.152 591.681C273.649 586.18 264.546 580.068 255.881 573.407L303.115 511.851C309.1 516.451 315.39 520.674 321.955 524.473Z" fill="#28A4D3"/>
<path d="M342.291 534.514L312.591 606.213C302.427 601.999 292.594 597.143 283.154 591.681L321.954 524.473C328.475 528.247 335.268 531.601 342.291 534.514Z" fill="#0C332E"/>
<path d="M363.77 541.801L343.684 616.762C333.023 613.914 322.643 610.383 312.594 606.216L342.291 534.514C349.235 537.394 356.406 539.831 363.77 541.801Z" fill="#1A603E"/>
<path d="M408.584 547.678L408.557 625.271C397.483 625.268 386.582 624.538 375.886 623.145L386.015 546.207C393.405 547.172 400.934 547.674 408.584 547.678Z" fill="#FAF3B3"/>
<path d="M386.016 546.208L375.887 623.142C364.913 621.713 354.166 619.564 343.683 616.763L363.768 541.798C371.011 543.735 378.434 545.22 386.016 546.208Z" fill="#2DA573"/>
<path d="M258.495 461.012L191.287 499.815C185.825 490.375 180.969 480.542 176.752 470.375L248.454 440.675C251.365 447.698 254.721 454.491 258.495 461.012Z" fill="#132D81"/>
<path d="M241.167 419.199L166.206 439.285C163.402 428.804 161.255 418.055 159.823 407.079L236.761 396.951C237.748 404.534 239.233 411.959 241.167 419.199Z" fill="#421849"/>
<path d="M159.825 407.081C158.426 396.357 157.698 385.427 157.698 374.323H235.289C235.289 381.994 235.795 389.544 236.761 396.952L159.825 407.081Z" fill="#200B1F"/>
<path d="M248.453 440.676L176.751 470.377C172.583 460.324 169.053 449.945 166.205 439.284L241.166 419.197C243.136 426.561 245.572 433.732 248.453 440.676Z" fill="#1E1D52"/>
<path d="M303.117 511.852L255.883 573.408C247.191 566.73 238.937 559.509 231.198 551.77L286.064 496.903C291.412 502.25 297.114 507.239 303.117 511.852Z" fill="#228FCF"/>
<path d="M286.066 496.903L231.2 551.77C223.461 544.03 216.239 535.779 209.561 527.088L271.117 479.852C275.73 485.858 280.72 491.557 286.066 496.903Z" fill="#054DA4"/>
<path d="M271.116 479.853L209.557 527.086C202.9 518.425 196.787 509.319 191.287 499.815L258.494 461.012C262.295 467.58 266.517 473.867 271.116 479.853Z" fill="#0B3E96"/>
<path d="M6.908 30.72H8.732L13.66 42H11.58L10.444 39.296H5.148L3.996 42H1.98L6.908 30.72ZM9.724 37.552L7.788 33.072L5.868 37.552H9.724ZM16.1344 40.928C15.2704 40.0747 14.8384 38.848 14.8384 37.248V30.8H16.8064V37.168C16.8064 38.1813 17.057 38.9707 17.5584 39.536C18.0597 40.08 18.753 40.352 19.6384 40.352C20.5237 40.352 21.2117 40.0907 21.7024 39.568C22.2037 39.0347 22.4544 38.2613 22.4544 37.248V30.8H24.4224V37.152C24.4224 38.784 23.985 40.0373 23.1104 40.912C22.2784 41.7547 21.1104 42.176 19.6064 42.176C18.1237 42.176 16.9664 41.76 16.1344 40.928ZM29.7158 32.624H26.1638V30.8H35.2518V32.624H31.6998V42H29.7158V32.624ZM38.2988 40.928C37.4348 40.0747 37.0028 38.848 37.0028 37.248V30.8H38.9708V37.168C38.9708 38.1813 39.2214 38.9707 39.7228 39.536C40.2241 40.08 40.9174 40.352 41.8028 40.352C42.6881 40.352 43.3761 40.0907 43.8668 39.568C44.3681 39.0347 44.6188 38.2613 44.6188 37.248V30.8H46.5868V37.152C46.5868 38.784 46.1494 40.0373 45.2748 40.912C44.4428 41.7547 43.2748 42.176 41.7708 42.176C40.2881 42.176 39.1308 41.76 38.2988 40.928ZM49.1281 30.8H51.2241L54.6321 36.096L58.0401 30.8H60.1361V42H58.1681V33.968L54.6321 39.248H54.5681L51.0641 34V42H49.1281V30.8ZM62.8588 30.8H64.6828L70.6828 38.544V30.8H72.6188V42H70.9708L64.7948 34.032V42H62.8588V30.8Z" fill="#080707"/>
<path d="M10.4972 69.728L7.02519 78.272C6.67319 79.1253 6.27852 79.728 5.84119 80.08C5.41452 80.432 4.89185 80.608 4.27319 80.608C3.93185 80.608 3.62252 80.5707 3.34519 80.496C3.06785 80.432 2.79052 80.3307 2.51319 80.192L2.92919 79.216C3.13185 79.3227 3.32919 79.3973 3.52119 79.44C3.72385 79.4933 3.95852 79.52 4.22519 79.52C4.59852 79.52 4.91319 79.408 5.16919 79.184C5.42519 78.96 5.67585 78.5547 5.92119 77.968L2.16119 69.728H3.52119L6.52919 76.624L9.18519 69.728H10.4972ZM12.6979 74.32C12.7406 74.768 12.8473 75.168 13.0179 75.52C13.1886 75.8613 13.4073 76.1547 13.6739 76.4C13.9406 76.6347 14.2393 76.816 14.5699 76.944C14.9006 77.0613 15.2473 77.12 15.6099 77.12C16.1859 77.12 16.6766 77.0133 17.0819 76.8C17.4979 76.5867 17.8766 76.304 18.2179 75.952L18.9859 76.64C18.5699 77.1093 18.0953 77.488 17.5619 77.776C17.0286 78.0533 16.3673 78.192 15.5779 78.192C15.0126 78.192 14.4793 78.0907 13.9779 77.888C13.4766 77.6747 13.0393 77.3813 12.6659 77.008C12.2926 76.624 11.9939 76.1653 11.7699 75.632C11.5566 75.0987 11.4499 74.512 11.4499 73.872C11.4499 73.2747 11.5459 72.7147 11.7379 72.192C11.9406 71.6587 12.2179 71.2 12.5699 70.816C12.9219 70.4213 13.3379 70.112 13.8179 69.888C14.3086 69.664 14.8419 69.552 15.4179 69.552C16.0259 69.552 16.5699 69.6693 17.0499 69.904C17.5299 70.128 17.9353 70.4373 18.2659 70.832C18.5966 71.2267 18.8473 71.6907 19.0179 72.224C19.1886 72.7573 19.2739 73.328 19.2739 73.936C19.2739 73.9893 19.2739 74.048 19.2739 74.112C19.2739 74.176 19.2686 74.2453 19.2579 74.32H12.6979ZM12.6979 73.408H18.0259C17.9939 73.0347 17.9139 72.6773 17.7859 72.336C17.6686 71.9947 17.4979 71.696 17.2739 71.44C17.0606 71.184 16.7939 70.9813 16.4739 70.832C16.1646 70.672 15.8019 70.592 15.3859 70.592C15.0233 70.592 14.6873 70.6667 14.3779 70.816C14.0686 70.9547 13.7966 71.152 13.5619 71.408C13.3273 71.6533 13.1353 71.9467 12.9859 72.288C12.8366 72.6293 12.7406 73.0027 12.6979 73.408ZM22.7747 78H21.5427V66.32H22.7747V78ZM26.9778 78H25.7458V66.32H26.9778V78ZM37.9489 73.856C37.9489 74.4427 37.8369 75.0027 37.6129 75.536C37.3996 76.0587 37.1009 76.5173 36.7169 76.912C36.3329 77.3067 35.8743 77.6213 35.3409 77.856C34.8076 78.08 34.2316 78.192 33.6129 78.192C32.9943 78.192 32.4236 78.08 31.9009 77.856C31.3783 77.6213 30.9249 77.312 30.5409 76.928C30.1569 76.5333 29.8583 76.0747 29.6449 75.552C29.4316 75.0293 29.3249 74.4747 29.3249 73.888C29.3249 73.3013 29.4316 72.7467 29.6449 72.224C29.8583 71.6907 30.1569 71.2267 30.5409 70.832C30.9249 70.4373 31.3783 70.128 31.9009 69.904C32.4343 69.6693 33.0156 69.552 33.6449 69.552C34.2636 69.552 34.8343 69.6693 35.3569 69.904C35.8903 70.128 36.3489 70.4373 36.7329 70.832C37.1169 71.216 37.4156 71.6693 37.6289 72.192C37.8423 72.7147 37.9489 73.2693 37.9489 73.856ZM36.6849 73.888C36.6849 73.44 36.6049 73.0187 36.4449 72.624C36.2956 72.2293 36.0823 71.888 35.8049 71.6C35.5276 71.3013 35.2023 71.0667 34.8289 70.896C34.4556 70.7253 34.0503 70.64 33.6129 70.64C33.1649 70.64 32.7543 70.7253 32.3809 70.896C32.0076 71.056 31.6876 71.2853 31.4209 71.584C31.1649 71.872 30.9623 72.2133 30.8129 72.608C30.6636 72.992 30.5889 73.408 30.5889 73.856C30.5889 74.304 30.6636 74.7253 30.8129 75.12C30.9729 75.5147 31.1863 75.856 31.4529 76.144C31.7303 76.432 32.0556 76.6613 32.4289 76.832C32.8023 77.0027 33.2076 77.088 33.6449 77.088C34.0929 77.088 34.5036 77.008 34.8769 76.848C35.2503 76.6773 35.5703 76.448 35.8369 76.16C36.1036 75.872 36.3116 75.536 36.4609 75.152C36.6103 74.7573 36.6849 74.336 36.6849 73.888ZM45.8064 69.696L48.0464 76.368L50.2224 69.728H51.5024L48.5904 78.064H47.5184L45.2944 71.536L43.0544 78.064H41.9664L39.0704 69.728H40.3824L42.5584 76.368L44.7824 69.696H45.8064ZM66.7046 73.856C66.7046 74.5387 66.5926 75.1467 66.3686 75.68C66.1446 76.2133 65.8459 76.6667 65.4726 77.04C65.1099 77.4027 64.6886 77.6853 64.2086 77.888C63.7392 78.08 63.2539 78.176 62.7526 78.176C62.3686 78.176 62.0166 78.128 61.6966 78.032C61.3766 77.936 61.0886 77.808 60.8326 77.648C60.5766 77.488 60.3419 77.3013 60.1286 77.088C59.9259 76.8747 59.7446 76.6507 59.5846 76.416V78H58.3526V66.32H59.5846V71.392C59.7552 71.1467 59.9419 70.912 60.1446 70.688C60.3579 70.464 60.5926 70.272 60.8486 70.112C61.1046 69.9413 61.3872 69.808 61.6966 69.712C62.0166 69.6053 62.3686 69.552 62.7526 69.552C63.2432 69.552 63.7232 69.648 64.1926 69.84C64.6726 70.032 65.0992 70.3147 65.4726 70.688C65.8459 71.0507 66.1446 71.4987 66.3686 72.032C66.5926 72.5653 66.7046 73.1733 66.7046 73.856ZM65.4406 73.872C65.4406 73.3813 65.3606 72.9387 65.2006 72.544C65.0512 72.1493 64.8432 71.8133 64.5766 71.536C64.3099 71.248 64.0006 71.0293 63.6486 70.88C63.2966 70.7307 62.9232 70.656 62.5286 70.656C62.1446 70.656 61.7712 70.736 61.4086 70.896C61.0566 71.0453 60.7366 71.2587 60.4486 71.536C60.1712 71.8133 59.9472 72.1493 59.7766 72.544C59.6166 72.9387 59.5366 73.376 59.5366 73.856C59.5366 74.336 59.6166 74.7787 59.7766 75.184C59.9472 75.5787 60.1712 75.9147 60.4486 76.192C60.7366 76.4693 61.0566 76.688 61.4086 76.848C61.7712 76.9973 62.1446 77.072 62.5286 77.072C62.9232 77.072 63.2966 77.0027 63.6486 76.864C64.0112 76.7147 64.3206 76.5067 64.5766 76.24C64.8432 75.9627 65.0512 75.6267 65.2006 75.232C65.3606 74.8267 65.4406 74.3733 65.4406 73.872ZM71.9696 70.704C71.4789 70.704 71.0309 70.7627 70.6256 70.88C70.2309 70.9867 69.8416 71.1307 69.4576 71.312L69.0896 70.304C69.5482 70.0907 70.0122 69.9253 70.4816 69.808C70.9509 69.68 71.4896 69.616 72.0976 69.616C73.2282 69.616 74.0976 69.8987 74.7056 70.464C75.3136 71.0187 75.6176 71.8453 75.6176 72.944V78H74.4336V76.752C74.1456 77.1253 73.7562 77.456 73.2656 77.744C72.7856 78.032 72.1776 78.176 71.4416 78.176C71.0576 78.176 70.6789 78.1227 70.3056 78.016C69.9429 77.9093 69.6122 77.7493 69.3136 77.536C69.0256 77.312 68.7909 77.04 68.6096 76.72C68.4389 76.4 68.3536 76.0213 68.3536 75.584C68.3536 75.1467 68.4389 74.7627 68.6096 74.432C68.7802 74.0907 69.0202 73.808 69.3296 73.584C69.6496 73.36 70.0229 73.1893 70.4496 73.072C70.8869 72.9547 71.3669 72.896 71.8896 72.896C72.4229 72.896 72.8869 72.928 73.2816 72.992C73.6762 73.056 74.0602 73.1413 74.4336 73.248V72.96C74.4336 72.2133 74.2149 71.6533 73.7776 71.28C73.3509 70.896 72.7482 70.704 71.9696 70.704ZM72.0176 73.808C71.2389 73.808 70.6416 73.9627 70.2256 74.272C69.8096 74.5813 69.6016 75.0027 69.6016 75.536C69.6016 75.8027 69.6549 76.0373 69.7616 76.24C69.8789 76.4427 70.0336 76.6187 70.2256 76.768C70.4176 76.9067 70.6362 77.0133 70.8816 77.088C71.1376 77.1627 71.4042 77.2 71.6816 77.2C72.0656 77.2 72.4229 77.1467 72.7536 77.04C73.0949 76.9227 73.3882 76.768 73.6336 76.576C73.8896 76.3733 74.0869 76.1387 74.2256 75.872C74.3749 75.5947 74.4496 75.2907 74.4496 74.96V74.16C74.1402 74.0747 73.7829 73.9947 73.3776 73.92C72.9829 73.8453 72.5296 73.808 72.0176 73.808ZM83.9232 75.68C83.9232 76.0747 83.8432 76.4267 83.6832 76.736C83.5339 77.0347 83.3259 77.2907 83.0592 77.504C82.8032 77.7173 82.4939 77.8827 82.1312 78C81.7792 78.1067 81.3952 78.16 80.9792 78.16C80.3819 78.16 79.7792 78.0533 79.1712 77.84C78.5632 77.616 78.0245 77.3173 77.5552 76.944L78.1792 76.064C78.6272 76.4053 79.0912 76.6667 79.5712 76.848C80.0619 77.0293 80.5525 77.12 81.0432 77.12C81.5445 77.12 81.9552 77.0027 82.2752 76.768C82.5952 76.5333 82.7552 76.2133 82.7552 75.808V75.776C82.7552 75.5733 82.6965 75.3973 82.5792 75.248C82.4725 75.0987 82.3232 74.9707 82.1312 74.864C81.9392 74.7467 81.7152 74.6453 81.4592 74.56C81.2139 74.4747 80.9579 74.3947 80.6912 74.32C80.3712 74.224 80.0459 74.1227 79.7152 74.016C79.3952 73.8987 79.1019 73.7547 78.8352 73.584C78.5792 73.4133 78.3659 73.2 78.1952 72.944C78.0352 72.688 77.9552 72.368 77.9552 71.984V71.952C77.9552 71.6 78.0245 71.28 78.1632 70.992C78.3019 70.6933 78.4939 70.4427 78.7392 70.24C78.9952 70.0267 79.2939 69.8667 79.6352 69.76C79.9872 69.6427 80.3659 69.584 80.7712 69.584C81.2832 69.584 81.8005 69.6693 82.3232 69.84C82.8459 70 83.3205 70.2187 83.7472 70.496L83.1872 71.424C82.8032 71.1787 82.3979 70.9867 81.9712 70.848C81.5552 70.6987 81.1445 70.624 80.7392 70.624C80.2485 70.624 79.8592 70.7413 79.5712 70.976C79.2832 71.2 79.1392 71.4827 79.1392 71.824V71.856C79.1392 72.048 79.1979 72.2187 79.3152 72.368C79.4325 72.5067 79.5872 72.6293 79.7792 72.736C79.9819 72.8427 80.2112 72.9387 80.4672 73.024C80.7232 73.1093 80.9899 73.1947 81.2672 73.28C81.5872 73.376 81.9019 73.4827 82.2112 73.6C82.5312 73.7173 82.8192 73.8667 83.0752 74.048C83.3312 74.2293 83.5339 74.448 83.6832 74.704C83.8432 74.96 83.9232 75.2747 83.9232 75.648V75.68ZM86.9479 74.32C86.9906 74.768 87.0973 75.168 87.2679 75.52C87.4386 75.8613 87.6573 76.1547 87.9239 76.4C88.1906 76.6347 88.4893 76.816 88.8199 76.944C89.1506 77.0613 89.4973 77.12 89.8599 77.12C90.4359 77.12 90.9266 77.0133 91.3319 76.8C91.7479 76.5867 92.1266 76.304 92.4679 75.952L93.2359 76.64C92.8199 77.1093 92.3453 77.488 91.8119 77.776C91.2786 78.0533 90.6173 78.192 89.8279 78.192C89.2626 78.192 88.7293 78.0907 88.2279 77.888C87.7266 77.6747 87.2893 77.3813 86.9159 77.008C86.5426 76.624 86.2439 76.1653 86.0199 75.632C85.8066 75.0987 85.6999 74.512 85.6999 73.872C85.6999 73.2747 85.7959 72.7147 85.9879 72.192C86.1906 71.6587 86.4679 71.2 86.8199 70.816C87.1719 70.4213 87.5879 70.112 88.0679 69.888C88.5586 69.664 89.0919 69.552 89.6679 69.552C90.2759 69.552 90.8199 69.6693 91.2999 69.904C91.7799 70.128 92.1853 70.4373 92.5159 70.832C92.8466 71.2267 93.0973 71.6907 93.2679 72.224C93.4386 72.7573 93.5239 73.328 93.5239 73.936C93.5239 73.9893 93.5239 74.048 93.5239 74.112C93.5239 74.176 93.5186 74.2453 93.5079 74.32H86.9479ZM86.9479 73.408H92.2759C92.2439 73.0347 92.1639 72.6773 92.0359 72.336C91.9186 71.9947 91.7479 71.696 91.5239 71.44C91.3106 71.184 91.0439 70.9813 90.7239 70.832C90.4146 70.672 90.0519 70.592 89.6359 70.592C89.2733 70.592 88.9373 70.6667 88.6279 70.816C88.3186 70.9547 88.0466 71.152 87.8119 71.408C87.5773 71.6533 87.3853 71.9467 87.2359 72.288C87.0866 72.6293 86.9906 73.0027 86.9479 73.408ZM103.553 78H102.321V76.336C102.15 76.5813 101.958 76.816 101.745 77.04C101.542 77.264 101.313 77.4613 101.057 77.632C100.801 77.8027 100.513 77.936 100.193 78.032C99.8834 78.128 99.5367 78.176 99.1527 78.176C98.6514 78.176 98.166 78.08 97.6967 77.888C97.2274 77.696 96.806 77.4187 96.4327 77.056C96.0594 76.6827 95.7607 76.2293 95.5367 75.696C95.3127 75.1627 95.2007 74.5547 95.2007 73.872C95.2007 73.1893 95.3127 72.5813 95.5367 72.048C95.7607 71.5147 96.0594 71.0667 96.4327 70.704C96.806 70.3307 97.2274 70.048 97.6967 69.856C98.166 69.6533 98.6514 69.552 99.1527 69.552C99.5367 69.552 99.8887 69.6 100.209 69.696C100.529 69.792 100.817 69.92 101.073 70.08C101.329 70.24 101.558 70.4267 101.761 70.64C101.974 70.8533 102.161 71.0773 102.321 71.312V66.32H103.553V78ZM102.369 73.856C102.369 73.376 102.283 72.9387 102.113 72.544C101.953 72.1493 101.729 71.8133 101.441 71.536C101.163 71.2587 100.843 71.0453 100.481 70.896C100.129 70.736 99.7607 70.656 99.3767 70.656C98.9714 70.656 98.5927 70.7307 98.2407 70.88C97.8887 71.0187 97.5794 71.2267 97.3127 71.504C97.0567 71.7707 96.8487 72.1067 96.6887 72.512C96.5394 72.9067 96.4647 73.3547 96.4647 73.856C96.4647 74.3467 96.5394 74.7893 96.6887 75.184C96.8487 75.5787 97.062 75.92 97.3287 76.208C97.5954 76.4853 97.9047 76.6987 98.2567 76.848C98.6087 76.9973 98.982 77.072 99.3767 77.072C99.7607 77.072 100.129 76.9973 100.481 76.848C100.843 76.688 101.163 76.4693 101.441 76.192C101.729 75.9147 101.953 75.5787 102.113 75.184C102.283 74.7787 102.369 74.336 102.369 73.856ZM116.783 75.68C116.783 76.0747 116.703 76.4267 116.543 76.736C116.393 77.0347 116.185 77.2907 115.919 77.504C115.663 77.7173 115.353 77.8827 114.991 78C114.639 78.1067 114.255 78.16 113.839 78.16C113.241 78.16 112.639 78.0533 112.031 77.84C111.423 77.616 110.884 77.3173 110.415 76.944L111.039 76.064C111.487 76.4053 111.951 76.6667 112.431 76.848C112.921 77.0293 113.412 77.12 113.903 77.12C114.404 77.12 114.815 77.0027 115.135 76.768C115.455 76.5333 115.615 76.2133 115.615 75.808V75.776C115.615 75.5733 115.556 75.3973 115.439 75.248C115.332 75.0987 115.183 74.9707 114.991 74.864C114.799 74.7467 114.575 74.6453 114.319 74.56C114.073 74.4747 113.817 74.3947 113.551 74.32C113.231 74.224 112.905 74.1227 112.575 74.016C112.255 73.8987 111.961 73.7547 111.695 73.584C111.439 73.4133 111.225 73.2 111.055 72.944C110.895 72.688 110.815 72.368 110.815 71.984V71.952C110.815 71.6 110.884 71.28 111.023 70.992C111.161 70.6933 111.353 70.4427 111.599 70.24C111.855 70.0267 112.153 69.8667 112.495 69.76C112.847 69.6427 113.225 69.584 113.631 69.584C114.143 69.584 114.66 69.6693 115.183 69.84C115.705 70 116.18 70.2187 116.607 70.496L116.047 71.424C115.663 71.1787 115.257 70.9867 114.831 70.848C114.415 70.6987 114.004 70.624 113.599 70.624C113.108 70.624 112.719 70.7413 112.431 70.976C112.143 71.2 111.999 71.4827 111.999 71.824V71.856C111.999 72.048 112.057 72.2187 112.175 72.368C112.292 72.5067 112.447 72.6293 112.639 72.736C112.841 72.8427 113.071 72.9387 113.327 73.024C113.583 73.1093 113.849 73.1947 114.127 73.28C114.447 73.376 114.761 73.4827 115.071 73.6C115.391 73.7173 115.679 73.8667 115.935 74.048C116.191 74.2293 116.393 74.448 116.543 74.704C116.703 74.96 116.783 75.2747 116.783 75.648V75.68ZM127.183 73.856C127.183 74.4427 127.071 75.0027 126.847 75.536C126.634 76.0587 126.335 76.5173 125.951 76.912C125.567 77.3067 125.109 77.6213 124.575 77.856C124.042 78.08 123.466 78.192 122.847 78.192C122.229 78.192 121.658 78.08 121.135 77.856C120.613 77.6213 120.159 77.312 119.775 76.928C119.391 76.5333 119.093 76.0747 118.879 75.552C118.666 75.0293 118.559 74.4747 118.559 73.888C118.559 73.3013 118.666 72.7467 118.879 72.224C119.093 71.6907 119.391 71.2267 119.775 70.832C120.159 70.4373 120.613 70.128 121.135 69.904C121.669 69.6693 122.25 69.552 122.879 69.552C123.498 69.552 124.069 69.6693 124.591 69.904C125.125 70.128 125.583 70.4373 125.967 70.832C126.351 71.216 126.65 71.6693 126.863 72.192C127.077 72.7147 127.183 73.2693 127.183 73.856ZM125.919 73.888C125.919 73.44 125.839 73.0187 125.679 72.624C125.53 72.2293 125.317 71.888 125.039 71.6C124.762 71.3013 124.437 71.0667 124.063 70.896C123.69 70.7253 123.285 70.64 122.847 70.64C122.399 70.64 121.989 70.7253 121.615 70.896C121.242 71.056 120.922 71.2853 120.655 71.584C120.399 71.872 120.197 72.2133 120.047 72.608C119.898 72.992 119.823 73.408 119.823 73.856C119.823 74.304 119.898 74.7253 120.047 75.12C120.207 75.5147 120.421 75.856 120.687 76.144C120.965 76.432 121.29 76.6613 121.663 76.832C122.037 77.0027 122.442 77.088 122.879 77.088C123.327 77.088 123.738 77.008 124.111 76.848C124.485 76.6773 124.805 76.448 125.071 76.16C125.338 75.872 125.546 75.536 125.695 75.152C125.845 74.7573 125.919 74.336 125.919 73.888ZM131.095 69.76H133.719V70.816H131.111V78H129.879V70.816H128.743V69.744H129.879V69.024C129.879 68.1173 130.092 67.4293 130.519 66.96C130.956 66.4907 131.575 66.256 132.375 66.256C132.663 66.256 132.908 66.272 133.111 66.304C133.324 66.336 133.532 66.3893 133.735 66.464V67.536C133.511 67.472 133.308 67.424 133.127 67.392C132.946 67.3493 132.748 67.328 132.535 67.328C131.575 67.328 131.095 67.9147 131.095 69.088V69.76ZM136.954 70.816V75.648C136.954 76.16 137.082 76.5173 137.338 76.72C137.594 76.9227 137.93 77.024 138.346 77.024C138.559 77.024 138.757 77.0027 138.938 76.96C139.13 76.9173 139.333 76.8427 139.546 76.736V77.792C139.333 77.9093 139.103 77.9947 138.858 78.048C138.623 78.112 138.357 78.144 138.058 78.144C137.727 78.144 137.418 78.1013 137.13 78.016C136.842 77.9307 136.591 77.7973 136.378 77.616C136.175 77.424 136.015 77.1787 135.898 76.88C135.781 76.5813 135.722 76.224 135.722 75.808V70.816H134.57V69.728H135.722V67.232H136.954V69.728H139.578V70.816H136.954Z" fill="#504F4F"/>
<path d="M1.076 609.8H3.204L5.876 618.104L8.628 609.768H10.292L13.044 618.104L15.716 609.8H17.78L13.892 621.08H12.18L9.428 613.032L6.676 621.08H4.98L1.076 609.8ZM19.7514 609.8H21.7194V621H19.7514V609.8ZM24.5575 609.8H26.3815L32.3815 617.544V609.8H34.3175V621H32.6695L26.4935 613.032V621H24.5575V609.8ZM38.3526 611.624H34.8006V609.8H43.8886V611.624H40.3366V621H38.3526V611.624ZM45.8156 609.8H54.1196V611.56H47.7836V614.472H53.3996V616.232H47.7836V619.24H54.1996V621H45.8156V609.8ZM56.3744 609.8H61.3664C62.7637 609.8 63.841 610.173 64.5984 610.92C65.217 611.549 65.5264 612.355 65.5264 613.336V613.368C65.5264 615.117 64.641 616.248 62.8704 616.76L65.8944 621H63.5584L60.8064 617.096H58.3424V621H56.3744V609.8ZM61.2224 615.352C61.9157 615.352 62.4757 615.181 62.9024 614.84C63.3184 614.499 63.5264 614.045 63.5264 613.48V613.448C63.5264 612.211 62.753 611.592 61.2064 611.592H58.3424V615.352H61.2224Z" fill="#080707"/>
<path d="M10.2436 652.856C10.2436 653.539 10.1316 654.147 9.90763 654.68C9.68363 655.213 9.38496 655.667 9.01163 656.04C8.64896 656.403 8.22763 656.685 7.74763 656.888C7.27829 657.08 6.79296 657.176 6.29163 657.176C5.90763 657.176 5.55563 657.128 5.23563 657.032C4.91563 656.936 4.62763 656.808 4.37163 656.648C4.11563 656.488 3.88096 656.301 3.66763 656.088C3.46496 655.875 3.28363 655.651 3.12363 655.416V657H1.89163V645.32H3.12363V650.392C3.29429 650.147 3.48096 649.912 3.68363 649.688C3.89696 649.464 4.13163 649.272 4.38763 649.112C4.64363 648.941 4.92629 648.808 5.23563 648.712C5.55563 648.605 5.90763 648.552 6.29163 648.552C6.78229 648.552 7.26229 648.648 7.73163 648.84C8.21163 649.032 8.63829 649.315 9.01163 649.688C9.38496 650.051 9.68363 650.499 9.90763 651.032C10.1316 651.565 10.2436 652.173 10.2436 652.856ZM8.97963 652.872C8.97963 652.381 8.89963 651.939 8.73962 651.544C8.59029 651.149 8.38229 650.813 8.11563 650.536C7.84896 650.248 7.53963 650.029 7.18763 649.88C6.83563 649.731 6.46229 649.656 6.06763 649.656C5.68363 649.656 5.31029 649.736 4.94763 649.896C4.59563 650.045 4.27563 650.259 3.98763 650.536C3.71029 650.813 3.48629 651.149 3.31563 651.544C3.15563 651.939 3.07563 652.376 3.07563 652.856C3.07563 653.336 3.15563 653.779 3.31563 654.184C3.48629 654.579 3.71029 654.915 3.98763 655.192C4.27563 655.469 4.59563 655.688 4.94763 655.848C5.31029 655.997 5.68363 656.072 6.06763 656.072C6.46229 656.072 6.83563 656.003 7.18763 655.864C7.55029 655.715 7.85963 655.507 8.11563 655.24C8.38229 654.963 8.59029 654.627 8.73962 654.232C8.89963 653.827 8.97963 653.373 8.97963 652.872ZM13.8606 657H12.6286V645.32H13.8606V657ZM22.5918 653.464V648.728H23.8078V657H22.5918V655.56C22.3144 656.008 21.9518 656.392 21.5038 656.712C21.0558 657.021 20.4744 657.176 19.7598 657.176C19.2584 657.176 18.8104 657.096 18.4158 656.936C18.0318 656.776 17.7011 656.552 17.4238 656.264C17.1571 655.965 16.9491 655.613 16.7998 655.208C16.6611 654.803 16.5918 654.355 16.5918 653.864V648.728H17.8238V653.56C17.8238 654.328 18.0211 654.936 18.4158 655.384C18.8104 655.832 19.3758 656.056 20.1118 656.056C20.4638 656.056 20.7891 655.997 21.0878 655.88C21.3971 655.752 21.6584 655.576 21.8718 655.352C22.0958 655.117 22.2718 654.84 22.3998 654.52C22.5278 654.2 22.5918 653.848 22.5918 653.464ZM27.3151 653.32C27.3578 653.768 27.4645 654.168 27.6351 654.52C27.8058 654.861 28.0245 655.155 28.2911 655.4C28.5578 655.635 28.8565 655.816 29.1871 655.944C29.5178 656.061 29.8645 656.12 30.2271 656.12C30.8031 656.12 31.2938 656.013 31.6991 655.8C32.1151 655.587 32.4938 655.304 32.8351 654.952L33.6031 655.64C33.1871 656.109 32.7125 656.488 32.1791 656.776C31.6458 657.053 30.9845 657.192 30.1951 657.192C29.6298 657.192 29.0965 657.091 28.5951 656.888C28.0938 656.675 27.6565 656.381 27.2831 656.008C26.9098 655.624 26.6111 655.165 26.3871 654.632C26.1738 654.099 26.0671 653.512 26.0671 652.872C26.0671 652.275 26.1631 651.715 26.3551 651.192C26.5578 650.659 26.8351 650.2 27.1871 649.816C27.5391 649.421 27.9551 649.112 28.4351 648.888C28.9258 648.664 29.4591 648.552 30.0351 648.552C30.6431 648.552 31.1871 648.669 31.6671 648.904C32.1471 649.128 32.5525 649.437 32.8831 649.832C33.2138 650.227 33.4645 650.691 33.6351 651.224C33.8058 651.757 33.8911 652.328 33.8911 652.936C33.8911 652.989 33.8911 653.048 33.8911 653.112C33.8911 653.176 33.8858 653.245 33.8751 653.32H27.3151ZM27.3151 652.408H32.6431C32.6111 652.035 32.5311 651.677 32.4031 651.336C32.2858 650.995 32.1151 650.696 31.8911 650.44C31.6778 650.184 31.4111 649.981 31.0911 649.832C30.7818 649.672 30.4191 649.592 30.0031 649.592C29.6405 649.592 29.3045 649.667 28.9951 649.816C28.6858 649.955 28.4138 650.152 28.1791 650.408C27.9445 650.653 27.7525 650.947 27.6031 651.288C27.4538 651.629 27.3578 652.003 27.3151 652.408ZM49.1968 652.856C49.1968 653.539 49.0848 654.147 48.8608 654.68C48.6368 655.213 48.3381 655.667 47.9648 656.04C47.6021 656.403 47.1808 656.685 46.7008 656.888C46.2314 657.08 45.7461 657.176 45.2448 657.176C44.8608 657.176 44.5088 657.128 44.1888 657.032C43.8688 656.936 43.5808 656.808 43.3248 656.648C43.0688 656.488 42.8341 656.301 42.6208 656.088C42.4181 655.875 42.2368 655.651 42.0768 655.416V657H40.8448V645.32H42.0768V650.392C42.2474 650.147 42.4341 649.912 42.6368 649.688C42.8501 649.464 43.0848 649.272 43.3408 649.112C43.5968 648.941 43.8794 648.808 44.1888 648.712C44.5088 648.605 44.8608 648.552 45.2448 648.552C45.7354 648.552 46.2154 648.648 46.6848 648.84C47.1648 649.032 47.5914 649.315 47.9648 649.688C48.3381 650.051 48.6368 650.499 48.8608 651.032C49.0848 651.565 49.1968 652.173 49.1968 652.856ZM47.9328 652.872C47.9328 652.381 47.8528 651.939 47.6927 651.544C47.5434 651.149 47.3354 650.813 47.0688 650.536C46.8021 650.248 46.4928 650.029 46.1408 649.88C45.7888 649.731 45.4154 649.656 45.0208 649.656C44.6368 649.656 44.2634 649.736 43.9008 649.896C43.5488 650.045 43.2288 650.259 42.9408 650.536C42.6634 650.813 42.4394 651.149 42.2688 651.544C42.1088 651.939 42.0288 652.376 42.0288 652.856C42.0288 653.336 42.1088 653.779 42.2688 654.184C42.4394 654.579 42.6634 654.915 42.9408 655.192C43.2288 655.469 43.5488 655.688 43.9008 655.848C44.2634 655.997 44.6368 656.072 45.0208 656.072C45.4154 656.072 45.7888 656.003 46.1408 655.864C46.5034 655.715 46.8128 655.507 47.0688 655.24C47.3354 654.963 47.5434 654.627 47.6927 654.232C47.8528 653.827 47.9328 653.373 47.9328 652.872ZM54.4618 649.704C53.9711 649.704 53.5231 649.763 53.1178 649.88C52.7231 649.987 52.3338 650.131 51.9498 650.312L51.5818 649.304C52.0404 649.091 52.5044 648.925 52.9738 648.808C53.4431 648.68 53.9818 648.616 54.5898 648.616C55.7204 648.616 56.5898 648.899 57.1978 649.464C57.8058 650.019 58.1098 650.845 58.1098 651.944V657H56.9258V655.752C56.6378 656.125 56.2484 656.456 55.7578 656.744C55.2778 657.032 54.6698 657.176 53.9338 657.176C53.5498 657.176 53.1711 657.123 52.7978 657.016C52.4351 656.909 52.1044 656.749 51.8058 656.536C51.5178 656.312 51.2831 656.04 51.1018 655.72C50.9311 655.4 50.8458 655.021 50.8458 654.584C50.8458 654.147 50.9311 653.763 51.1018 653.432C51.2724 653.091 51.5124 652.808 51.8218 652.584C52.1418 652.36 52.5151 652.189 52.9418 652.072C53.3791 651.955 53.8591 651.896 54.3818 651.896C54.9151 651.896 55.3791 651.928 55.7738 651.992C56.1684 652.056 56.5524 652.141 56.9258 652.248V651.96C56.9258 651.213 56.7071 650.653 56.2698 650.28C55.8431 649.896 55.2404 649.704 54.4618 649.704ZM54.5098 652.808C53.7311 652.808 53.1338 652.963 52.7178 653.272C52.3018 653.581 52.0938 654.003 52.0938 654.536C52.0938 654.803 52.1471 655.037 52.2538 655.24C52.3711 655.443 52.5258 655.619 52.7178 655.768C52.9098 655.907 53.1284 656.013 53.3738 656.088C53.6298 656.163 53.8964 656.2 54.1738 656.2C54.5578 656.2 54.9151 656.147 55.2458 656.04C55.5871 655.923 55.8804 655.768 56.1258 655.576C56.3818 655.373 56.5791 655.139 56.7178 654.872C56.8671 654.595 56.9418 654.291 56.9418 653.96V653.16C56.6324 653.075 56.2751 652.995 55.8698 652.92C55.4751 652.845 55.0218 652.808 54.5098 652.808ZM66.4154 654.68C66.4154 655.075 66.3354 655.427 66.1754 655.736C66.026 656.035 65.818 656.291 65.5514 656.504C65.2954 656.717 64.986 656.883 64.6234 657C64.2714 657.107 63.8874 657.16 63.4714 657.16C62.874 657.16 62.2714 657.053 61.6634 656.84C61.0554 656.616 60.5167 656.317 60.0474 655.944L60.6714 655.064C61.1194 655.405 61.5834 655.667 62.0634 655.848C62.554 656.029 63.0447 656.12 63.5354 656.12C64.0367 656.12 64.4474 656.003 64.7674 655.768C65.0874 655.533 65.2474 655.213 65.2474 654.808V654.776C65.2474 654.573 65.1887 654.397 65.0714 654.248C64.9647 654.099 64.8154 653.971 64.6234 653.864C64.4314 653.747 64.2074 653.645 63.9514 653.56C63.706 653.475 63.45 653.395 63.1834 653.32C62.8634 653.224 62.538 653.123 62.2074 653.016C61.8874 652.899 61.594 652.755 61.3274 652.584C61.0714 652.413 60.858 652.2 60.6874 651.944C60.5274 651.688 60.4474 651.368 60.4474 650.984V650.952C60.4474 650.6 60.5167 650.28 60.6554 649.992C60.794 649.693 60.986 649.443 61.2314 649.24C61.4874 649.027 61.786 648.867 62.1274 648.76C62.4794 648.643 62.858 648.584 63.2634 648.584C63.7754 648.584 64.2927 648.669 64.8154 648.84C65.338 649 65.8127 649.219 66.2394 649.496L65.6794 650.424C65.2954 650.179 64.89 649.987 64.4634 649.848C64.0474 649.699 63.6367 649.624 63.2314 649.624C62.7407 649.624 62.3514 649.741 62.0634 649.976C61.7754 650.2 61.6314 650.483 61.6314 650.824V650.856C61.6314 651.048 61.69 651.219 61.8074 651.368C61.9247 651.507 62.0794 651.629 62.2714 651.736C62.474 651.843 62.7034 651.939 62.9594 652.024C63.2154 652.109 63.482 652.195 63.7594 652.28C64.0794 652.376 64.394 652.483 64.7034 652.6C65.0234 652.717 65.3114 652.867 65.5674 653.048C65.8234 653.229 66.026 653.448 66.1754 653.704C66.3354 653.96 66.4154 654.275 66.4154 654.648V654.68ZM69.4401 653.32C69.4828 653.768 69.5895 654.168 69.7601 654.52C69.9308 654.861 70.1495 655.155 70.4161 655.4C70.6828 655.635 70.9815 655.816 71.3121 655.944C71.6428 656.061 71.9895 656.12 72.3521 656.12C72.9281 656.12 73.4188 656.013 73.8241 655.8C74.2401 655.587 74.6188 655.304 74.9601 654.952L75.7281 655.64C75.3121 656.109 74.8375 656.488 74.3041 656.776C73.7708 657.053 73.1095 657.192 72.3201 657.192C71.7548 657.192 71.2215 657.091 70.7201 656.888C70.2188 656.675 69.7815 656.381 69.4081 656.008C69.0348 655.624 68.7361 655.165 68.5121 654.632C68.2988 654.099 68.1921 653.512 68.1921 652.872C68.1921 652.275 68.2881 651.715 68.4801 651.192C68.6828 650.659 68.9601 650.2 69.3121 649.816C69.6641 649.421 70.0801 649.112 70.5601 648.888C71.0508 648.664 71.5841 648.552 72.1601 648.552C72.7681 648.552 73.3121 648.669 73.7921 648.904C74.2721 649.128 74.6775 649.437 75.0081 649.832C75.3388 650.227 75.5895 650.691 75.7601 651.224C75.9308 651.757 76.0161 652.328 76.0161 652.936C76.0161 652.989 76.0161 653.048 76.0161 653.112C76.0161 653.176 76.0108 653.245 76.0001 653.32H69.4401ZM69.4401 652.408H74.7681C74.7361 652.035 74.6561 651.677 74.5281 651.336C74.4108 650.995 74.2401 650.696 74.0161 650.44C73.8028 650.184 73.5361 649.981 73.2161 649.832C72.9068 649.672 72.5441 649.592 72.1281 649.592C71.7655 649.592 71.4295 649.667 71.1201 649.816C70.8108 649.955 70.5388 650.152 70.3041 650.408C70.0695 650.653 69.8775 650.947 69.7281 651.288C69.5788 651.629 69.4828 652.003 69.4401 652.408ZM86.0449 657H84.8129V655.336C84.6422 655.581 84.4502 655.816 84.2369 656.04C84.0342 656.264 83.8049 656.461 83.5489 656.632C83.2929 656.803 83.0049 656.936 82.6849 657.032C82.3755 657.128 82.0289 657.176 81.6449 657.176C81.1435 657.176 80.6582 657.08 80.1889 656.888C79.7195 656.696 79.2982 656.419 78.9249 656.056C78.5515 655.683 78.2529 655.229 78.0289 654.696C77.8049 654.163 77.6929 653.555 77.6929 652.872C77.6929 652.189 77.8049 651.581 78.0289 651.048C78.2529 650.515 78.5515 650.067 78.9249 649.704C79.2982 649.331 79.7195 649.048 80.1889 648.856C80.6582 648.653 81.1435 648.552 81.6449 648.552C82.0289 648.552 82.3809 648.6 82.7009 648.696C83.0209 648.792 83.3089 648.92 83.5649 649.08C83.8209 649.24 84.0502 649.427 84.2529 649.64C84.4662 649.853 84.6529 650.077 84.8129 650.312V645.32H86.0449V657ZM84.8609 652.856C84.8609 652.376 84.7755 651.939 84.6049 651.544C84.4449 651.149 84.2209 650.813 83.9329 650.536C83.6555 650.259 83.3355 650.045 82.9729 649.896C82.6209 649.736 82.2529 649.656 81.8689 649.656C81.4635 649.656 81.0849 649.731 80.7329 649.88C80.3809 650.019 80.0715 650.227 79.8049 650.504C79.5489 650.771 79.3409 651.107 79.1809 651.512C79.0315 651.907 78.9569 652.355 78.9569 652.856C78.9569 653.347 79.0315 653.789 79.1809 654.184C79.3409 654.579 79.5542 654.92 79.8209 655.208C80.0875 655.485 80.3969 655.699 80.7489 655.848C81.1009 655.997 81.4742 656.072 81.8689 656.072C82.2529 656.072 82.6209 655.997 82.9729 655.848C83.3355 655.688 83.6555 655.469 83.9329 655.192C84.2209 654.915 84.4449 654.579 84.6049 654.184C84.7755 653.779 84.8609 653.336 84.8609 652.856ZM101.947 652.856C101.947 653.539 101.835 654.147 101.611 654.68C101.387 655.213 101.088 655.667 100.715 656.04C100.352 656.403 99.9308 656.685 99.4508 656.888C98.9814 657.08 98.4961 657.176 97.9948 657.176C97.6108 657.176 97.2588 657.128 96.9388 657.032C96.6188 656.936 96.3308 656.808 96.0748 656.648C95.8188 656.488 95.5841 656.301 95.3708 656.088C95.1681 655.875 94.9868 655.651 94.8268 655.416V657H93.5948V645.32H94.8268V650.392C94.9974 650.147 95.1841 649.912 95.3868 649.688C95.6001 649.464 95.8348 649.272 96.0908 649.112C96.3468 648.941 96.6294 648.808 96.9388 648.712C97.2588 648.605 97.6108 648.552 97.9948 648.552C98.4854 648.552 98.9654 648.648 99.4348 648.84C99.9148 649.032 100.341 649.315 100.715 649.688C101.088 650.051 101.387 650.499 101.611 651.032C101.835 651.565 101.947 652.173 101.947 652.856ZM100.683 652.872C100.683 652.381 100.603 651.939 100.443 651.544C100.293 651.149 100.085 650.813 99.8188 650.536C99.5521 650.248 99.2428 650.029 98.8908 649.88C98.5388 649.731 98.1654 649.656 97.7708 649.656C97.3868 649.656 97.0134 649.736 96.6508 649.896C96.2988 650.045 95.9788 650.259 95.6908 650.536C95.4134 650.813 95.1894 651.149 95.0188 651.544C94.8588 651.939 94.7788 652.376 94.7788 652.856C94.7788 653.336 94.8588 653.779 95.0188 654.184C95.1894 654.579 95.4134 654.915 95.6908 655.192C95.9788 655.469 96.2988 655.688 96.6508 655.848C97.0134 655.997 97.3868 656.072 97.7708 656.072C98.1654 656.072 98.5388 656.003 98.8908 655.864C99.2534 655.715 99.5628 655.507 99.8188 655.24C100.085 654.963 100.293 654.627 100.443 654.232C100.603 653.827 100.683 653.373 100.683 652.872ZM105.452 653.704V657H104.22V648.728H105.452V650.888C105.601 650.547 105.788 650.232 106.012 649.944C106.236 649.656 106.492 649.411 106.78 649.208C107.068 648.995 107.382 648.835 107.724 648.728C108.065 648.621 108.433 648.573 108.828 648.584V649.912H108.732C108.284 649.912 107.857 649.992 107.452 650.152C107.057 650.312 106.71 650.552 106.412 650.872C106.113 651.192 105.878 651.592 105.708 652.072C105.537 652.541 105.452 653.085 105.452 653.704ZM112.144 646.92H110.736V645.56H112.144V646.92ZM112.048 657H110.816V648.728H112.048V657ZM122.779 655.56C122.779 656.232 122.678 656.819 122.475 657.32C122.283 657.821 122.001 658.237 121.627 658.568C121.265 658.909 120.822 659.165 120.299 659.336C119.787 659.507 119.211 659.592 118.571 659.592C117.878 659.592 117.217 659.496 116.587 659.304C115.958 659.112 115.366 658.824 114.811 658.44L115.371 657.48C115.851 657.821 116.353 658.083 116.875 658.264C117.398 658.445 117.958 658.536 118.555 658.536C119.473 658.536 120.203 658.285 120.747 657.784C121.291 657.293 121.563 656.563 121.563 655.592V654.616C121.201 655.096 120.758 655.507 120.235 655.848C119.713 656.189 119.073 656.36 118.315 656.36C117.814 656.36 117.329 656.275 116.859 656.104C116.401 655.923 115.99 655.667 115.627 655.336C115.265 654.995 114.971 654.584 114.747 654.104C114.534 653.624 114.427 653.08 114.427 652.472C114.427 651.864 114.534 651.32 114.747 650.84C114.971 650.349 115.265 649.939 115.627 649.608C115.99 649.267 116.406 649.005 116.875 648.824C117.345 648.643 117.825 648.552 118.315 648.552C118.699 648.552 119.051 648.6 119.371 648.696C119.702 648.781 119.995 648.899 120.251 649.048C120.518 649.197 120.758 649.373 120.971 649.576C121.185 649.779 121.377 649.992 121.547 650.216V648.728H122.779V655.56ZM121.595 652.456C121.595 652.029 121.51 651.645 121.339 651.304C121.169 650.952 120.939 650.653 120.651 650.408C120.374 650.163 120.054 649.976 119.691 649.848C119.329 649.709 118.95 649.64 118.555 649.64C118.161 649.64 117.787 649.704 117.435 649.832C117.094 649.96 116.79 650.147 116.523 650.392C116.267 650.637 116.065 650.936 115.915 651.288C115.766 651.629 115.691 652.013 115.691 652.44C115.691 652.867 115.766 653.256 115.915 653.608C116.075 653.949 116.283 654.248 116.539 654.504C116.806 654.749 117.11 654.941 117.451 655.08C117.803 655.208 118.171 655.272 118.555 655.272C118.95 655.272 119.329 655.208 119.691 655.08C120.054 654.941 120.374 654.749 120.651 654.504C120.939 654.259 121.169 653.965 121.339 653.624C121.51 653.272 121.595 652.883 121.595 652.456ZM126.764 652.264V657H125.532V645.32H126.764V650.168C127.042 649.72 127.404 649.341 127.852 649.032C128.3 648.712 128.882 648.552 129.596 648.552C130.098 648.552 130.54 648.632 130.924 648.792C131.319 648.952 131.65 649.181 131.916 649.48C132.194 649.768 132.402 650.115 132.54 650.52C132.69 650.925 132.764 651.373 132.764 651.864V657H131.532V652.168C131.532 651.4 131.335 650.792 130.94 650.344C130.546 649.896 129.98 649.672 129.244 649.672C128.892 649.672 128.562 649.736 128.252 649.864C127.954 649.981 127.692 650.157 127.468 650.392C127.244 650.616 127.068 650.888 126.94 651.208C126.823 651.528 126.764 651.88 126.764 652.264ZM137.056 649.816V654.648C137.056 655.16 137.184 655.517 137.44 655.72C137.696 655.923 138.032 656.024 138.448 656.024C138.661 656.024 138.858 656.003 139.04 655.96C139.232 655.917 139.434 655.843 139.648 655.736V656.792C139.434 656.909 139.205 656.995 138.96 657.048C138.725 657.112 138.458 657.144 138.16 657.144C137.829 657.144 137.52 657.101 137.232 657.016C136.944 656.931 136.693 656.797 136.48 656.616C136.277 656.424 136.117 656.179 136 655.88C135.882 655.581 135.824 655.224 135.824 654.808V649.816H134.672V648.728H135.824V646.232H137.056V648.728H139.68V649.816H137.056Z" fill="#504F4F"/>
<path d="M798.582 619.368L799.766 617.96C800.875 618.931 802.054 619.416 803.302 619.416C803.91 619.416 804.395 619.283 804.758 619.016C805.11 618.76 805.286 618.424 805.286 618.008V617.976C805.286 617.56 805.126 617.235 804.806 617C804.443 616.744 803.76 616.499 802.758 616.264C801.435 615.933 800.518 615.56 800.006 615.144C799.355 614.632 799.03 613.891 799.03 612.92V612.888C799.03 611.928 799.387 611.144 800.102 610.536C800.827 609.939 801.744 609.64 802.854 609.64C804.4 609.64 805.755 610.109 806.918 611.048L805.862 612.536C804.827 611.768 803.814 611.384 802.822 611.384C802.267 611.384 801.819 611.512 801.478 611.768C801.158 612.003 800.998 612.317 800.998 612.712V612.744C800.998 613.171 801.174 613.507 801.526 613.752C801.707 613.869 801.974 613.992 802.326 614.12C802.678 614.248 803.126 614.376 803.67 614.504C804.907 614.803 805.803 615.187 806.358 615.656C806.955 616.189 807.254 616.899 807.254 617.784V617.816C807.254 618.851 806.88 619.672 806.134 620.28C805.419 620.867 804.459 621.16 803.254 621.16C801.462 621.16 799.904 620.563 798.582 619.368ZM810.528 619.928C809.664 619.075 809.232 617.848 809.232 616.248V609.8H811.2V616.168C811.2 617.181 811.451 617.971 811.952 618.536C812.453 619.08 813.147 619.352 814.032 619.352C814.917 619.352 815.605 619.091 816.096 618.568C816.597 618.035 816.848 617.261 816.848 616.248V609.8H818.816V616.152C818.816 617.784 818.379 619.037 817.504 619.912C816.672 620.755 815.504 621.176 814 621.176C812.517 621.176 811.36 620.76 810.528 619.928ZM821.358 609.8H823.454L826.862 615.096L830.27 609.8H832.366V621H830.398V612.968L826.862 618.248H826.798L823.294 613V621H821.358V609.8ZM835.088 609.8H837.184L840.592 615.096L844 609.8H846.096V621H844.128V612.968L840.592 618.248H840.528L837.024 613V621H835.088V609.8ZM848.819 609.8H857.123V611.56H850.787V614.472H856.403V616.232H850.787V619.24H857.203V621H848.819V609.8ZM859.378 609.8H864.37C865.767 609.8 866.844 610.173 867.602 610.92C868.22 611.549 868.53 612.355 868.53 613.336V613.368C868.53 615.117 867.644 616.248 865.874 616.76L868.898 621H866.562L863.81 617.096H861.346V621H859.378V609.8ZM864.226 615.352C864.919 615.352 865.479 615.181 865.906 614.84C866.322 614.499 866.53 614.045 866.53 613.48V613.448C866.53 612.211 865.756 611.592 864.21 611.592H861.346V615.352H864.226Z" fill="#080707"/>
<path d="M756.869 652.856C756.869 653.539 756.757 654.147 756.533 654.68C756.309 655.213 756.01 655.667 755.637 656.04C755.274 656.403 754.853 656.685 754.373 656.888C753.903 657.08 753.418 657.176 752.917 657.176C752.533 657.176 752.181 657.128 751.861 657.032C751.541 656.936 751.253 656.808 750.997 656.648C750.741 656.488 750.506 656.301 750.293 656.088C750.09 655.875 749.909 655.651 749.749 655.416V657H748.517V645.32H749.749V650.392C749.919 650.147 750.106 649.912 750.309 649.688C750.522 649.464 750.757 649.272 751.013 649.112C751.269 648.941 751.551 648.808 751.861 648.712C752.181 648.605 752.533 648.552 752.917 648.552C753.407 648.552 753.887 648.648 754.357 648.84C754.837 649.032 755.263 649.315 755.637 649.688C756.01 650.051 756.309 650.499 756.533 651.032C756.757 651.565 756.869 652.173 756.869 652.856ZM755.605 652.872C755.605 652.381 755.525 651.939 755.365 651.544C755.215 651.149 755.007 650.813 754.741 650.536C754.474 650.248 754.165 650.029 753.813 649.88C753.461 649.731 753.087 649.656 752.693 649.656C752.309 649.656 751.935 649.736 751.573 649.896C751.221 650.045 750.901 650.259 750.613 650.536C750.335 650.813 750.111 651.149 749.941 651.544C749.781 651.939 749.701 652.376 749.701 652.856C749.701 653.336 749.781 653.779 749.941 654.184C750.111 654.579 750.335 654.915 750.613 655.192C750.901 655.469 751.221 655.688 751.573 655.848C751.935 655.997 752.309 656.072 752.693 656.072C753.087 656.072 753.461 656.003 753.813 655.864C754.175 655.715 754.485 655.507 754.741 655.24C755.007 654.963 755.215 654.627 755.365 654.232C755.525 653.827 755.605 653.373 755.605 652.872ZM760.486 657H759.254V645.32H760.486V657ZM769.217 653.464V648.728H770.433V657H769.217V655.56C768.939 656.008 768.577 656.392 768.129 656.712C767.681 657.021 767.099 657.176 766.385 657.176C765.883 657.176 765.435 657.096 765.041 656.936C764.657 656.776 764.326 656.552 764.049 656.264C763.782 655.965 763.574 655.613 763.425 655.208C763.286 654.803 763.217 654.355 763.217 653.864V648.728H764.449V653.56C764.449 654.328 764.646 654.936 765.041 655.384C765.435 655.832 766.001 656.056 766.737 656.056C767.089 656.056 767.414 655.997 767.713 655.88C768.022 655.752 768.283 655.576 768.497 655.352C768.721 655.117 768.897 654.84 769.025 654.52C769.153 654.2 769.217 653.848 769.217 653.464ZM773.94 653.32C773.983 653.768 774.089 654.168 774.26 654.52C774.431 654.861 774.649 655.155 774.916 655.4C775.183 655.635 775.481 655.816 775.812 655.944C776.143 656.061 776.489 656.12 776.852 656.12C777.428 656.12 777.919 656.013 778.324 655.8C778.74 655.587 779.119 655.304 779.46 654.952L780.228 655.64C779.812 656.109 779.337 656.488 778.804 656.776C778.271 657.053 777.609 657.192 776.82 657.192C776.255 657.192 775.721 657.091 775.22 656.888C774.719 656.675 774.281 656.381 773.908 656.008C773.535 655.624 773.236 655.165 773.012 654.632C772.799 654.099 772.692 653.512 772.692 652.872C772.692 652.275 772.788 651.715 772.98 651.192C773.183 650.659 773.46 650.2 773.812 649.816C774.164 649.421 774.58 649.112 775.06 648.888C775.551 648.664 776.084 648.552 776.66 648.552C777.268 648.552 777.812 648.669 778.292 648.904C778.772 649.128 779.177 649.437 779.508 649.832C779.839 650.227 780.089 650.691 780.26 651.224C780.431 651.757 780.516 652.328 780.516 652.936C780.516 652.989 780.516 653.048 780.516 653.112C780.516 653.176 780.511 653.245 780.5 653.32H773.94ZM773.94 652.408H779.268C779.236 652.035 779.156 651.677 779.028 651.336C778.911 650.995 778.74 650.696 778.516 650.44C778.303 650.184 778.036 649.981 777.716 649.832C777.407 649.672 777.044 649.592 776.628 649.592C776.265 649.592 775.929 649.667 775.62 649.816C775.311 649.955 775.039 650.152 774.804 650.408C774.569 650.653 774.377 650.947 774.228 651.288C774.079 651.629 773.983 652.003 773.94 652.408ZM795.822 652.856C795.822 653.539 795.71 654.147 795.486 654.68C795.262 655.213 794.963 655.667 794.59 656.04C794.227 656.403 793.806 656.685 793.326 656.888C792.856 657.08 792.371 657.176 791.87 657.176C791.486 657.176 791.134 657.128 790.814 657.032C790.494 656.936 790.206 656.808 789.95 656.648C789.694 656.488 789.459 656.301 789.246 656.088C789.043 655.875 788.862 655.651 788.702 655.416V657H787.47V645.32H788.702V650.392C788.872 650.147 789.059 649.912 789.262 649.688C789.475 649.464 789.71 649.272 789.966 649.112C790.222 648.941 790.504 648.808 790.814 648.712C791.134 648.605 791.486 648.552 791.87 648.552C792.36 648.552 792.84 648.648 793.31 648.84C793.79 649.032 794.216 649.315 794.59 649.688C794.963 650.051 795.262 650.499 795.486 651.032C795.71 651.565 795.822 652.173 795.822 652.856ZM794.558 652.872C794.558 652.381 794.478 651.939 794.318 651.544C794.168 651.149 793.96 650.813 793.694 650.536C793.427 650.248 793.118 650.029 792.766 649.88C792.414 649.731 792.04 649.656 791.646 649.656C791.262 649.656 790.888 649.736 790.526 649.896C790.174 650.045 789.854 650.259 789.566 650.536C789.288 650.813 789.064 651.149 788.894 651.544C788.734 651.939 788.654 652.376 788.654 652.856C788.654 653.336 788.734 653.779 788.894 654.184C789.064 654.579 789.288 654.915 789.566 655.192C789.854 655.469 790.174 655.688 790.526 655.848C790.888 655.997 791.262 656.072 791.646 656.072C792.04 656.072 792.414 656.003 792.766 655.864C793.128 655.715 793.438 655.507 793.694 655.24C793.96 654.963 794.168 654.627 794.318 654.232C794.478 653.827 794.558 653.373 794.558 652.872ZM801.087 649.704C800.596 649.704 800.148 649.763 799.743 649.88C799.348 649.987 798.959 650.131 798.575 650.312L798.207 649.304C798.665 649.091 799.129 648.925 799.599 648.808C800.068 648.68 800.607 648.616 801.215 648.616C802.345 648.616 803.215 648.899 803.823 649.464C804.431 650.019 804.735 650.845 804.735 651.944V657H803.551V655.752C803.263 656.125 802.873 656.456 802.383 656.744C801.903 657.032 801.295 657.176 800.559 657.176C800.175 657.176 799.796 657.123 799.423 657.016C799.06 656.909 798.729 656.749 798.431 656.536C798.143 656.312 797.908 656.04 797.727 655.72C797.556 655.4 797.471 655.021 797.471 654.584C797.471 654.147 797.556 653.763 797.727 653.432C797.897 653.091 798.137 652.808 798.447 652.584C798.767 652.36 799.14 652.189 799.567 652.072C800.004 651.955 800.484 651.896 801.007 651.896C801.54 651.896 802.004 651.928 802.399 651.992C802.793 652.056 803.177 652.141 803.551 652.248V651.96C803.551 651.213 803.332 650.653 802.895 650.28C802.468 649.896 801.865 649.704 801.087 649.704ZM801.135 652.808C800.356 652.808 799.759 652.963 799.343 653.272C798.927 653.581 798.719 654.003 798.719 654.536C798.719 654.803 798.772 655.037 798.879 655.24C798.996 655.443 799.151 655.619 799.343 655.768C799.535 655.907 799.753 656.013 799.999 656.088C800.255 656.163 800.521 656.2 800.799 656.2C801.183 656.2 801.54 656.147 801.871 656.04C802.212 655.923 802.505 655.768 802.751 655.576C803.007 655.373 803.204 655.139 803.343 654.872C803.492 654.595 803.567 654.291 803.567 653.96V653.16C803.257 653.075 802.9 652.995 802.495 652.92C802.1 652.845 801.647 652.808 801.135 652.808ZM813.04 654.68C813.04 655.075 812.96 655.427 812.8 655.736C812.651 656.035 812.443 656.291 812.176 656.504C811.92 656.717 811.611 656.883 811.248 657C810.896 657.107 810.512 657.16 810.096 657.16C809.499 657.16 808.896 657.053 808.288 656.84C807.68 656.616 807.142 656.317 806.672 655.944L807.296 655.064C807.744 655.405 808.208 655.667 808.688 655.848C809.179 656.029 809.67 656.12 810.16 656.12C810.662 656.12 811.072 656.003 811.392 655.768C811.712 655.533 811.872 655.213 811.872 654.808V654.776C811.872 654.573 811.814 654.397 811.696 654.248C811.59 654.099 811.44 653.971 811.248 653.864C811.056 653.747 810.832 653.645 810.576 653.56C810.331 653.475 810.075 653.395 809.808 653.32C809.488 653.224 809.163 653.123 808.832 653.016C808.512 652.899 808.219 652.755 807.952 652.584C807.696 652.413 807.483 652.2 807.312 651.944C807.152 651.688 807.072 651.368 807.072 650.984V650.952C807.072 650.6 807.142 650.28 807.28 649.992C807.419 649.693 807.611 649.443 807.856 649.24C808.112 649.027 808.411 648.867 808.752 648.76C809.104 648.643 809.483 648.584 809.888 648.584C810.4 648.584 810.918 648.669 811.44 648.84C811.963 649 812.438 649.219 812.864 649.496L812.304 650.424C811.92 650.179 811.515 649.987 811.088 649.848C810.672 649.699 810.262 649.624 809.856 649.624C809.366 649.624 808.976 649.741 808.688 649.976C808.4 650.2 808.256 650.483 808.256 650.824V650.856C808.256 651.048 808.315 651.219 808.432 651.368C808.55 651.507 808.704 651.629 808.896 651.736C809.099 651.843 809.328 651.939 809.584 652.024C809.84 652.109 810.107 652.195 810.384 652.28C810.704 652.376 811.019 652.483 811.328 652.6C811.648 652.717 811.936 652.867 812.192 653.048C812.448 653.229 812.651 653.448 812.8 653.704C812.96 653.96 813.04 654.275 813.04 654.648V654.68ZM816.065 653.32C816.108 653.768 816.214 654.168 816.385 654.52C816.556 654.861 816.774 655.155 817.041 655.4C817.308 655.635 817.606 655.816 817.937 655.944C818.268 656.061 818.614 656.12 818.977 656.12C819.553 656.12 820.044 656.013 820.449 655.8C820.865 655.587 821.244 655.304 821.585 654.952L822.353 655.64C821.937 656.109 821.462 656.488 820.929 656.776C820.396 657.053 819.734 657.192 818.945 657.192C818.38 657.192 817.846 657.091 817.345 656.888C816.844 656.675 816.406 656.381 816.033 656.008C815.66 655.624 815.361 655.165 815.137 654.632C814.924 654.099 814.817 653.512 814.817 652.872C814.817 652.275 814.913 651.715 815.105 651.192C815.308 650.659 815.585 650.2 815.937 649.816C816.289 649.421 816.705 649.112 817.185 648.888C817.676 648.664 818.209 648.552 818.785 648.552C819.393 648.552 819.937 648.669 820.417 648.904C820.897 649.128 821.302 649.437 821.633 649.832C821.964 650.227 822.214 650.691 822.385 651.224C822.556 651.757 822.641 652.328 822.641 652.936C822.641 652.989 822.641 653.048 822.641 653.112C822.641 653.176 822.636 653.245 822.625 653.32H816.065ZM816.065 652.408H821.393C821.361 652.035 821.281 651.677 821.153 651.336C821.036 650.995 820.865 650.696 820.641 650.44C820.428 650.184 820.161 649.981 819.841 649.832C819.532 649.672 819.169 649.592 818.753 649.592C818.39 649.592 818.054 649.667 817.745 649.816C817.436 649.955 817.164 650.152 816.929 650.408C816.694 650.653 816.502 650.947 816.353 651.288C816.204 651.629 816.108 652.003 816.065 652.408ZM832.67 657H831.438V655.336C831.267 655.581 831.075 655.816 830.862 656.04C830.659 656.264 830.43 656.461 830.174 656.632C829.918 656.803 829.63 656.936 829.31 657.032C829.001 657.128 828.654 657.176 828.27 657.176C827.769 657.176 827.283 657.08 826.814 656.888C826.345 656.696 825.923 656.419 825.55 656.056C825.177 655.683 824.878 655.229 824.654 654.696C824.43 654.163 824.318 653.555 824.318 652.872C824.318 652.189 824.43 651.581 824.654 651.048C824.878 650.515 825.177 650.067 825.55 649.704C825.923 649.331 826.345 649.048 826.814 648.856C827.283 648.653 827.769 648.552 828.27 648.552C828.654 648.552 829.006 648.6 829.326 648.696C829.646 648.792 829.934 648.92 830.19 649.08C830.446 649.24 830.675 649.427 830.878 649.64C831.091 649.853 831.278 650.077 831.438 650.312V645.32H832.67V657ZM831.486 652.856C831.486 652.376 831.401 651.939 831.23 651.544C831.07 651.149 830.846 650.813 830.558 650.536C830.281 650.259 829.961 650.045 829.598 649.896C829.246 649.736 828.878 649.656 828.494 649.656C828.089 649.656 827.71 649.731 827.358 649.88C827.006 650.019 826.697 650.227 826.43 650.504C826.174 650.771 825.966 651.107 825.806 651.512C825.657 651.907 825.582 652.355 825.582 652.856C825.582 653.347 825.657 653.789 825.806 654.184C825.966 654.579 826.179 654.92 826.446 655.208C826.713 655.485 827.022 655.699 827.374 655.848C827.726 655.997 828.099 656.072 828.494 656.072C828.878 656.072 829.246 655.997 829.598 655.848C829.961 655.688 830.281 655.469 830.558 655.192C830.846 654.915 831.07 654.579 831.23 654.184C831.401 653.779 831.486 653.336 831.486 652.856ZM845.9 654.68C845.9 655.075 845.82 655.427 845.66 655.736C845.51 656.035 845.302 656.291 845.036 656.504C844.78 656.717 844.47 656.883 844.108 657C843.756 657.107 843.372 657.16 842.956 657.16C842.358 657.16 841.756 657.053 841.148 656.84C840.54 656.616 840.001 656.317 839.532 655.944L840.156 655.064C840.604 655.405 841.068 655.667 841.548 655.848C842.038 656.029 842.529 656.12 843.02 656.12C843.521 656.12 843.932 656.003 844.252 655.768C844.572 655.533 844.732 655.213 844.732 654.808V654.776C844.732 654.573 844.673 654.397 844.556 654.248C844.449 654.099 844.3 653.971 844.108 653.864C843.916 653.747 843.692 653.645 843.436 653.56C843.19 653.475 842.934 653.395 842.668 653.32C842.348 653.224 842.022 653.123 841.692 653.016C841.372 652.899 841.078 652.755 840.812 652.584C840.556 652.413 840.342 652.2 840.172 651.944C840.012 651.688 839.932 651.368 839.932 650.984V650.952C839.932 650.6 840.001 650.28 840.14 649.992C840.278 649.693 840.47 649.443 840.716 649.24C840.972 649.027 841.27 648.867 841.612 648.76C841.964 648.643 842.342 648.584 842.748 648.584C843.26 648.584 843.777 648.669 844.3 648.84C844.822 649 845.297 649.219 845.724 649.496L845.164 650.424C844.78 650.179 844.374 649.987 843.948 649.848C843.532 649.699 843.121 649.624 842.716 649.624C842.225 649.624 841.836 649.741 841.548 649.976C841.26 650.2 841.116 650.483 841.116 650.824V650.856C841.116 651.048 841.174 651.219 841.292 651.368C841.409 651.507 841.564 651.629 841.756 651.736C841.958 651.843 842.188 651.939 842.444 652.024C842.7 652.109 842.966 652.195 843.244 652.28C843.564 652.376 843.878 652.483 844.188 652.6C844.508 652.717 844.796 652.867 845.052 653.048C845.308 653.229 845.51 653.448 845.66 653.704C845.82 653.96 845.9 654.275 845.9 654.648V654.68ZM856.301 652.856C856.301 653.443 856.189 654.003 855.965 654.536C855.751 655.059 855.453 655.517 855.069 655.912C854.685 656.307 854.226 656.621 853.693 656.856C853.159 657.08 852.583 657.192 851.965 657.192C851.346 657.192 850.775 657.08 850.253 656.856C849.73 656.621 849.277 656.312 848.893 655.928C848.509 655.533 848.21 655.075 847.997 654.552C847.783 654.029 847.677 653.475 847.677 652.888C847.677 652.301 847.783 651.747 847.997 651.224C848.21 650.691 848.509 650.227 848.893 649.832C849.277 649.437 849.73 649.128 850.253 648.904C850.786 648.669 851.367 648.552 851.997 648.552C852.615 648.552 853.186 648.669 853.709 648.904C854.242 649.128 854.701 649.437 855.085 649.832C855.469 650.216 855.767 650.669 855.981 651.192C856.194 651.715 856.301 652.269 856.301 652.856ZM855.036 652.888C855.036 652.44 854.957 652.019 854.797 651.624C854.647 651.229 854.434 650.888 854.157 650.6C853.879 650.301 853.554 650.067 853.181 649.896C852.807 649.725 852.402 649.64 851.965 649.64C851.517 649.64 851.106 649.725 850.733 649.896C850.359 650.056 850.039 650.285 849.773 650.584C849.517 650.872 849.314 651.213 849.164 651.608C849.015 651.992 848.941 652.408 848.941 652.856C848.941 653.304 849.015 653.725 849.164 654.12C849.325 654.515 849.538 654.856 849.805 655.144C850.082 655.432 850.407 655.661 850.781 655.832C851.154 656.003 851.559 656.088 851.997 656.088C852.445 656.088 852.855 656.008 853.229 655.848C853.602 655.677 853.922 655.448 854.189 655.16C854.455 654.872 854.663 654.536 854.812 654.152C854.962 653.757 855.036 653.336 855.036 652.888ZM860.212 648.76H862.836V649.816H860.228V657H858.996V649.816H857.86V648.744H858.996V648.024C858.996 647.117 859.21 646.429 859.636 645.96C860.074 645.491 860.692 645.256 861.492 645.256C861.78 645.256 862.026 645.272 862.228 645.304C862.442 645.336 862.65 645.389 862.852 645.464V646.536C862.628 646.472 862.426 646.424 862.244 646.392C862.063 646.349 861.866 646.328 861.652 646.328C860.692 646.328 860.212 646.915 860.212 648.088V648.76ZM866.071 649.816V654.648C866.071 655.16 866.199 655.517 866.455 655.72C866.711 655.923 867.047 656.024 867.463 656.024C867.677 656.024 867.874 656.003 868.055 655.96C868.247 655.917 868.45 655.843 868.663 655.736V656.792C868.45 656.909 868.221 656.995 867.975 657.048C867.741 657.112 867.474 657.144 867.175 657.144C866.845 657.144 866.535 657.101 866.247 657.016C865.959 656.931 865.709 656.797 865.495 656.616C865.293 656.424 865.133 656.179 865.015 655.88C864.898 655.581 864.839 655.224 864.839 654.808V649.816H863.687V648.728H864.839V646.232H866.071V648.728H868.695V649.816H866.071Z" fill="#504F4F"/>
<path d="M808.941 40.368L810.125 38.96C811.234 39.9307 812.413 40.416 813.661 40.416C814.269 40.416 814.754 40.2827 815.117 40.016C815.469 39.76 815.645 39.424 815.645 39.008V38.976C815.645 38.56 815.485 38.2347 815.165 38C814.802 37.744 814.12 37.4987 813.117 37.264C811.794 36.9333 810.877 36.56 810.365 36.144C809.714 35.632 809.389 34.8907 809.389 33.92V33.888C809.389 32.928 809.746 32.144 810.461 31.536C811.186 30.9387 812.104 30.64 813.213 30.64C814.76 30.64 816.114 31.1093 817.277 32.048L816.221 33.536C815.186 32.768 814.173 32.384 813.181 32.384C812.626 32.384 812.178 32.512 811.837 32.768C811.517 33.0027 811.357 33.3173 811.357 33.712V33.744C811.357 34.1707 811.533 34.5067 811.885 34.752C812.066 34.8693 812.333 34.992 812.685 35.12C813.037 35.248 813.485 35.376 814.029 35.504C815.266 35.8027 816.162 36.1867 816.717 36.656C817.314 37.1893 817.613 37.8987 817.613 38.784V38.816C817.613 39.8507 817.24 40.672 816.493 41.28C815.778 41.8667 814.818 42.16 813.613 42.16C811.821 42.16 810.264 41.5627 808.941 40.368ZM819.767 30.8H824.183C825.485 30.8 826.525 31.1413 827.304 31.824C828.061 32.5173 828.439 33.424 828.439 34.544V34.576C828.439 35.792 828.002 36.7413 827.127 37.424C826.317 38.0747 825.261 38.4 823.959 38.4H821.735V42H819.767V30.8ZM824.023 36.624C824.759 36.624 825.346 36.4373 825.783 36.064C826.221 35.6907 826.439 35.2107 826.439 34.624V34.592C826.439 33.952 826.221 33.456 825.783 33.104C825.346 32.7627 824.759 32.592 824.023 32.592H821.735V36.624H824.023ZM830.295 30.8H835.287C836.684 30.8 837.762 31.1733 838.519 31.92C839.138 32.5493 839.447 33.3547 839.447 34.336V34.368C839.447 36.1173 838.562 37.248 836.791 37.76L839.815 42H837.479L834.727 38.096H832.263V42H830.295V30.8ZM835.143 36.352C835.836 36.352 836.396 36.1813 836.823 35.84C837.239 35.4987 837.447 35.0453 837.447 34.48V34.448C837.447 33.2107 836.674 32.592 835.127 32.592H832.263V36.352H835.143ZM841.81 30.8H843.778V42H841.81V30.8ZM846.616 30.8H848.44L854.44 38.544V30.8H856.376V42H854.728L848.552 34.032V42H846.616V30.8ZM859.481 40.528C858.425 39.4507 857.897 38.0853 857.897 36.432V36.4C857.897 34.8107 858.436 33.4507 859.513 32.32C860.622 31.1787 862.009 30.608 863.673 30.608C865.337 30.608 866.772 31.1147 867.977 32.128L866.729 33.616C865.79 32.816 864.745 32.416 863.593 32.416C862.569 32.416 861.705 32.8053 861.001 33.584C860.308 34.3627 859.961 35.2907 859.961 36.368V36.4C859.961 37.552 860.308 38.5067 861.001 39.264C861.726 40.0213 862.649 40.4 863.769 40.4C864.814 40.4 865.716 40.1173 866.473 39.552V37.456H863.609V35.744H868.377V40.448C867.022 41.6107 865.465 42.192 863.705 42.192C861.977 42.192 860.569 41.6373 859.481 40.528Z" fill="#080707"/>
<path d="M722.005 69.728L718.533 78.272C718.181 79.1253 717.786 79.728 717.349 80.08C716.922 80.432 716.4 80.608 715.781 80.608C715.44 80.608 715.13 80.5707 714.853 80.496C714.576 80.432 714.298 80.3307 714.021 80.192L714.437 79.216C714.64 79.3227 714.837 79.3973 715.029 79.44C715.232 79.4933 715.466 79.52 715.733 79.52C716.106 79.52 716.421 79.408 716.677 79.184C716.933 78.96 717.184 78.5547 717.429 77.968L713.669 69.728H715.029L718.037 76.624L720.693 69.728H722.005ZM724.206 74.32C724.248 74.768 724.355 75.168 724.526 75.52C724.696 75.8613 724.915 76.1547 725.182 76.4C725.448 76.6347 725.747 76.816 726.078 76.944C726.408 77.0613 726.755 77.12 727.118 77.12C727.694 77.12 728.184 77.0133 728.59 76.8C729.006 76.5867 729.384 76.304 729.726 75.952L730.494 76.64C730.078 77.1093 729.603 77.488 729.07 77.776C728.536 78.0533 727.875 78.192 727.086 78.192C726.52 78.192 725.987 78.0907 725.486 77.888C724.984 77.6747 724.547 77.3813 724.174 77.008C723.8 76.624 723.502 76.1653 723.278 75.632C723.064 75.0987 722.958 74.512 722.958 73.872C722.958 73.2747 723.054 72.7147 723.246 72.192C723.448 71.6587 723.726 71.2 724.078 70.816C724.43 70.4213 724.846 70.112 725.326 69.888C725.816 69.664 726.35 69.552 726.926 69.552C727.534 69.552 728.078 69.6693 728.558 69.904C729.038 70.128 729.443 70.4373 729.774 70.832C730.104 71.2267 730.355 71.6907 730.526 72.224C730.696 72.7573 730.782 73.328 730.782 73.936C730.782 73.9893 730.782 74.048 730.782 74.112C730.782 74.176 730.776 74.2453 730.766 74.32H724.206ZM724.206 73.408H729.534C729.502 73.0347 729.422 72.6773 729.294 72.336C729.176 71.9947 729.006 71.696 728.782 71.44C728.568 71.184 728.302 70.9813 727.982 70.832C727.672 70.672 727.31 70.592 726.894 70.592C726.531 70.592 726.195 70.6667 725.886 70.816C725.576 70.9547 725.304 71.152 725.07 71.408C724.835 71.6533 724.643 71.9467 724.494 72.288C724.344 72.6293 724.248 73.0027 724.206 73.408ZM734.283 78H733.051V66.32H734.283V78ZM738.486 78H737.254V66.32H738.486V78ZM749.457 73.856C749.457 74.4427 749.345 75.0027 749.121 75.536C748.907 76.0587 748.609 76.5173 748.225 76.912C747.841 77.3067 747.382 77.6213 746.849 77.856C746.315 78.08 745.739 78.192 745.121 78.192C744.502 78.192 743.931 78.08 743.409 77.856C742.886 77.6213 742.433 77.312 742.049 76.928C741.665 76.5333 741.366 76.0747 741.153 75.552C740.939 75.0293 740.833 74.4747 740.833 73.888C740.833 73.3013 740.939 72.7467 741.153 72.224C741.366 71.6907 741.665 71.2267 742.049 70.832C742.433 70.4373 742.886 70.128 743.409 69.904C743.942 69.6693 744.523 69.552 745.153 69.552C745.771 69.552 746.342 69.6693 746.865 69.904C747.398 70.128 747.857 70.4373 748.241 70.832C748.625 71.216 748.923 71.6693 749.137 72.192C749.35 72.7147 749.457 73.2693 749.457 73.856ZM748.193 73.888C748.193 73.44 748.113 73.0187 747.953 72.624C747.803 72.2293 747.59 71.888 747.313 71.6C747.035 71.3013 746.71 71.0667 746.337 70.896C745.963 70.7253 745.558 70.64 745.121 70.64C744.673 70.64 744.262 70.7253 743.889 70.896C743.515 71.056 743.195 71.2853 742.929 71.584C742.673 71.872 742.47 72.2133 742.321 72.608C742.171 72.992 742.097 73.408 742.097 73.856C742.097 74.304 742.171 74.7253 742.321 75.12C742.481 75.5147 742.694 75.856 742.961 76.144C743.238 76.432 743.563 76.6613 743.937 76.832C744.31 77.0027 744.715 77.088 745.153 77.088C745.601 77.088 746.011 77.008 746.385 76.848C746.758 76.6773 747.078 76.448 747.345 76.16C747.611 75.872 747.819 75.536 747.969 75.152C748.118 74.7573 748.193 74.336 748.193 73.888ZM757.314 69.696L759.554 76.368L761.73 69.728H763.01L760.098 78.064H759.026L756.802 71.536L754.562 78.064H753.474L750.578 69.728H751.89L754.066 76.368L756.29 69.696H757.314ZM778.212 73.856C778.212 74.5387 778.1 75.1467 777.876 75.68C777.652 76.2133 777.354 76.6667 776.98 77.04C776.618 77.4027 776.196 77.6853 775.716 77.888C775.247 78.08 774.762 78.176 774.26 78.176C773.876 78.176 773.524 78.128 773.204 78.032C772.884 77.936 772.596 77.808 772.34 77.648C772.084 77.488 771.85 77.3013 771.636 77.088C771.434 76.8747 771.252 76.6507 771.092 76.416V78H769.86V66.32H771.092V71.392C771.263 71.1467 771.45 70.912 771.652 70.688C771.866 70.464 772.1 70.272 772.356 70.112C772.612 69.9413 772.895 69.808 773.204 69.712C773.524 69.6053 773.876 69.552 774.26 69.552C774.751 69.552 775.231 69.648 775.7 69.84C776.18 70.032 776.607 70.3147 776.98 70.688C777.354 71.0507 777.652 71.4987 777.876 72.032C778.1 72.5653 778.212 73.1733 778.212 73.856ZM776.948 73.872C776.948 73.3813 776.868 72.9387 776.708 72.544C776.559 72.1493 776.351 71.8133 776.084 71.536C775.818 71.248 775.508 71.0293 775.156 70.88C774.804 70.7307 774.431 70.656 774.036 70.656C773.652 70.656 773.279 70.736 772.916 70.896C772.564 71.0453 772.244 71.2587 771.956 71.536C771.679 71.8133 771.455 72.1493 771.284 72.544C771.124 72.9387 771.044 73.376 771.044 73.856C771.044 74.336 771.124 74.7787 771.284 75.184C771.455 75.5787 771.679 75.9147 771.956 76.192C772.244 76.4693 772.564 76.688 772.916 76.848C773.279 76.9973 773.652 77.072 774.036 77.072C774.431 77.072 774.804 77.0027 775.156 76.864C775.519 76.7147 775.828 76.5067 776.084 76.24C776.351 75.9627 776.559 75.6267 776.708 75.232C776.868 74.8267 776.948 74.3733 776.948 73.872ZM783.477 70.704C782.987 70.704 782.539 70.7627 782.133 70.88C781.739 70.9867 781.349 71.1307 780.965 71.312L780.597 70.304C781.056 70.0907 781.52 69.9253 781.989 69.808C782.459 69.68 782.997 69.616 783.605 69.616C784.736 69.616 785.605 69.8987 786.213 70.464C786.821 71.0187 787.125 71.8453 787.125 72.944V78H785.941V76.752C785.653 77.1253 785.264 77.456 784.773 77.744C784.293 78.032 783.685 78.176 782.949 78.176C782.565 78.176 782.187 78.1227 781.813 78.016C781.451 77.9093 781.12 77.7493 780.821 77.536C780.533 77.312 780.299 77.04 780.117 76.72C779.947 76.4 779.861 76.0213 779.861 75.584C779.861 75.1467 779.947 74.7627 780.117 74.432C780.288 74.0907 780.528 73.808 780.837 73.584C781.157 73.36 781.531 73.1893 781.957 73.072C782.395 72.9547 782.875 72.896 783.397 72.896C783.931 72.896 784.395 72.928 784.789 72.992C785.184 73.056 785.568 73.1413 785.941 73.248V72.96C785.941 72.2133 785.723 71.6533 785.285 71.28C784.859 70.896 784.256 70.704 783.477 70.704ZM783.525 73.808C782.747 73.808 782.149 73.9627 781.733 74.272C781.317 74.5813 781.109 75.0027 781.109 75.536C781.109 75.8027 781.163 76.0373 781.269 76.24C781.387 76.4427 781.541 76.6187 781.733 76.768C781.925 76.9067 782.144 77.0133 782.389 77.088C782.645 77.1627 782.912 77.2 783.189 77.2C783.573 77.2 783.931 77.1467 784.261 77.04C784.603 76.9227 784.896 76.768 785.141 76.576C785.397 76.3733 785.595 76.1387 785.733 75.872C785.883 75.5947 785.957 75.2907 785.957 74.96V74.16C785.648 74.0747 785.291 73.9947 784.885 73.92C784.491 73.8453 784.037 73.808 783.525 73.808ZM795.431 75.68C795.431 76.0747 795.351 76.4267 795.191 76.736C795.042 77.0347 794.834 77.2907 794.567 77.504C794.311 77.7173 794.002 77.8827 793.639 78C793.287 78.1067 792.903 78.16 792.487 78.16C791.89 78.16 791.287 78.0533 790.679 77.84C790.071 77.616 789.532 77.3173 789.063 76.944L789.687 76.064C790.135 76.4053 790.599 76.6667 791.079 76.848C791.57 77.0293 792.06 77.12 792.551 77.12C793.052 77.12 793.463 77.0027 793.783 76.768C794.103 76.5333 794.263 76.2133 794.263 75.808V75.776C794.263 75.5733 794.204 75.3973 794.087 75.248C793.98 75.0987 793.831 74.9707 793.639 74.864C793.447 74.7467 793.223 74.6453 792.967 74.56C792.722 74.4747 792.466 74.3947 792.199 74.32C791.879 74.224 791.554 74.1227 791.223 74.016C790.903 73.8987 790.61 73.7547 790.343 73.584C790.087 73.4133 789.874 73.2 789.703 72.944C789.543 72.688 789.463 72.368 789.463 71.984V71.952C789.463 71.6 789.532 71.28 789.671 70.992C789.81 70.6933 790.002 70.4427 790.247 70.24C790.503 70.0267 790.802 69.8667 791.143 69.76C791.495 69.6427 791.874 69.584 792.279 69.584C792.791 69.584 793.308 69.6693 793.831 69.84C794.354 70 794.828 70.2187 795.255 70.496L794.695 71.424C794.311 71.1787 793.906 70.9867 793.479 70.848C793.063 70.6987 792.652 70.624 792.247 70.624C791.756 70.624 791.367 70.7413 791.079 70.976C790.791 71.2 790.647 71.4827 790.647 71.824V71.856C790.647 72.048 790.706 72.2187 790.823 72.368C790.94 72.5067 791.095 72.6293 791.287 72.736C791.49 72.8427 791.719 72.9387 791.975 73.024C792.231 73.1093 792.498 73.1947 792.775 73.28C793.095 73.376 793.41 73.4827 793.719 73.6C794.039 73.7173 794.327 73.8667 794.583 74.048C794.839 74.2293 795.042 74.448 795.191 74.704C795.351 74.96 795.431 75.2747 795.431 75.648V75.68ZM798.456 74.32C798.498 74.768 798.605 75.168 798.776 75.52C798.946 75.8613 799.165 76.1547 799.432 76.4C799.698 76.6347 799.997 76.816 800.328 76.944C800.658 77.0613 801.005 77.12 801.368 77.12C801.944 77.12 802.434 77.0133 802.84 76.8C803.256 76.5867 803.634 76.304 803.976 75.952L804.744 76.64C804.328 77.1093 803.853 77.488 803.32 77.776C802.786 78.0533 802.125 78.192 801.336 78.192C800.77 78.192 800.237 78.0907 799.736 77.888C799.234 77.6747 798.797 77.3813 798.424 77.008C798.05 76.624 797.752 76.1653 797.528 75.632C797.314 75.0987 797.208 74.512 797.208 73.872C797.208 73.2747 797.304 72.7147 797.496 72.192C797.698 71.6587 797.976 71.2 798.328 70.816C798.68 70.4213 799.096 70.112 799.576 69.888C800.066 69.664 800.6 69.552 801.176 69.552C801.784 69.552 802.328 69.6693 802.808 69.904C803.288 70.128 803.693 70.4373 804.024 70.832C804.354 71.2267 804.605 71.6907 804.776 72.224C804.946 72.7573 805.032 73.328 805.032 73.936C805.032 73.9893 805.032 74.048 805.032 74.112C805.032 74.176 805.026 74.2453 805.016 74.32H798.456ZM798.456 73.408H803.784C803.752 73.0347 803.672 72.6773 803.544 72.336C803.426 71.9947 803.256 71.696 803.032 71.44C802.818 71.184 802.552 70.9813 802.232 70.832C801.922 70.672 801.56 70.592 801.144 70.592C800.781 70.592 800.445 70.6667 800.136 70.816C799.826 70.9547 799.554 71.152 799.32 71.408C799.085 71.6533 798.893 71.9467 798.744 72.288C798.594 72.6293 798.498 73.0027 798.456 73.408ZM815.061 78H813.829V76.336C813.658 76.5813 813.466 76.816 813.253 77.04C813.05 77.264 812.821 77.4613 812.565 77.632C812.309 77.8027 812.021 77.936 811.701 78.032C811.391 78.128 811.045 78.176 810.661 78.176C810.159 78.176 809.674 78.08 809.205 77.888C808.735 77.696 808.314 77.4187 807.941 77.056C807.567 76.6827 807.269 76.2293 807.045 75.696C806.821 75.1627 806.709 74.5547 806.709 73.872C806.709 73.1893 806.821 72.5813 807.045 72.048C807.269 71.5147 807.567 71.0667 807.941 70.704C808.314 70.3307 808.735 70.048 809.205 69.856C809.674 69.6533 810.159 69.552 810.661 69.552C811.045 69.552 811.397 69.6 811.717 69.696C812.037 69.792 812.325 69.92 812.581 70.08C812.837 70.24 813.066 70.4267 813.269 70.64C813.482 70.8533 813.669 71.0773 813.829 71.312V66.32H815.061V78ZM813.877 73.856C813.877 73.376 813.791 72.9387 813.621 72.544C813.461 72.1493 813.237 71.8133 812.949 71.536C812.671 71.2587 812.351 71.0453 811.989 70.896C811.637 70.736 811.269 70.656 810.885 70.656C810.479 70.656 810.101 70.7307 809.749 70.88C809.397 71.0187 809.087 71.2267 808.821 71.504C808.565 71.7707 808.357 72.1067 808.197 72.512C808.047 72.9067 807.973 73.3547 807.973 73.856C807.973 74.3467 808.047 74.7893 808.197 75.184C808.357 75.5787 808.57 75.92 808.837 76.208C809.103 76.4853 809.413 76.6987 809.765 76.848C810.117 76.9973 810.49 77.072 810.885 77.072C811.269 77.072 811.637 76.9973 811.989 76.848C812.351 76.688 812.671 76.4693 812.949 76.192C813.237 75.9147 813.461 75.5787 813.621 75.184C813.791 74.7787 813.877 74.336 813.877 73.856ZM830.962 73.856C830.962 74.5387 830.85 75.1467 830.626 75.68C830.402 76.2133 830.104 76.6667 829.73 77.04C829.368 77.4027 828.946 77.6853 828.466 77.888C827.997 78.08 827.512 78.176 827.01 78.176C826.626 78.176 826.274 78.128 825.954 78.032C825.634 77.936 825.346 77.808 825.09 77.648C824.834 77.488 824.6 77.3013 824.386 77.088C824.184 76.8747 824.002 76.6507 823.842 76.416V78H822.61V66.32H823.842V71.392C824.013 71.1467 824.2 70.912 824.402 70.688C824.616 70.464 824.85 70.272 825.106 70.112C825.362 69.9413 825.645 69.808 825.954 69.712C826.274 69.6053 826.626 69.552 827.01 69.552C827.501 69.552 827.981 69.648 828.45 69.84C828.93 70.032 829.357 70.3147 829.73 70.688C830.104 71.0507 830.402 71.4987 830.626 72.032C830.85 72.5653 830.962 73.1733 830.962 73.856ZM829.698 73.872C829.698 73.3813 829.618 72.9387 829.458 72.544C829.309 72.1493 829.101 71.8133 828.834 71.536C828.568 71.248 828.258 71.0293 827.906 70.88C827.554 70.7307 827.181 70.656 826.786 70.656C826.402 70.656 826.029 70.736 825.666 70.896C825.314 71.0453 824.994 71.2587 824.706 71.536C824.429 71.8133 824.205 72.1493 824.034 72.544C823.874 72.9387 823.794 73.376 823.794 73.856C823.794 74.336 823.874 74.7787 824.034 75.184C824.205 75.5787 824.429 75.9147 824.706 76.192C824.994 76.4693 825.314 76.688 825.666 76.848C826.029 76.9973 826.402 77.072 826.786 77.072C827.181 77.072 827.554 77.0027 827.906 76.864C828.269 76.7147 828.578 76.5067 828.834 76.24C829.101 75.9627 829.309 75.6267 829.458 75.232C829.618 74.8267 829.698 74.3733 829.698 73.872ZM834.467 74.704V78H833.235V69.728H834.467V71.888C834.617 71.5467 834.803 71.232 835.027 70.944C835.251 70.656 835.507 70.4107 835.795 70.208C836.083 69.9947 836.398 69.8347 836.739 69.728C837.081 69.6213 837.449 69.5733 837.843 69.584V70.912H837.747C837.299 70.912 836.873 70.992 836.467 71.152C836.073 71.312 835.726 71.552 835.427 71.872C835.129 72.192 834.894 72.592 834.723 73.072C834.553 73.5413 834.467 74.0853 834.467 74.704ZM841.16 67.92H839.752V66.56H841.16V67.92ZM841.064 78H839.832V69.728H841.064V78ZM851.795 76.56C851.795 77.232 851.694 77.8187 851.491 78.32C851.299 78.8213 851.016 79.2373 850.643 79.568C850.28 79.9093 849.838 80.1653 849.315 80.336C848.803 80.5067 848.227 80.592 847.587 80.592C846.894 80.592 846.232 80.496 845.603 80.304C844.974 80.112 844.382 79.824 843.827 79.44L844.387 78.48C844.867 78.8213 845.368 79.0827 845.891 79.264C846.414 79.4453 846.974 79.536 847.571 79.536C848.488 79.536 849.219 79.2853 849.763 78.784C850.307 78.2933 850.579 77.5627 850.579 76.592V75.616C850.216 76.096 849.774 76.5067 849.251 76.848C848.728 77.1893 848.088 77.36 847.331 77.36C846.83 77.36 846.344 77.2747 845.875 77.104C845.416 76.9227 845.006 76.6667 844.643 76.336C844.28 75.9947 843.987 75.584 843.763 75.104C843.55 74.624 843.443 74.08 843.443 73.472C843.443 72.864 843.55 72.32 843.763 71.84C843.987 71.3493 844.28 70.9387 844.643 70.608C845.006 70.2667 845.422 70.0053 845.891 69.824C846.36 69.6427 846.84 69.552 847.331 69.552C847.715 69.552 848.067 69.6 848.387 69.696C848.718 69.7813 849.011 69.8987 849.267 70.048C849.534 70.1973 849.774 70.3733 849.987 70.576C850.2 70.7787 850.392 70.992 850.563 71.216V69.728H851.795V76.56ZM850.611 73.456C850.611 73.0293 850.526 72.6453 850.355 72.304C850.184 71.952 849.955 71.6533 849.667 71.408C849.39 71.1627 849.07 70.976 848.707 70.848C848.344 70.7093 847.966 70.64 847.571 70.64C847.176 70.64 846.803 70.704 846.451 70.832C846.11 70.96 845.806 71.1467 845.539 71.392C845.283 71.6373 845.08 71.936 844.931 72.288C844.782 72.6293 844.707 73.0133 844.707 73.44C844.707 73.8667 844.782 74.256 844.931 74.608C845.091 74.9493 845.299 75.248 845.555 75.504C845.822 75.7493 846.126 75.9413 846.467 76.08C846.819 76.208 847.187 76.272 847.571 76.272C847.966 76.272 848.344 76.208 848.707 76.08C849.07 75.9413 849.39 75.7493 849.667 75.504C849.955 75.2587 850.184 74.9653 850.355 74.624C850.526 74.272 850.611 73.8827 850.611 73.456ZM855.78 73.264V78H854.548V66.32H855.78V71.168C856.057 70.72 856.42 70.3413 856.868 70.032C857.316 69.712 857.897 69.552 858.612 69.552C859.113 69.552 859.556 69.632 859.94 69.792C860.335 69.952 860.665 70.1813 860.932 70.48C861.209 70.768 861.417 71.1147 861.556 71.52C861.705 71.9253 861.78 72.3733 861.78 72.864V78H860.548V73.168C860.548 72.4 860.351 71.792 859.956 71.344C859.561 70.896 858.996 70.672 858.26 70.672C857.908 70.672 857.577 70.736 857.268 70.864C856.969 70.9813 856.708 71.1573 856.484 71.392C856.26 71.616 856.084 71.888 855.956 72.208C855.839 72.528 855.78 72.88 855.78 73.264ZM866.071 70.816V75.648C866.071 76.16 866.199 76.5173 866.455 76.72C866.711 76.9227 867.047 77.024 867.463 77.024C867.677 77.024 867.874 77.0027 868.055 76.96C868.247 76.9173 868.45 76.8427 868.663 76.736V77.792C868.45 77.9093 868.221 77.9947 867.975 78.048C867.741 78.112 867.474 78.144 867.175 78.144C866.845 78.144 866.535 78.1013 866.247 78.016C865.959 77.9307 865.709 77.7973 865.495 77.616C865.293 77.424 865.133 77.1787 865.015 76.88C864.898 76.5813 864.839 76.224 864.839 75.808V70.816H863.687V69.728H864.839V67.232H866.071V69.728H868.695V70.816H866.071Z" fill="#504F4F"/>
</svg>
