<svg width="46" height="24" viewBox="0 0 46 24" fill="none" xmlns="http://www.w3.org/2000/svg">
<path d="M38.4893 11.9263L37.1918 11.7919C35.7019 11.6376 34.2042 11.5507 32.7091 11.5235C33.2001 10.9879 33.6699 10.4334 34.0935 9.83732L34.5206 9.23695L33.9116 9.648C33.2922 10.066 32.7143 10.5354 32.155 11.0273C32.1264 9.78156 32.0404 8.5389 31.89 7.30617L31.7677 6.30253L31.6467 7.30617C31.498 8.52679 31.412 9.75606 31.3826 10.9896C30.8492 10.4909 30.2946 10.0137 29.699 9.58057L29.0982 9.14532L29.5101 9.76514C29.9242 10.3863 30.385 10.965 30.8674 11.523C29.3532 11.5481 27.8439 11.6358 26.3453 11.7919L25.0586 11.9263L26.3453 12.0607C27.8309 12.2159 29.3273 12.3028 30.828 12.3291C30.3387 12.8629 29.8689 13.4175 29.4436 14.0144L29.0118 14.6208L29.6256 14.205C30.2467 13.784 30.825 13.3146 31.3826 12.8236C31.4111 14.0654 31.4971 15.3081 31.6467 16.5464L31.7677 17.5596L31.89 16.5464C32.0378 15.321 32.1239 14.0918 32.155 12.8629C32.6888 13.3635 33.2433 13.8415 33.8394 14.272L34.435 14.7025L34.027 14.0875C33.6151 13.4676 33.1539 12.8884 32.6702 12.3291C34.1782 12.3028 35.688 12.2159 37.1918 12.0607L38.4893 11.9263Z" fill="#080707"/>
<path d="M22.5275 17.4686C22.9286 18.2946 23.0116 19.2403 22.4657 20.0654C22.4233 20.1298 22.0205 20.7565 21.9384 20.6921C21.6855 20.4937 21.424 20.2703 21.1547 20.0135C20.8444 19.7075 20.5665 19.4179 20.3132 19.1283C20.011 18.7644 19.7746 18.4584 19.5702 18.1606C19.3744 17.8874 19.1781 17.5814 18.9331 17.1677L18.9088 17.118L18.6798 16.6793C18.5574 16.4312 18.4351 16.158 18.2964 15.8356L18.2471 15.7115C18.0837 15.2564 17.9614 14.8345 17.8633 14.4455C17.875 14.4918 18.3457 14.5985 18.4092 14.6202C19.3649 14.9443 20.3439 15.2918 21.1763 15.881C21.7205 16.2665 22.2184 16.8323 22.5275 17.4686Z" fill="#080707"/>
<path d="M20.4688 4.63293C21.1794 5.1542 21.8571 5.76624 22.5106 6.46127V6.46948C22.4127 6.74265 22.3228 7.02403 22.2409 7.31363C22.1921 7.50381 22.1346 7.71041 22.094 7.91745C21.9306 8.68683 21.8083 9.5474 21.7508 10.4572C21.7426 10.5152 21.7426 10.5813 21.7426 10.6396C20.534 10.1677 19.211 9.78729 17.8633 9.44799L17.9126 9.27423C18.0431 8.78624 18.2065 8.30603 18.4027 7.85132C18.5332 7.5453 18.6802 7.23885 18.8436 6.94104C19.2274 6.20495 19.7258 5.48485 20.3136 4.80668C20.3707 4.74876 20.4195 4.69084 20.4688 4.63293Z" fill="#080707"/>
<path d="M45.1413 7.65315L44.6105 8.01709L44.496 7.88483C44.2345 7.55374 43.9488 7.21487 43.6142 6.8505C42.2501 5.32818 40.6413 3.99647 38.9751 2.98678L38.9344 2.96214C36.6475 1.59672 34.2629 0.852418 31.8454 0.753005C31.682 0.744792 31.5191 0.73658 31.3475 0.744792C30.4489 0.744792 29.5835 0.827349 28.7666 0.984681C28.4891 1.0426 28.2112 1.10873 27.9419 1.19129C27.6722 1.25785 27.4112 1.34862 27.1661 1.45625C27.0109 1.50595 26.8722 1.56387 26.733 1.63822C26.3332 1.82018 25.9329 2.04365 25.5409 2.30861C25.3775 2.42401 25.2223 2.54028 25.0672 2.66433C24.7568 2.92065 24.4629 3.20203 24.1932 3.50805L23.499 2.15127C23.5565 2.10978 23.6054 2.07693 23.6624 2.04365C23.9892 1.85347 24.3484 1.66328 24.7815 1.44803C26.8065 0.496692 29.077 5.72205e-05 31.3475 5.72205e-05C31.8048 5.72205e-05 32.1722 0.00826931 32.5154 0.033339C34.8754 0.173814 37.0153 0.728368 39.4406 1.81197L39.6204 1.82018L40.5026 5.72205e-05H41.0498L45.1413 7.65315Z" fill="#080707"/>
<path d="M44.61 15.9186L45.1408 16.2825L41.0493 23.9438H40.5021L39.6199 22.1155L39.4488 22.1237C37.0149 23.2155 34.8753 23.7619 32.5149 23.9024C32.1639 23.9274 31.7801 23.9438 31.3228 23.9438C30.3918 23.9438 29.4772 23.8613 28.5868 23.6957C28.072 23.5963 27.6557 23.5051 27.2637 23.3975C27.0515 23.3482 26.831 23.2821 26.6102 23.2073C25.9242 22.9839 25.2465 22.7111 24.6094 22.4051C24.9444 22.1566 25.2465 21.892 25.524 21.6107C25.5322 21.6107 25.5322 21.6189 25.5404 21.6189C25.9324 21.8838 26.3327 22.1073 26.7329 22.2893C26.8963 22.3636 27.0268 22.4215 27.1656 22.4794C27.4107 22.5784 27.6722 22.6696 27.9332 22.7444C28.0642 22.7773 28.1947 22.8101 28.3335 22.8434C28.4887 22.8849 28.6274 22.9177 28.7666 22.9428C29.5749 23.1083 30.4324 23.1827 31.3228 23.1827C31.5186 23.1827 31.6738 23.1827 31.8454 23.1745C34.2546 23.0751 36.6392 22.339 38.9257 20.9736L38.9914 20.9321C40.6491 19.9314 42.25 18.5993 43.6137 17.0852C43.9651 16.7044 44.2673 16.3322 44.5037 16.0509L44.61 15.9186Z" fill="#080707"/>
<path d="M14.4108 9.50814C9.40642 8.4107 4.6791 7.37335 4.6791 4.26647C4.6791 3.68814 4.9661 0.806019 10.6331 0.806019C16.8814 0.806019 21.2967 3.06788 24.9473 8.14099L25.0459 8.27714L25.5481 7.98884L21.9126 0.834545H21.4869L20.7698 2.19521H20.7175C18.1276 1.13408 14.8979 0.0530701 10.5769 0.0530701C5.24662 0.0530701 1.52251 2.32056 1.52251 5.56878C1.52251 9.8764 7.34208 11.1567 12.971 12.3941C18.5226 13.6156 23.7656 14.7697 23.7656 18.5137C23.7656 21.3902 20.5826 23.2479 15.6565 23.2479C9.13627 23.2479 3.24409 18.6974 1.49701 15.412L1.42007 15.2668L0.856445 15.4824L4.28318 23.4217H4.71152L5.6594 21.8298H5.71559C7.81365 22.7664 11.1388 24 15.8588 24C22.1858 24 26.6049 21.1957 26.6049 17.1811C26.6049 12.1828 20.4063 10.823 14.4108 9.50814Z" fill="#080707"/>
</svg>
