<?xml version="1.0" encoding="UTF-8"?>
<svg xmlns="http://www.w3.org/2000/svg" width="898" height="50" viewBox="0 0 898 50" fill="none">
  <g clip-path="url(#clip0_1169_9083)">
    <path d="M358.371 32.2586C351.735 40.5634 343.686 46.0949 325.966 46.0949H314.824V24.4837H325.619C335.267 24.4837 337.35 27.7776 337.58 33.0916L337.595 33.4549H338.927V13.9402H337.595L337.58 14.3012C337.349 19.6533 335.266 22.9692 325.619 22.9692H314.824V4.67624H329.244C341.942 4.67624 349.722 7.8938 356.09 15.7798L356.316 16.0598L357.323 15.339L346.401 0.0170898H345.56L344.038 3.16407H297.801V4.5027H298.18C306.717 4.5027 308.158 7.37548 308.158 16.0077V34.7693C308.158 43.6919 305.788 46.2731 297.594 46.2731H297.214V47.6117H346.868L348.331 49.9997H349.166L359.58 32.6821L358.593 31.9775L358.369 32.2586H358.371Z" fill="#080707"></path>
    <path d="M285.47 30.6933C280.961 37.7093 271.592 46.0707 252.564 46.0707H245.573V15.9824C245.573 7.35245 247.016 4.47967 255.551 4.47967H255.931V3.13989H228.551V4.47967H228.93C237.462 4.47967 238.903 7.35245 238.903 15.9824V34.7439C238.903 43.6689 236.536 46.2478 228.346 46.2478H227.965V47.5864H272.769L274.227 49.9767H275.059L286.835 31.1353L285.674 30.3717L285.468 30.6945L285.47 30.6933Z" fill="#080707"></path>
    <path d="M28.1511 19.8476C17.9511 17.6401 8.31813 15.5529 8.31813 9.30171C8.31813 8.13779 8.90241 2.34133 20.4514 2.34133C33.1862 2.34133 42.1841 6.89172 49.6246 17.0974L49.8247 17.3705L50.8487 16.7908L43.4405 2.39917H42.5716L41.1104 5.13543H41.0051C35.7258 2.99965 29.1437 0.825684 20.338 0.825684C9.47511 0.825684 1.88533 5.38881 1.88533 11.9223C1.88533 20.5869 13.7455 23.1635 25.217 25.6533C36.5311 28.1096 47.2158 30.4305 47.2158 37.9635C47.2158 43.7508 40.7297 47.4878 30.6895 47.4878C17.4027 47.4878 5.39329 38.3338 1.83327 31.724L1.67476 31.4312L0.525879 31.8651L7.5094 47.8372H8.38292L10.3139 44.6347H10.4285C14.7047 46.5182 21.4799 49 31.1002 49C43.9947 49 53.0007 43.3597 53.0007 35.2817C53.0007 25.2275 40.3676 22.4901 28.1487 19.8464L28.1511 19.8476Z" fill="#080707"></path>
    <path d="M123.849 0L122.036 3.14583H79.8898L78.0757 0H77.2172L68.6255 16.7392L69.9687 17.4067L70.155 17.1349C77.8894 5.87398 90.3894 4.658 95.4061 4.658H97.6564V34.7487C97.6564 43.6736 95.2892 46.2514 87.1013 46.2514H86.7218V47.5912H115.21V46.2514H114.831C106.638 46.2514 104.27 43.6736 104.27 34.7487V4.65915H106.521C111.536 4.65915 124.036 5.87398 131.77 17.136L131.959 17.4079L133.299 16.7403L124.711 0H123.849Z" fill="#080707"></path>
    <path d="M410.134 17.7551C410.224 17.3421 410.332 16.9313 410.438 16.538C410.598 15.956 410.777 15.3798 410.976 14.8268C411.155 14.3443 411.336 13.8792 411.532 13.4326C412.655 10.8676 414.219 8.77231 416.185 7.19651C416.504 6.93387 416.824 6.70363 417.159 6.47571C417.95 5.94466 418.765 5.48996 419.595 5.12089C419.872 4.98436 420.149 4.86288 420.465 4.75181C420.965 4.54587 421.496 4.36538 422.048 4.22076C422.605 4.05878 423.161 3.93614 423.727 3.81119C425.392 3.48955 427.165 3.32873 428.998 3.32873C429.347 3.31484 429.677 3.32757 430.003 3.34492C434.928 3.54508 439.786 5.04221 444.447 7.79351L444.542 7.84673C447.941 9.86219 451.206 12.5441 453.988 15.6066C454.667 16.3401 455.256 17.0216 455.794 17.6903L456.012 17.9668L457.097 17.2333L448.768 1.82812H447.648L445.844 5.49459L445.487 5.47608C440.535 3.29055 436.178 2.18679 431.376 1.90101C430.674 1.85126 429.918 1.82812 428.998 1.82812C424.368 1.82812 419.741 2.83123 415.61 4.73561C414.733 5.17295 413.987 5.56748 413.326 5.94697C411.031 7.28675 409.022 8.85446 407.361 10.6003C407.065 10.8954 406.785 11.1892 406.506 11.5074C405.304 12.8738 404.294 14.32 403.507 15.8021C403.173 16.3945 402.871 17.0135 402.615 17.6325C402.212 18.5442 401.874 19.5102 401.613 20.4971C401.519 20.8315 401.445 21.1462 401.37 21.4806C401.221 22.1597 401.111 22.8203 401.037 23.4856C400.934 24.196 400.885 24.9469 400.885 25.8458C400.885 26.6233 400.937 27.4552 401.034 28.3241C401.133 29.1398 401.266 29.8906 401.444 30.6138C401.645 31.4815 401.923 32.4048 402.294 33.4345L402.385 33.6844H402.407C402.675 34.3381 402.919 34.883 403.174 35.3909L403.64 36.2679L403.693 36.3674C404.187 37.1981 404.585 37.8171 404.983 38.3713C405.401 38.9706 405.883 39.5827 406.508 40.3116C407.028 40.897 407.586 41.4813 408.226 42.0979C408.879 42.7077 409.528 43.2526 410.147 43.7154C410.792 44.2314 411.503 44.7162 412.2 45.1905C412.572 45.4323 412.964 45.6718 413.324 45.8697C413.788 46.1462 414.271 46.4077 414.752 46.6449C416.202 47.3772 417.749 48.0066 419.344 48.5192C419.79 48.6673 420.236 48.7957 420.677 48.9067C421.467 49.1185 422.321 49.3059 423.37 49.4922C425.174 49.8231 427.047 49.9897 428.944 49.9897C429.865 49.9897 430.66 49.9665 431.373 49.9145C436.185 49.6264 440.538 48.5249 445.504 46.3359L445.845 46.3209L447.649 49.9897H448.769L457.098 34.5834L456.016 33.8521L455.799 34.1183C455.329 34.6886 454.702 35.4395 453.988 36.1916C451.212 39.246 447.955 41.9209 444.565 43.9364L444.429 44.0116C439.774 46.7594 434.922 48.2542 430.001 48.4521C429.662 48.4706 429.34 48.4625 428.945 48.4706C427.13 48.4706 425.377 48.3074 423.73 47.9846C423.445 47.9349 423.162 47.8632 422.848 47.7799C422.574 47.7116 422.299 47.6422 422.043 47.5739C421.5 47.4304 420.969 47.2523 420.468 47.0463C420.187 46.9318 419.924 46.8184 419.584 46.6703C418.768 46.3059 417.953 45.8535 417.155 45.3155C416.783 45.0505 416.412 44.7879 416.047 44.4929C415.625 44.1354 415.297 43.8322 415.011 43.5326C413.27 41.8179 411.915 39.6116 410.981 36.9737C410.783 36.4195 410.602 35.8421 410.442 35.2579C410.335 34.8645 410.227 34.4538 410.138 34.043C409.796 32.5089 409.56 30.7919 409.433 28.9385C409.36 27.9411 409.325 26.9276 409.325 25.8447C409.325 24.8231 409.362 23.8246 409.433 22.8736C409.559 21.0305 409.796 19.3089 410.138 17.7539L410.134 17.7551Z" fill="#080707"></path>
    <path d="M650.867 34.7661V16.0046C650.867 7.37236 652.309 4.50073 660.84 4.50073H661.22V3.16211H633.905V4.50073H634.284C642.816 4.50073 644.257 7.37351 644.257 16.0046V34.7661C644.257 43.6888 641.89 46.27 633.699 46.27H633.319V47.6086H661.809V46.27H661.429C653.236 46.27 650.867 43.6888 650.867 34.7661Z" fill="#080707"></path>
    <path d="M896.312 30.3882L896.106 30.711C891.595 37.7269 882.228 46.0907 863.197 46.0907H856.21V16.0012C856.21 7.36894 857.652 4.49732 866.184 4.49732H866.564V3.15869H839.187V4.49732H839.567C848.098 4.49732 849.54 7.37009 849.54 16.0012V34.7604C849.54 43.6853 847.172 46.2666 838.979 46.2666H838.6V47.6052H883.404L884.864 49.9932H885.694L897.471 31.1518L896.311 30.3882H896.312Z" fill="#080707"></path>
    <path d="M595.111 3.14893H557.518V4.48524H557.899C566.448 4.48524 567.888 7.37306 567.888 16.003V34.746C567.888 43.6721 565.52 46.2475 557.334 46.2475H556.954V47.6012H583.794V46.2475H583.414C576.571 46.2475 574.601 43.6733 574.601 34.746V26.2156H590.142C597.182 26.1821 604.555 25.9032 610.585 22.7667C614.149 20.9028 616.186 18.0149 616.186 14.8309C616.186 9.43479 610.669 3.14893 595.112 3.14893H595.111ZM596.784 24.4674L589.543 24.715H574.6V4.66688H594.1C601.374 4.66688 609.707 5.70701 609.707 13.8406C609.723 19.9621 605.366 23.5256 596.783 24.4663L596.784 24.4674Z" fill="#080707"></path>
    <path d="M733.738 0.010498L731.924 3.15748H689.778L687.965 0.010498H687.104L678.513 16.7508L679.856 17.4161L680.043 17.1442C687.776 5.88332 700.275 4.66965 705.291 4.66965H707.542V34.7592C707.542 43.6841 705.177 46.263 696.988 46.263H696.608V47.6017H725.097V46.263H724.716C716.523 46.263 714.157 43.683 714.157 34.7592V4.67081H716.409C721.422 4.67081 733.923 5.88448 741.658 17.1454L741.846 17.4172L743.186 16.752L734.599 0.010498H733.738Z" fill="#080707"></path>
    <path d="M534.72 37.5681L520.306 15.5392C518.762 13.1744 517.168 10.6614 515.726 8.38217C513.601 5.03156 511.77 2.1368 510.901 1.00527L510.788 0.857178H509.87L509.765 0.937009C508.003 2.32538 505.755 3.69178 501.291 4.30035L500.964 4.34316V5.62625H501.343C503.46 5.62625 505.069 6.11449 506.504 7.20205L488.496 34.4767C482.789 43.1598 478.496 46.2374 472.095 46.2374H471.715V47.5876H495.813V46.2374H495.432C492.441 46.2374 490.141 45.2076 489.121 43.4132C487.839 41.1617 488.483 37.7845 490.987 33.6286L491.359 32.9217L507.718 8.20399C508.636 9.14462 509.478 10.2183 510.283 11.4748L524.316 32.9009L525.583 34.8932C528.779 39.7513 530.656 42.8139 529.798 44.3966C529.097 45.6866 526.437 46.2397 520.898 46.2397H520.519V47.5899H548.978V46.2397H548.599C542.425 46.2397 539.555 44.9844 534.723 37.5681H534.72Z" fill="#080707"></path>
    <path d="M521.668 33.4189L519.023 33.1482C515.987 32.8381 512.935 32.6634 509.887 32.609C510.889 31.5319 511.846 30.4165 512.711 29.2167L513.579 28.0089L512.339 28.8361C511.076 29.6784 509.899 30.6225 508.759 31.6129C508.702 29.1057 508.525 26.6066 508.218 24.126L507.97 22.106L507.724 24.126C507.42 26.5812 507.245 29.0548 507.185 31.5365C506.098 30.5334 504.968 29.5719 503.753 28.7019L502.53 27.8249L503.369 29.0733C504.213 30.3217 505.153 31.4867 506.135 32.609C503.05 32.6611 499.973 32.8369 496.92 33.1505L494.298 33.4212L496.92 33.6931C499.948 34.0043 502.997 34.179 506.056 34.2323C505.058 35.3059 504.101 36.4213 503.235 37.6222L502.354 38.8428L503.606 38.0052C504.871 37.1582 506.05 36.2142 507.186 35.2261C507.244 37.7263 507.419 40.2242 507.725 42.7164L507.972 44.755L508.219 42.7164C508.52 40.2509 508.697 37.7784 508.761 35.3059C509.849 36.3125 510.98 37.2751 512.192 38.1405L513.407 39.0071L512.575 37.7691C511.734 36.5231 510.796 35.3568 509.811 34.2323C512.884 34.179 515.962 34.0043 519.025 33.6931L521.67 33.4212L521.668 33.4189Z" fill="#080707"></path>
    <path d="M812.828 37.5588L798.414 15.53C796.869 13.1651 795.276 10.6521 793.834 8.37289C791.709 5.02228 789.878 2.12752 789.009 0.995994L788.896 0.8479H787.978L787.873 0.927732C786.111 2.31611 783.863 3.6825 779.399 4.29107L779.072 4.33388V5.61697H779.451C781.568 5.61697 783.177 6.10405 784.612 7.19277L766.604 34.4674C760.897 43.1505 756.604 46.2269 750.203 46.2269H749.823V47.5783H773.921V46.2269H773.54C770.549 46.2269 768.249 45.1984 767.229 43.4039C765.947 41.1524 766.591 37.7752 769.095 33.6193L769.466 32.9124L785.826 8.19472C786.744 9.13534 787.586 10.209 788.392 11.4655L802.423 32.8916L803.69 34.8839C806.885 39.7421 808.763 42.8046 807.905 44.3873C807.204 45.6774 804.544 46.2281 799.005 46.2281H798.626V47.5794H827.085V46.2281H826.706C820.532 46.2281 817.662 44.9751 812.83 37.5577L812.828 37.5588Z" fill="#080707"></path>
    <path d="M799.776 33.4099L797.131 33.1391C794.095 32.8291 791.043 32.6544 787.995 32.6C788.997 31.5228 789.954 30.4075 790.818 29.2077L791.687 27.9998L790.447 28.8271C789.184 29.6682 788.006 30.6134 786.865 31.6015C786.808 29.0966 786.632 26.5964 786.326 24.117L786.078 22.0969L785.831 24.117C785.528 26.5721 785.353 29.0457 785.293 31.5275C784.206 30.5244 783.076 29.5629 781.861 28.6929L780.638 27.8159L781.477 29.0643C782.32 30.3126 783.26 31.4777 784.243 32.6C781.158 32.652 778.081 32.8279 775.028 33.1414L772.406 33.4122L775.028 33.6818C778.056 33.9941 781.104 34.17 784.163 34.2232C783.166 35.2969 782.209 36.4122 781.343 37.6132L780.462 38.8315L781.714 37.9961C782.979 37.1492 784.158 36.2051 785.294 35.2171C785.352 37.715 785.526 40.2152 785.832 42.7073L786.079 44.7448L786.327 42.7073C786.628 40.2418 786.805 37.7694 786.866 35.2969C787.956 36.3035 789.085 37.2661 790.3 38.1315L791.515 38.9992L790.683 37.7613C789.842 36.5152 788.904 35.349 787.919 34.2244C790.992 34.1712 794.07 33.9965 797.133 33.6829L799.778 33.4133L799.776 33.4099Z" fill="#080707"></path>
    <path d="M194.16 3.1318H185.81V4.48547H186.191C186.571 4.48547 186.936 4.50167 187.284 4.53522C187.55 4.55026 187.799 4.58381 188.029 4.61736C188.758 4.73191 189.421 4.93206 190.018 5.21205C191.129 5.67484 191.988 6.38407 192.503 7.30734C193.365 8.8091 193.365 10.806 192.52 13.2149C192.105 14.4204 191.476 15.707 190.648 17.0931L190.267 17.8023C190.267 17.8023 181.105 31.6617 181.071 31.6953L171.082 17.8023L170.601 17.0271L169.789 15.8215C166.773 11.2191 164.852 8.08367 165.513 6.45118C165.813 5.74079 166.656 5.22941 168.114 4.91702C169.556 4.60232 171.644 4.45423 174.494 4.45423H174.874V3.13412C174.874 3.13412 156.65 3.13412 156.65 3.16767C156.369 3.15147 155.721 3.13412 154.248 3.11792H146.393V4.45423H146.774C149.044 4.45423 150.683 4.65207 152.076 5.09867C152.375 5.18081 152.656 5.28031 152.92 5.39485C154.311 5.95599 155.538 6.83182 156.813 8.13458C158.006 9.33784 159.233 10.9391 160.675 13.1489L170.714 28.5286C170.995 28.9567 171.276 29.386 171.56 29.8152C172.106 30.6887 172.669 31.5646 173.266 32.4045C174.724 34.5172 174.774 36.3163 174.377 39.0699C174.194 40.2581 173.929 41.2658 173.549 42.122C173.449 42.3198 173.351 42.5177 173.234 42.7167C173.019 43.08 172.786 43.4271 172.521 43.7233C172.372 43.8875 172.223 44.0356 172.073 44.186C171.494 44.7298 170.782 45.1429 169.919 45.4726C169.407 45.6542 168.826 45.8023 168.196 45.9169C167.053 46.1321 165.695 46.2478 164.087 46.2478H163.706V47.5841C163.706 47.5841 169.257 47.5841 169.273 47.6003H175.57C175.586 47.6003 175.603 47.5841 175.62 47.5841H192.204V46.2478H191.823C187.83 46.2478 185.361 45.6033 183.804 44.1525C181.467 42.0398 181.186 38.4914 181.235 36.5627C181.267 35.2958 181.614 34.044 182.225 32.9321C183.023 31.4778 183.979 30.1079 184.894 28.723C185.711 27.4851 186.526 26.2459 187.344 25.0091C188.27 23.608 189.193 22.2046 190.119 20.8035C190.797 19.7761 191.474 18.751 192.152 17.7248C192.289 17.5131 192.429 17.3025 192.569 17.0919L193.132 16.2334C193.379 15.8539 193.629 15.4907 193.86 15.1285C194.108 14.7652 194.358 14.4366 194.606 14.0884L195.201 13.1651C196.643 10.9553 197.869 9.35404 199.063 8.15078C200.404 6.78091 201.682 5.88888 203.156 5.32775C203.371 5.2456 203.585 5.16346 203.801 5.11255C205.193 4.66827 206.832 4.47043 209.102 4.47043C209.102 4.47043 209.483 4.47043 209.5 4.45423V3.11792H199.096C198.565 3.11792 196.643 3.13412 194.158 3.13412L194.16 3.1318Z" fill="#080707"></path>
  </g>
  <defs>
    <clipPath id="clip0_1169_9083">
      <rect width="896.944" height="50" fill="white" transform="translate(0.527832)"></rect>
    </clipPath>
  </defs>
</svg>
