<svg width="288" height="43" viewBox="0 0 288 43" fill="none" xmlns="http://www.w3.org/2000/svg">
<g clip-path="url(#clip0_1679_103)">
<path d="M115 10.3231C112.876 12.9807 110.3 14.7508 104.63 14.7508H101.065V7.83518H104.519C107.607 7.83518 108.273 8.88924 108.347 10.5897L108.352 10.706H108.778V4.46125H108.352L108.347 4.57676C108.273 6.28946 107.606 7.35055 104.519 7.35055H101.065V1.49679H105.679C109.743 1.49679 112.232 2.52641 114.27 5.04992L114.342 5.13951L114.664 4.90886L111.169 0.00585938H110.9L110.413 1.01289H95.6174V1.44125H95.7388C98.4704 1.44125 98.9317 2.36054 98.9317 5.12285V11.1266C98.9317 13.9818 98.1731 14.8078 95.5511 14.8078H95.4297V15.2361H111.319L111.787 16.0003H112.054L115.387 10.4587L115.071 10.2332L114.999 10.3231H115Z" fill="#080707"/>
<path d="M91.6723 9.82199C90.2295 12.0671 87.2314 14.7428 81.1425 14.7428H78.9056V5.11447C78.9056 2.3529 79.3673 1.43361 82.0985 1.43361H82.2199V1.00488H73.4583V1.43361H73.5798C76.3099 1.43361 76.7712 2.3529 76.7712 5.11447V11.1182C76.7712 13.9742 76.0137 14.7994 73.3928 14.7994H73.271V15.2278H87.6083L88.0748 15.9927H88.341L92.1092 9.96342L91.7379 9.71906L91.672 9.82236L91.6723 9.82199Z" fill="#080707"/>
<path d="M9.3298 6.35165C6.06583 5.64525 2.98327 4.97735 2.98327 2.97698C2.98327 2.60452 3.17023 0.749654 6.8659 0.749654C10.9411 0.749654 13.8204 2.20578 16.2013 5.47161L16.2654 5.55898L16.593 5.3735L14.2224 0.768166H13.9444L13.4768 1.64377H13.4431C11.7537 0.960317 9.64746 0.264648 6.82962 0.264648C3.3535 0.264648 0.92477 1.72485 0.92477 3.81556C0.92477 6.58823 4.72003 7.41274 8.39089 8.20948C12.0114 8.99549 15.4305 9.73818 15.4305 12.1488C15.4305 14.0007 13.355 15.1965 10.1421 15.1965C5.89034 15.1965 2.04732 12.2672 0.90811 10.1521L0.857388 10.0584L0.489746 10.1973L2.72447 15.3083H3.004L3.62192 14.2835H3.65857C5.02695 14.8863 7.19504 15.6804 10.2735 15.6804C14.3998 15.6804 17.2817 13.8755 17.2817 11.2906C17.2817 8.07324 13.2391 7.19727 9.32906 6.35128L9.3298 6.35165Z" fill="#080707"/>
<path d="M39.9538 0L39.3737 1.00666H25.8868L25.3063 0H25.0316L22.2822 5.35653L22.7121 5.57016L22.7717 5.48315C25.2467 1.87967 29.2467 1.49056 30.852 1.49056H31.5721V11.1196C31.5721 13.9756 30.8146 14.8004 28.1945 14.8004H28.073V15.2292H37.1893V14.8004H37.0679C34.4462 14.8004 33.6884 13.9756 33.6884 11.1196V1.49093H34.4088C36.0134 1.49093 40.0134 1.87967 42.4884 5.48352L42.5488 5.57053L42.9779 5.3569L40.2297 0H39.9538Z" fill="#080707"/>
<path d="M131.563 5.68159C131.592 5.54942 131.626 5.41799 131.661 5.29211C131.712 5.10588 131.769 4.9215 131.833 4.74453C131.89 4.59014 131.948 4.44131 132.01 4.2984C132.37 3.47759 132.87 2.8071 133.499 2.30284C133.602 2.2188 133.704 2.14512 133.811 2.07219C134.064 1.90225 134.325 1.75675 134.591 1.63864C134.679 1.59496 134.768 1.55608 134.869 1.52054C135.029 1.45464 135.199 1.39688 135.375 1.3506C135.554 1.29877 135.732 1.25953 135.913 1.21954C136.446 1.11662 137.013 1.06515 137.599 1.06515C137.711 1.06071 137.817 1.06478 137.921 1.07034C139.497 1.13439 141.052 1.61347 142.543 2.49388L142.574 2.51091C143.661 3.15586 144.706 4.01406 145.596 4.99407C145.814 5.2288 146.002 5.44686 146.174 5.66086L146.244 5.74934L146.591 5.51462L143.926 0.584961H143.568L142.99 1.75823L142.876 1.75231C141.291 1.05294 139.897 0.699733 138.361 0.608286C138.136 0.592366 137.894 0.584961 137.599 0.584961C136.118 0.584961 134.637 0.905953 133.315 1.51536C133.035 1.65531 132.796 1.78155 132.585 1.90299C131.85 2.33172 131.207 2.83339 130.676 3.39207C130.581 3.48648 130.491 3.58052 130.402 3.68233C130.017 4.11958 129.694 4.58237 129.442 5.05664C129.335 5.2462 129.239 5.44427 129.157 5.64235C129.028 5.93409 128.92 6.24324 128.836 6.55904C128.806 6.66604 128.783 6.76675 128.759 6.87374C128.711 7.09107 128.676 7.30247 128.652 7.51536C128.619 7.74268 128.604 7.98296 128.604 8.27063C128.604 8.51943 128.62 8.78563 128.651 9.06367C128.683 9.32469 128.725 9.56497 128.782 9.79636C128.847 10.074 128.936 10.3695 129.054 10.699L129.083 10.779H129.09C129.176 10.9881 129.254 11.1625 129.336 11.3251L129.485 11.6057L129.502 11.6375C129.66 11.9034 129.788 12.1014 129.915 12.2788C130.049 12.4706 130.203 12.6664 130.403 12.8997C130.569 13.087 130.748 13.274 130.953 13.4713C131.161 13.6664 131.369 13.8408 131.567 13.9889C131.774 14.154 132.001 14.3091 132.224 14.4609C132.343 14.5383 132.469 14.615 132.584 14.6783C132.732 14.7667 132.887 14.8504 133.041 14.9263C133.505 15.1607 134 15.3621 134.51 15.5261C134.653 15.5735 134.796 15.6146 134.937 15.6501C135.19 15.7179 135.463 15.7779 135.799 15.8375C136.376 15.9433 136.975 15.9967 137.582 15.9967C137.877 15.9967 138.131 15.9893 138.36 15.9726C139.899 15.8804 141.293 15.5279 142.882 14.8275L142.991 14.8227L143.568 15.9967H143.926L146.592 11.0666L146.245 10.8326L146.176 10.9178C146.026 11.1003 145.825 11.3406 145.596 11.5813C144.708 12.5587 143.666 13.4147 142.581 14.0596L142.538 14.0837C141.048 14.963 139.495 15.4413 137.92 15.5046C137.812 15.5105 137.709 15.508 137.583 15.5105C137.002 15.5105 136.441 15.4583 135.914 15.355C135.823 15.3391 135.732 15.3162 135.632 15.2895C135.544 15.2677 135.456 15.2455 135.374 15.2236C135.2 15.1777 135.03 15.1207 134.87 15.0548C134.78 15.0181 134.696 14.9819 134.587 14.9345C134.326 14.8178 134.065 14.6731 133.81 14.5009C133.691 14.4161 133.572 14.3321 133.455 14.2377C133.32 14.1233 133.215 14.0263 133.124 13.9304C132.566 13.3817 132.133 12.6757 131.834 11.8315C131.771 11.6542 131.713 11.4694 131.662 11.2825C131.628 11.1566 131.593 11.0252 131.564 10.8937C131.455 10.4028 131.38 9.85338 131.339 9.26027C131.315 8.94112 131.304 8.6168 131.304 8.27026C131.304 7.94335 131.316 7.62384 131.339 7.3195C131.379 6.72972 131.455 6.17881 131.564 5.68122L131.563 5.68159Z" fill="#080707"/>
<path d="M208.598 11.126V5.12228C208.598 2.35997 209.06 1.44106 211.79 1.44106H211.911V1.0127H203.17V1.44106H203.292C206.022 1.44106 206.483 2.36034 206.483 5.12228V11.126C206.483 13.9812 205.726 14.8072 203.104 14.8072H202.983V15.2356H212.1V14.8072H211.978C209.356 14.8072 208.598 13.9812 208.598 11.126Z" fill="#080707"/>
<path d="M287.141 9.72418L287.075 9.82748C285.631 12.0726 282.634 14.749 276.544 14.749H274.308V5.12033C274.308 2.35802 274.769 1.4391 277.5 1.4391H277.621V1.01074H268.861V1.4391H268.982C271.712 1.4391 272.174 2.35839 272.174 5.12033V11.1233C272.174 13.9793 271.416 14.8053 268.794 14.8053H268.673V15.2336H283.01L283.477 15.9978H283.743L287.512 9.96854L287.14 9.72418H287.141Z" fill="#080707"/>
<path d="M190.758 1.00781H178.729V1.43543H178.85C181.586 1.43543 182.047 2.35953 182.047 5.1211V11.1189C182.047 13.9752 181.289 14.7994 178.67 14.7994H178.548V15.2325H187.137V14.7994H187.015C184.826 14.7994 184.195 13.9756 184.195 11.1189V8.38915H189.168C191.421 8.37842 193.78 8.28919 195.71 7.28549C196.85 6.68904 197.502 5.76494 197.502 4.74606C197.502 3.01929 195.737 1.00781 190.759 1.00781H190.758ZM191.293 7.82973L188.977 7.90896H184.195V1.49356H190.435C192.762 1.49356 195.429 1.8264 195.429 4.42914C195.434 6.38804 194.04 7.52836 191.293 7.82936L191.293 7.82973Z" fill="#080707"/>
<path d="M235.117 0.00292969L234.537 1.00996H221.05L220.47 0.00292969H220.194L217.445 5.35983L217.875 5.57272L217.935 5.48571C220.409 1.88223 224.409 1.49386 226.014 1.49386H226.734V11.1225C226.734 13.9785 225.978 14.8037 223.357 14.8037H223.236V15.2321H232.352V14.8037H232.23C229.609 14.8037 228.851 13.9781 228.851 11.1225V1.49423H229.572C231.176 1.49423 235.177 1.8826 237.652 5.48608L237.712 5.57309L238.141 5.3602L235.393 0.00292969H235.117Z" fill="#080707"/>
<path d="M171.432 12.0219L166.82 4.97267C166.326 4.21592 165.816 3.41177 165.354 2.68241C164.675 1.61022 164.088 0.683892 163.81 0.321804L163.774 0.274414H163.481L163.447 0.29996C162.883 0.74424 162.164 1.18149 160.735 1.37623L160.63 1.38993V1.80052H160.752C161.429 1.80052 161.944 1.95675 162.404 2.30477L156.641 11.0327C154.814 13.8113 153.441 14.7961 151.392 14.7961H151.271V15.2281H158.982V14.7961H158.86C157.903 14.7961 157.167 14.4666 156.841 13.8923C156.431 13.1719 156.637 12.0911 157.438 10.7613L157.557 10.5351L162.792 2.6254C163.086 2.92639 163.355 3.26997 163.613 3.67204L168.103 10.5284L168.509 11.1659C169.531 12.7205 170.132 13.7006 169.857 14.207C169.633 14.6198 168.782 14.7968 167.01 14.7968H166.888V15.2289H175.995V14.7968H175.874C173.898 14.7968 172.98 14.3951 171.434 12.0219H171.432Z" fill="#080707"/>
<path d="M167.255 10.6934L166.408 10.6067C165.437 10.5075 164.46 10.4516 163.485 10.4342C163.806 10.0895 164.112 9.73263 164.388 9.3487L164.667 8.96217L164.27 9.22689C163.865 9.49642 163.489 9.79853 163.124 10.1154C163.106 9.31315 163.049 8.51345 162.951 7.71967L162.872 7.07324L162.793 7.71967C162.695 8.5053 162.64 9.29686 162.62 10.091C162.273 9.77002 161.911 9.46236 161.522 9.18394L161.131 8.9033L161.399 9.30279C161.669 9.70227 161.97 10.0751 162.284 10.4342C161.297 10.4509 160.313 10.5072 159.336 10.6075L158.497 10.6941L159.336 10.7811C160.304 10.8807 161.28 10.9366 162.259 10.9537C161.94 11.2972 161.634 11.6541 161.356 12.0384L161.075 12.429L161.475 12.161C161.88 11.89 162.257 11.5879 162.621 11.2717C162.639 12.0718 162.695 12.8711 162.793 13.6686L162.872 14.3209L162.951 13.6686C163.048 12.8796 163.104 12.0884 163.124 11.2972C163.473 11.6193 163.835 11.9274 164.223 12.2043L164.611 12.4816L164.345 12.0855C164.076 11.6867 163.776 11.3135 163.461 10.9537C164.444 10.9366 165.429 10.8807 166.409 10.7811L167.256 10.6941L167.255 10.6934Z" fill="#080707"/>
<path d="M260.426 12.019L255.813 4.96974C255.319 4.21299 254.809 3.40884 254.347 2.67948C253.668 1.60729 253.082 0.680962 252.804 0.318874L252.767 0.271484H252.474L252.44 0.29703C251.876 0.74131 251.157 1.17856 249.728 1.3733L249.624 1.387V1.79759H249.745C250.423 1.79759 250.937 1.95345 251.397 2.30184L245.634 11.0297C243.808 13.8083 242.434 14.7928 240.386 14.7928H240.264V15.2252H247.975V14.7928H247.854C246.897 14.7928 246.16 14.4636 245.834 13.8894C245.424 13.1689 245.63 12.0882 246.431 10.7583L246.55 10.5321L251.785 2.62247C252.079 2.92347 252.348 3.26704 252.606 3.66911L257.096 10.5255L257.501 11.163C258.524 12.7176 259.125 13.6976 258.85 14.2041C258.626 14.6169 257.775 14.7931 256.002 14.7931H255.881V15.2256H264.988V14.7931H264.867C262.891 14.7931 261.972 14.3922 260.426 12.0186L260.426 12.019Z" fill="#080707"/>
<path d="M256.25 10.6914L255.404 10.6048C254.433 10.5056 253.456 10.4497 252.481 10.4323C252.801 10.0876 253.108 9.73067 253.384 9.34674L253.662 8.96022L253.265 9.22494C252.861 9.4941 252.484 9.79658 252.119 10.1128C252.101 9.3112 252.045 8.51113 251.946 7.71772L251.867 7.07129L251.788 7.71772C251.691 8.50335 251.635 9.29491 251.616 10.0891C251.268 9.76807 250.906 9.4604 250.518 9.18199L250.126 8.90135L250.395 9.30083C250.665 9.70032 250.965 10.0731 251.28 10.4323C250.293 10.4489 249.308 10.5052 248.331 10.6055L247.492 10.6922L248.331 10.7784C249.3 10.8784 250.276 10.9347 251.255 10.9517C250.935 11.2953 250.629 11.6522 250.352 12.0365L250.07 12.4263L250.471 12.159C250.875 11.888 251.253 11.5859 251.616 11.2697C251.635 12.0691 251.691 12.8691 251.788 13.6666L251.868 14.3186L251.947 13.6666C252.043 12.8777 252.1 12.0865 252.119 11.2953C252.468 11.6174 252.829 11.9254 253.218 12.2024L253.607 12.48L253.341 12.0839C253.072 11.6851 252.771 11.3119 252.456 10.9521C253.44 10.935 254.424 10.8791 255.405 10.7788L256.251 10.6925L256.25 10.6914Z" fill="#080707"/>
<path d="M62.4539 1.00249H59.7819V1.43566H59.9037C60.0255 1.43566 60.1422 1.44085 60.2536 1.45158C60.3388 1.4564 60.4184 1.46713 60.492 1.47787C60.7253 1.51452 60.9374 1.57857 61.1285 1.66817C61.4839 1.81626 61.759 2.04322 61.9237 2.33866C62.1996 2.81922 62.1996 3.45825 61.9289 4.22907C61.7964 4.61486 61.595 5.02656 61.3299 5.47009L61.2081 5.69705C61.2081 5.69705 58.2762 10.1321 58.2655 10.1428L55.0689 5.69705L54.9148 5.44899L54.6553 5.06321C53.6901 3.59042 53.0752 2.58709 53.2869 2.06469C53.3828 1.83737 53.6527 1.67372 54.1192 1.57376C54.5805 1.47306 55.2488 1.42567 56.1607 1.42567H56.2825V1.00323C56.2825 1.00323 50.4506 1.00323 50.4506 1.01397C50.3606 1.00878 50.1533 1.00323 49.682 0.998047H47.1685V1.42567H47.2903C48.0167 1.42567 48.5413 1.48898 48.987 1.63189C49.0826 1.65817 49.1725 1.69001 49.2569 1.72667C49.7023 1.90623 50.0948 2.1865 50.5028 2.60338C50.8845 2.98842 51.2773 3.50082 51.7386 4.20797L54.9511 9.12948C55.0411 9.26647 55.1311 9.40382 55.2218 9.54118C55.3965 9.82071 55.5768 10.101 55.7679 10.3698C56.2344 11.0458 56.2503 11.6215 56.1233 12.5027C56.0648 12.8829 55.98 13.2054 55.8582 13.4794C55.8264 13.5427 55.7949 13.606 55.7575 13.6696C55.6886 13.7859 55.6142 13.897 55.5294 13.9918C55.4817 14.0443 55.4339 14.0917 55.3862 14.1398C55.2007 14.3139 54.973 14.446 54.6968 14.5515C54.5328 14.6097 54.3469 14.6571 54.1455 14.6937C53.7797 14.7626 53.3451 14.7996 52.8304 14.7996H52.7086V15.2272C52.7086 15.2272 54.485 15.2272 54.4902 15.2324H56.505C56.5102 15.2324 56.5157 15.2272 56.5209 15.2272H61.8278V14.7996H61.706C60.4284 14.7996 59.6383 14.5934 59.1399 14.1291C58.3921 13.4531 58.3021 12.3176 58.318 11.7004C58.328 11.295 58.4391 10.8944 58.6346 10.5386C58.89 10.0732 59.1959 9.63485 59.4887 9.19168C59.7501 8.79553 60.0111 8.39901 60.2729 8.00323C60.569 7.55488 60.8645 7.10578 61.1607 6.65743C61.3776 6.32867 61.5942 6.00064 61.8112 5.67224C61.8552 5.60449 61.9 5.53711 61.9448 5.46972L62.1248 5.19501C62.204 5.07357 62.284 4.95732 62.358 4.84144C62.4372 4.72518 62.5172 4.62004 62.5964 4.5086L62.7871 4.21315C63.2484 3.50601 63.6409 2.9936 64.023 2.60856C64.4521 2.17021 64.8608 1.88476 65.3325 1.70519C65.4013 1.67891 65.4698 1.65262 65.5391 1.63633C65.9844 1.49416 66.5091 1.43085 67.2355 1.43085C67.2355 1.43085 67.3573 1.43085 67.3628 1.42567V0.998047H64.0333C63.8634 0.998047 63.2484 1.00323 62.4532 1.00323L62.4539 1.00249Z" fill="#080707"/>
</g>
<path d="M116.948 35.9234C116.919 35.6678 116.8 35.4699 116.591 35.3295C116.382 35.1873 116.12 35.1162 115.803 35.1162C115.576 35.1162 115.38 35.1522 115.214 35.2242C115.049 35.2944 114.92 35.3916 114.828 35.5158C114.738 35.6381 114.693 35.7776 114.693 35.9342C114.693 36.0656 114.724 36.179 114.785 36.2744C114.848 36.3698 114.93 36.4499 115.031 36.5147C115.133 36.5777 115.243 36.6307 115.36 36.6739C115.477 36.7153 115.59 36.7495 115.698 36.7765L116.238 36.9169C116.414 36.9601 116.595 37.0186 116.78 37.0924C116.966 37.1662 117.137 37.2634 117.296 37.384C117.454 37.5046 117.582 37.6539 117.679 37.8321C117.778 38.0103 117.828 38.2236 117.828 38.472C117.828 38.7851 117.747 39.0632 117.585 39.3062C117.425 39.5491 117.191 39.7408 116.885 39.8812C116.581 40.0216 116.213 40.0918 115.781 40.0918C115.367 40.0918 115.009 40.0261 114.707 39.8947C114.404 39.7633 114.168 39.577 113.997 39.3359C113.826 39.0929 113.731 38.8049 113.713 38.472H114.55C114.566 38.6717 114.631 38.8382 114.745 38.9714C114.86 39.1028 115.006 39.2009 115.185 39.2657C115.365 39.3287 115.562 39.3602 115.776 39.3602C116.012 39.3602 116.221 39.3233 116.405 39.2495C116.59 39.1739 116.736 39.0695 116.842 38.9363C116.948 38.8013 117.002 38.6438 117.002 38.4639C117.002 38.3001 116.955 38.166 116.861 38.0616C116.769 37.9572 116.644 37.8708 116.486 37.8024C116.329 37.734 116.152 37.6737 115.954 37.6215L115.301 37.4434C114.858 37.3228 114.507 37.1455 114.248 36.9115C113.99 36.6775 113.862 36.368 113.862 35.9828C113.862 35.6642 113.948 35.3862 114.121 35.1486C114.294 34.911 114.528 34.7265 114.823 34.5952C115.118 34.462 115.451 34.3954 115.822 34.3954C116.196 34.3954 116.526 34.4611 116.813 34.5925C117.101 34.7238 117.327 34.9047 117.493 35.1351C117.658 35.3637 117.745 35.6265 117.752 35.9234H116.948ZM118.468 35.1891V34.471H122.747V35.1891H121.022V40H120.191V35.1891H118.468ZM123.183 34.471H124.13L125.575 36.9844H125.634L127.078 34.471H128.026L126.02 37.8294V40H125.189V37.8294L123.183 34.471ZM128.73 40V34.471H129.564V39.2819H132.07V40H128.73ZM132.938 40V34.471H136.404V35.1891H133.772V36.8737H136.223V37.5891H133.772V39.2819H136.436V40H132.938ZM140.197 34.471V40H139.363V34.471H140.197ZM144.344 35.9234C144.315 35.6678 144.197 35.4699 143.988 35.3295C143.779 35.1873 143.516 35.1162 143.199 35.1162C142.973 35.1162 142.776 35.1522 142.611 35.2242C142.445 35.2944 142.317 35.3916 142.225 35.5158C142.135 35.6381 142.09 35.7776 142.09 35.9342C142.09 36.0656 142.12 36.179 142.182 36.2744C142.245 36.3698 142.327 36.4499 142.427 36.5147C142.53 36.5777 142.64 36.6307 142.757 36.6739C142.874 36.7153 142.986 36.7495 143.094 36.7765L143.634 36.9169C143.81 36.9601 143.991 37.0186 144.177 37.0924C144.362 37.1662 144.534 37.2634 144.692 37.384C144.851 37.5046 144.979 37.6539 145.076 37.8321C145.175 38.0103 145.224 38.2236 145.224 38.472C145.224 38.7851 145.143 39.0632 144.981 39.3062C144.821 39.5491 144.588 39.7408 144.282 39.8812C143.978 40.0216 143.61 40.0918 143.178 40.0918C142.764 40.0918 142.406 40.0261 142.103 39.8947C141.801 39.7633 141.564 39.577 141.393 39.3359C141.222 39.0929 141.128 38.8049 141.11 38.472H141.947C141.963 38.6717 142.028 38.8382 142.141 38.9714C142.256 39.1028 142.403 39.2009 142.581 39.2657C142.761 39.3287 142.958 39.3602 143.172 39.3602C143.408 39.3602 143.618 39.3233 143.801 39.2495C143.987 39.1739 144.133 39.0695 144.239 38.9363C144.345 38.8013 144.398 38.6438 144.398 38.4639C144.398 38.3001 144.351 38.166 144.258 38.0616C144.166 37.9572 144.041 37.8708 143.882 37.8024C143.726 37.734 143.549 37.6737 143.351 37.6215L142.697 37.4434C142.255 37.3228 141.904 37.1455 141.644 36.9115C141.387 36.6775 141.258 36.368 141.258 35.9828C141.258 35.6642 141.345 35.3862 141.518 35.1486C141.69 34.911 141.924 34.7265 142.219 34.5952C142.515 34.462 142.848 34.3954 143.218 34.3954C143.593 34.3954 143.923 34.4611 144.209 34.5925C144.497 34.7238 144.724 34.9047 144.889 35.1351C145.055 35.3637 145.141 35.6265 145.149 35.9234H144.344ZM148.066 40V34.471H150.037C150.467 34.471 150.823 34.5493 151.106 34.7058C151.388 34.8624 151.6 35.0766 151.74 35.3484C151.881 35.6184 151.951 35.9225 151.951 36.2609C151.951 36.6011 151.88 36.907 151.737 37.1788C151.597 37.4488 151.385 37.6629 151.1 37.8213C150.818 37.9779 150.462 38.0562 150.034 38.0562H148.679V37.3489H149.958C150.23 37.3489 150.451 37.3021 150.62 37.2085C150.789 37.1131 150.913 36.9835 150.992 36.8197C151.072 36.6559 151.111 36.4697 151.111 36.2609C151.111 36.0521 151.072 35.8667 150.992 35.7047C150.913 35.5428 150.788 35.4159 150.617 35.3241C150.448 35.2323 150.225 35.1864 149.948 35.1864H148.9V40H148.066ZM157.648 37.2355C157.648 37.8258 157.54 38.3334 157.324 38.7581C157.108 39.1811 156.812 39.5069 156.436 39.7354C156.061 39.9622 155.636 40.0756 155.159 40.0756C154.68 40.0756 154.253 39.9622 153.876 39.7354C153.502 39.5069 153.207 39.1802 152.991 38.7554C152.775 38.3307 152.667 37.824 152.667 37.2355C152.667 36.6451 152.775 36.1385 152.991 35.7155C153.207 35.2908 153.502 34.965 153.876 34.7382C154.253 34.5097 154.68 34.3954 155.159 34.3954C155.636 34.3954 156.061 34.5097 156.436 34.7382C156.812 34.965 157.108 35.2908 157.324 35.7155C157.54 36.1385 157.648 36.6451 157.648 37.2355ZM156.822 37.2355C156.822 36.7855 156.749 36.4067 156.603 36.0989C156.459 35.7893 156.261 35.5554 156.009 35.397C155.759 35.2368 155.475 35.1567 155.159 35.1567C154.84 35.1567 154.556 35.2368 154.306 35.397C154.055 35.5554 153.857 35.7893 153.712 36.0989C153.568 36.4067 153.496 36.7855 153.496 37.2355C153.496 37.6854 153.568 38.0652 153.712 38.3748C153.857 38.6825 154.055 38.9165 154.306 39.0767C154.556 39.2351 154.84 39.3143 155.159 39.3143C155.475 39.3143 155.759 39.2351 156.009 39.0767C156.261 38.9165 156.459 38.6825 156.603 38.3748C156.749 38.0652 156.822 37.6854 156.822 37.2355ZM159.62 40L158.087 34.471H158.964L160.041 38.7527H160.093L161.213 34.471H162.082L163.203 38.7554H163.254L164.328 34.471H165.209L163.672 40H162.833L161.669 35.8586H161.626L160.462 40H159.62ZM165.886 40V34.471H169.352V35.1891H166.72V36.8737H169.171V37.5891H166.72V39.2819H169.384V40H165.886ZM170.383 40V34.471H172.353C172.782 34.471 173.137 34.5448 173.42 34.6923C173.704 34.8399 173.917 35.0442 174.057 35.3052C174.197 35.5644 174.268 35.864 174.268 36.2042C174.268 36.5426 174.196 36.8404 174.054 37.0978C173.914 37.3534 173.702 37.5523 173.417 37.6944C173.135 37.8366 172.779 37.9077 172.351 37.9077H170.858V37.1896H172.275C172.545 37.1896 172.765 37.1509 172.934 37.0735C173.105 36.9961 173.23 36.8836 173.309 36.736C173.388 36.5885 173.428 36.4112 173.428 36.2042C173.428 35.9954 173.387 35.8145 173.306 35.6615C173.227 35.5086 173.102 35.3916 172.931 35.3106C172.762 35.2278 172.54 35.1864 172.264 35.1864H171.217V40H170.383ZM173.112 37.5055L174.478 40H173.528L172.189 37.5055H173.112Z" fill="#080707"/>
<defs>
<clipPath id="clip0_1679_103">
<rect width="287.022" height="16" fill="white" transform="translate(0.48877)"/>
</clipPath>
</defs>
</svg>
