<svg width="80" height="20" viewBox="0 0 80 20" fill="none" xmlns="http://www.w3.org/2000/svg">
<rect x="-0.00390625" width="47.7253" height="20" rx="1.67457" fill="white"/>
<g clip-path="url(#clip0_1913_562)">
<path d="M24.5639 7.58405C24.5405 9.42963 26.2086 10.4595 27.4652 11.0718C28.7563 11.7001 29.19 12.103 29.1848 12.6648C29.1752 13.5246 28.155 13.9041 27.2003 13.9189C25.5347 13.9447 24.5663 13.4692 23.7964 13.1096L23.1964 15.9172C23.9688 16.2731 25.3991 16.5835 26.8824 16.5972C30.3641 16.5972 32.6419 14.8785 32.6542 12.2139C32.6678 8.83201 27.9765 8.64482 28.0085 7.13324C28.0196 6.67489 28.4569 6.18577 29.4153 6.06141C29.8897 5.99858 31.1992 5.95051 32.6838 6.63418L33.2666 3.91775C32.4681 3.62703 31.442 3.34866 30.1644 3.34866C26.8873 3.34866 24.5825 5.0907 24.5639 7.58405ZM38.8658 3.58264C38.23 3.58264 37.6943 3.95348 37.4552 4.52257L32.4818 16.3976H35.9609L36.6532 14.4843H40.9046L41.3062 16.3976H44.3727L41.6968 3.58264H38.8658ZM39.3525 7.04445L40.3565 11.8566H37.6068L39.3525 7.04445ZM20.3456 3.5828L17.6032 16.3975H20.9186L23.6597 3.58248L20.3456 3.5828ZM15.4411 3.5828L11.9904 12.305L10.5945 4.88861C10.4307 4.0607 9.78389 3.58264 9.0656 3.58264H3.42471L3.3457 3.95477C4.50375 4.20606 5.8195 4.61136 6.61664 5.04503C7.10448 5.30994 7.24359 5.54152 7.40385 6.17103L10.0477 16.3976H13.5512L18.9225 3.58264L15.4411 3.5828Z" fill="url(#paint0_linear_1913_562)"/>
</g>
<rect x="51.7227" width="28.2781" height="20" rx="1.66342" fill="#080707"/>
<g clip-path="url(#clip1_1913_562)">
<path d="M62.9297 4.75439H68.7708V15.2499H62.9297V4.75439Z" fill="#FF5F00"/>
<path d="M63.3007 10.0023C63.3007 7.86982 64.302 5.97836 65.841 4.75446C64.71 3.8644 63.2822 3.32666 61.7245 3.32666C58.0343 3.32666 55.0488 6.3121 55.0488 10.0023C55.0488 13.6924 58.0343 16.6779 61.7244 16.6779C63.2821 16.6779 64.7099 16.1402 65.841 15.25C64.302 14.0447 63.3007 12.1347 63.3007 10.0023Z" fill="#EB001B"/>
<path d="M76.6516 10.0023C76.6516 13.6924 73.6661 16.6779 69.976 16.6779C68.4183 16.6779 66.9905 16.1402 65.8594 15.25C67.417 14.0262 68.3998 12.1347 68.3998 10.0023C68.3998 7.86982 67.3984 5.97836 65.8594 4.75446C66.9904 3.8644 68.4183 3.32666 69.976 3.32666C73.6661 3.32666 76.6516 6.33068 76.6516 10.0023Z" fill="#F79E1B"/>
</g>
<defs>
<linearGradient id="paint0_linear_1913_562" x1="1889.52" y1="43.1737" x2="1927.87" y2="-1317.47" gradientUnits="userSpaceOnUse">
<stop stop-color="#222357"/>
<stop offset="1" stop-color="#254AA5"/>
</linearGradient>
<clipPath id="clip0_1913_562">
<rect width="41.027" height="13.3017" fill="white" transform="translate(3.3457 3.34912)"/>
</clipPath>
<clipPath id="clip1_1913_562">
<rect width="21.6244" height="13.3463" fill="white" transform="translate(55.0488 3.3269)"/>
</clipPath>
</defs>
</svg>
