<svg width="225" height="120" viewBox="0 0 225 120" fill="none" xmlns="http://www.w3.org/2000/svg">
<g opacity="0.03" clip-path="url(#clip0_1679_353)">
<path d="M191.312 59.6357L184.741 58.9632C177.193 58.1919 169.606 57.7555 162.036 57.621C164.523 54.9422 166.903 52.1727 169.049 49.1919L171.209 46.1892L168.127 48.245C164.99 50.3365 162.061 52.6805 159.228 55.1425C159.086 48.9147 158.646 42.7006 157.886 36.5387L157.269 31.5186L156.656 36.5387C155.902 42.6402 155.465 48.7885 155.32 54.9559C152.619 52.4609 149.808 50.0757 146.789 47.9101L143.748 45.7308L145.834 48.8324C147.931 51.9367 150.267 54.8324 152.707 57.621C145.038 57.7473 137.394 58.1837 129.805 58.9659L123.283 59.6384L129.805 60.3109C137.328 61.0876 144.909 61.5213 152.509 61.653C150.031 64.3209 147.651 67.0931 145.496 70.0794L143.312 73.1096L146.419 71.0318C149.567 68.9266 152.493 66.5826 155.32 64.1233C155.463 70.3347 155.899 76.546 156.656 82.7381L157.269 87.8022L157.886 82.7381C158.638 76.6119 159.072 70.4637 159.228 64.3209C161.932 66.8214 164.742 69.2148 167.762 71.3667L170.781 73.5186L168.711 70.4417C166.623 67.3429 164.287 64.4472 161.839 61.6503C169.48 61.5158 177.124 61.0849 184.743 60.3081L191.314 59.6357H191.312Z" fill="#080707"/>
<path d="M90.9693 83.3998L92.1276 85.5901L92.2511 85.8399C93.4945 87.9094 94.4853 89.4382 95.4817 90.8051C96.5137 92.2955 97.7132 93.8243 99.2447 95.6441C100.527 97.0933 101.935 98.5398 103.507 100.071C104.871 101.356 106.197 102.47 107.476 103.464C107.891 103.785 109.933 100.653 110.147 100.329C112.914 96.204 112.491 91.4776 110.46 87.344C108.892 84.1601 106.376 81.333 103.617 79.4062C99.4012 76.4583 94.4387 74.7237 89.5997 73.1015C89.2758 72.9945 86.8934 72.462 86.833 72.2314C87.3298 74.1747 87.9501 76.2827 88.779 78.5608L89.0288 79.1811C89.7315 80.795 90.3518 82.1619 90.9721 83.4025L90.9693 83.3998Z" fill="#080707"/>
<path d="M99.2418 24.0369C96.2637 27.4266 93.7413 31.0277 91.7953 34.7084C90.9664 36.1988 90.2253 37.7304 89.5611 39.2592C88.5702 41.5319 87.7413 43.9335 87.0799 46.3736C86.9975 46.6618 86.9124 46.9527 86.8301 47.2437C93.6562 48.9372 100.359 50.842 106.48 53.1997C106.48 52.9088 106.48 52.5794 106.521 52.2885C106.812 47.7377 107.432 43.4367 108.258 39.5858C108.467 38.5538 108.755 37.5163 109.002 36.5666C109.417 35.1201 109.872 33.7148 110.369 32.348V32.3068C107.059 28.8319 103.625 25.7716 100.027 23.1641C99.777 23.4523 99.53 23.7432 99.239 24.0341L99.2418 24.0369Z" fill="#080707"/>
<path d="M123.318 13.3212C124.103 12.7009 124.888 12.1217 125.717 11.5426C127.704 10.2196 129.727 9.10253 131.756 8.19402C132.461 7.82348 133.164 7.53254 133.949 7.28277C135.189 6.7448 136.512 6.29192 137.879 5.95706C139.246 5.54535 140.651 5.21324 142.057 4.92504C146.193 4.1373 150.579 3.72559 155.13 3.72559C156 3.68442 156.823 3.72559 157.652 3.76676C169.899 4.26081 181.979 7.98542 193.559 14.8143L193.767 14.9378C202.205 19.9854 210.357 26.6442 217.265 34.2553C218.959 36.0778 220.408 37.7713 221.734 39.4264L222.313 40.0879L225.003 38.2681L204.274 0.000976563H201.505L197.036 9.10253L196.128 9.06136C183.84 3.6405 173.001 0.871059 161.047 0.168406C159.31 0.0421477 157.449 0.000976562 155.133 0.000976562C143.632 0.000976562 132.132 2.48497 121.872 7.2416C119.679 8.31479 117.859 9.26996 116.204 10.2196C115.916 10.3843 115.666 10.549 115.375 10.7576L118.891 17.5426C120.255 16.011 121.743 14.6057 123.318 13.3212Z" fill="#080707"/>
<path d="M221.775 80.2574C220.575 81.6654 219.047 83.5264 217.265 85.4285C210.357 92.9957 202.249 99.6572 193.85 104.664L193.521 104.872C181.938 111.698 169.858 115.379 157.655 115.876C156.785 115.917 156 115.917 155.006 115.917C150.497 115.917 146.155 115.546 142.057 114.718C141.351 114.591 140.649 114.429 139.864 114.221C139.161 114.056 138.499 113.891 137.835 113.727C136.512 113.353 135.187 112.898 133.946 112.401C133.243 112.11 132.582 111.822 131.756 111.451C129.727 110.543 127.702 109.423 125.714 108.1C125.673 108.1 125.673 108.059 125.632 108.059C124.224 109.467 122.695 110.787 120.999 112.03C124.227 113.559 127.661 114.926 131.135 116.041C132.25 116.414 133.367 116.746 134.445 116.993C136.433 117.531 138.541 117.984 141.148 118.483C145.658 119.312 150.291 119.724 155.006 119.724C157.32 119.724 159.266 119.642 161.045 119.515C173.001 118.813 183.84 116.082 196.166 110.622L197.037 110.581L201.508 119.724H204.277L225.003 81.4184L222.313 79.5986L221.775 80.2601V80.2574Z" fill="#080707"/>
<path d="M131.111 85.9088C131.111 60.9179 99.7112 54.1164 69.3434 47.5428C43.993 42.056 20.0479 36.8685 20.0479 21.3333C20.0479 18.4431 21.4999 4.03043 50.2071 4.03043C81.8567 4.03043 104.221 15.3415 122.715 40.7084L123.212 41.3863L125.756 39.9453L107.342 4.17316H105.187L101.553 10.9774H101.289C88.1696 5.66904 71.8082 0.264648 49.9217 0.264648C22.9217 0.264648 4.05706 11.6032 4.05706 27.8465C4.05706 49.3845 33.5383 55.7852 62.0507 61.9746C90.1733 68.0789 116.729 73.8511 116.729 92.573C116.729 106.955 100.606 116.244 75.6536 116.244C42.6261 116.244 12.7798 93.4925 3.93081 77.0625L3.54105 76.3378L0.686523 77.4165L18.0443 117.116H20.2153L25.0159 109.157H25.3013C35.929 113.839 52.7707 120.007 76.6829 120.007C108.73 120.007 131.117 105.987 131.117 85.9142L131.111 85.9088Z" fill="#080707"/>
</g>
<defs>
<clipPath id="clip0_1679_353">
<rect width="224.317" height="120" fill="white" transform="translate(0.683594)"/>
</clipPath>
</defs>
</svg>
