<svg width="374" height="200" viewBox="0 0 374 200" fill="none" xmlns="http://www.w3.org/2000/svg">
<g opacity="0.02" clip-path="url(#clip0_1211_12934)">
<path d="M317.716 99.3931L306.764 98.2723C294.184 96.9869 281.54 96.2595 268.923 96.0354C273.068 91.5706 277.034 86.9549 280.611 81.9869L284.211 76.9823L279.074 80.4087C273.845 83.8945 268.964 87.8011 264.243 91.9045C264.006 81.5248 263.274 71.168 262.006 60.8981L260.977 52.5312L259.957 60.8981C258.699 71.0674 257.972 81.3144 257.729 91.5935C253.228 87.4352 248.544 83.4599 243.512 79.8506L238.443 76.2183L241.92 81.3876C245.415 86.5614 249.308 91.3876 253.374 96.0354C240.593 96.2458 227.853 96.9732 215.204 98.2769L204.335 99.3977L215.204 100.518C227.743 101.813 240.378 102.536 253.045 102.755C248.914 107.202 244.948 111.822 241.357 116.799L237.716 121.85L242.894 118.387C248.141 114.878 253.017 110.971 257.729 106.873C257.967 117.225 258.695 127.577 259.957 137.897L260.977 146.337L262.006 137.897C263.26 127.687 263.983 117.44 264.243 107.202C268.749 111.369 273.434 115.358 278.466 118.945L283.498 122.531L280.049 117.403C276.567 112.238 272.674 107.412 268.594 102.751C281.329 102.527 294.07 101.808 306.769 100.514L317.72 99.3931H317.716Z" fill="#080707"/>
<path d="M150.477 139.001L152.407 142.651L152.613 143.067C154.685 146.517 156.337 149.065 157.997 151.343C159.718 153.827 161.717 156.375 164.269 159.408C166.406 161.823 168.752 164.234 171.373 166.787C173.647 168.927 175.857 170.785 177.988 172.441C178.679 172.976 182.083 167.756 182.439 167.217C187.051 160.341 186.346 152.464 182.961 145.574C180.349 140.268 176.154 135.556 171.556 132.345C164.53 127.432 156.259 124.54 148.194 121.837C147.654 121.658 143.684 120.771 143.583 120.387C144.411 123.626 145.445 127.139 146.826 130.936L147.243 131.97C148.414 134.659 149.448 136.937 150.481 139.005L150.477 139.001Z" fill="#080707"/>
<path d="M164.266 40.0621C159.303 45.7117 155.099 51.7136 151.855 57.848C150.474 60.332 149.239 62.8846 148.132 65.4327C146.48 69.2204 145.099 73.2232 143.996 77.2899C143.859 77.7703 143.717 78.2552 143.58 78.7401C154.957 81.5626 166.128 84.7373 176.329 88.6669C176.329 88.182 176.329 87.633 176.398 87.1481C176.883 79.5635 177.917 72.3952 179.294 65.977C179.641 64.257 180.122 62.5278 180.533 60.945C181.224 58.5342 181.984 56.1921 182.812 53.9139V53.8453C177.295 48.0539 171.572 42.9533 165.575 38.6074C165.158 39.0878 164.747 39.5727 164.262 40.0576L164.266 40.0621Z" fill="#080707"/>
<path d="M204.394 22.2023C205.702 21.1685 207.011 20.2032 208.392 19.238C211.704 17.0331 215.076 15.1712 218.456 13.657C219.632 13.0395 220.803 12.5546 222.111 12.1383C224.179 11.2417 226.384 10.4869 228.662 9.92876C230.94 9.24258 233.282 8.68905 235.625 8.20872C242.519 6.89582 249.829 6.20964 257.413 6.20964C258.863 6.14102 260.236 6.20964 261.617 6.27826C282.029 7.10168 302.162 13.3094 321.462 24.6909L321.809 24.8967C335.872 33.3094 349.458 44.4073 360.972 57.0925C363.795 60.13 366.21 62.9525 368.42 65.711L369.385 66.8135L373.868 63.7805L339.321 0.00195313H334.705L327.258 15.1712L325.744 15.1026C305.263 6.06783 287.198 1.45209 267.276 0.281002C264.38 0.0705716 261.279 0.00195312 257.418 0.00195312C238.25 0.00195312 219.083 4.14193 201.983 12.0697C198.328 13.8583 195.295 15.4503 192.537 17.0331C192.056 17.3075 191.64 17.582 191.155 17.9297L197.015 29.238C199.289 26.6854 201.768 24.3432 204.394 22.2023Z" fill="#080707"/>
<path d="M368.486 133.763C366.487 136.11 363.939 139.211 360.97 142.381C349.456 154.993 335.943 166.096 321.944 174.44L321.396 174.788C302.091 186.165 281.958 192.299 261.62 193.127C260.17 193.196 258.861 193.196 257.205 193.196C249.689 193.196 242.452 192.578 235.622 191.197C234.447 190.986 233.276 190.716 231.967 190.369C230.796 190.094 229.694 189.82 228.587 189.545C226.382 188.923 224.172 188.164 222.105 187.336C220.933 186.851 219.831 186.37 218.454 185.753C215.073 184.239 211.697 182.372 208.385 180.167C208.317 180.167 208.317 180.099 208.248 180.099C205.901 182.445 203.353 184.646 200.526 186.718C205.906 189.266 211.629 191.544 217.42 193.402C219.278 194.024 221.139 194.577 222.937 194.989C226.249 195.886 229.762 196.64 234.108 197.473C241.624 198.854 249.346 199.541 257.205 199.541C261.062 199.541 264.305 199.403 267.269 199.193C287.196 198.022 305.261 193.47 325.805 184.371L327.256 184.303L334.708 199.541H339.323L373.866 135.698L369.383 132.665L368.486 133.768V133.763Z" fill="#080707"/>
<path d="M217.38 143.182C217.38 101.53 165.047 90.1944 114.434 79.2383C72.1834 70.0937 32.2748 61.4478 32.2748 35.5558C32.2748 30.7388 34.6948 6.71771 82.5402 6.71771C135.289 6.71771 172.563 25.5695 203.386 67.8476L204.214 68.9775L208.455 66.5759L177.764 6.95559H174.173L168.117 18.2959H167.677C145.811 9.44873 118.542 0.441406 82.0644 0.441406C37.0644 0.441406 5.62343 19.3389 5.62343 46.4112C5.62343 82.3078 54.7588 92.9757 102.279 103.291C149.15 113.465 193.409 123.086 193.409 154.289C193.409 178.259 166.538 193.74 124.951 193.74C69.9052 193.74 20.1614 155.821 5.413 128.438L4.76341 127.23L0.00585938 129.028L28.9354 195.194H32.5539L40.5548 181.928H41.0306C58.7433 189.732 86.8128 200.011 126.666 200.011C180.079 200.011 217.389 176.645 217.389 143.191L217.38 143.182Z" fill="#080707"/>
</g>
<defs>
<clipPath id="clip0_1211_12934">
<rect width="373.861" height="200" fill="white"/>
</clipPath>
</defs>
</svg>
